<svg version="1.1" xmlns="http://www.w3.org/2000/svg" xmlns:xlink="http://www.w3.org/1999/xlink" width="1028.8" height="757.2"><defs><linearGradient id="HoKAfQRHHGmN" x1="3989.200002145767px" x2="3989.200002145767px" y1="797.5px" y2="1130.9000007152558px" gradientUnits="userSpaceOnUse"><stop offset="0" stop-color="rgb(211,211,211)" stop-opacity="1"/><stop offset="1" stop-color="rgb(211,211,211)" stop-opacity="1"/></linearGradient><linearGradient id="BHVFqWLxHeHd" x1="3989.200002145767px" x2="1703.2000007152558px" y1="1325.9000007152558px" y2="3119.5000121593475px" gradientUnits="userSpaceOnUse"><stop offset="0" stop-color="rgb(211,211,211)" stop-opacity="1"/><stop offset="1" stop-color="rgb(29,122,218)" stop-opacity="1"/></linearGradient><linearGradient id="kpbtPlCovSdJ" x1="3656.700002145767px" x2="1979.7000007152558px" y1="1228.4000007152558px" y2="2895.000010728836px" gradientUnits="userSpaceOnUse"><stop offset="0" stop-color="rgb(211,211,211)" stop-opacity="1"/><stop offset="1" stop-color="rgb(29,122,218)" stop-opacity="1"/></linearGradient><linearGradient id="USGwxrSMvZEG" x1="3656.700002145767px" x2="1979.7000007152558px" y1="1228.4000007152558px" y2="3028.000011444092px" gradientUnits="userSpaceOnUse"><stop offset="0" stop-color="rgb(211,211,211)" stop-opacity="1"/><stop offset="1" stop-color="rgb(29,122,218)" stop-opacity="1"/></linearGradient><linearGradient id="PBNJabPTnmMf" x1="3989.200002145767px" x2="2909.200002145767px" y1="1325.9000007152558px" y2="2055.5000064373016px" gradientUnits="userSpaceOnUse"><stop offset="0" stop-color="rgb(211,211,211)" stop-opacity="1"/><stop offset="1" stop-color="rgb(29,122,218)" stop-opacity="1"/></linearGradient><linearGradient id="KOqglRSdmvoy" x1="3656.700002145767px" x2="2582.7000014305113px" y1="1228.4000007152558px" y2="2230.0000071525574px" gradientUnits="userSpaceOnUse"><stop offset="0" stop-color="rgb(211,211,211)" stop-opacity="1"/><stop offset="1" stop-color="rgb(29,122,218)" stop-opacity="1"/></linearGradient><linearGradient id="yRGrxBsHItRg" x1="3989.200002145767px" x2="2909.200002145767px" y1="1325.9000007152558px" y2="2454.500008583069px" gradientUnits="userSpaceOnUse"><stop offset="0" stop-color="rgb(211,211,211)" stop-opacity="1"/><stop offset="1" stop-color="rgb(29,122,218)" stop-opacity="1"/></linearGradient><linearGradient id="CUCxHKJlqfUf" x1="3656.700002145767px" x2="1979.7000007152558px" y1="1228.4000007152558px" y2="2363.000007867813px" gradientUnits="userSpaceOnUse"><stop offset="0" stop-color="rgb(211,211,211)" stop-opacity="1"/><stop offset="1" stop-color="rgb(29,122,218)" stop-opacity="1"/></linearGradient><linearGradient id="OEWCcBiVyOVu" x1="3989.200002145767px" x2="2306.2000014305113px" y1="797.5px" y2="2986.500011444092px" gradientUnits="userSpaceOnUse"><stop offset="0" stop-color="rgb(211,211,211)" stop-opacity="1"/><stop offset="1" stop-color="rgb(29,122,218)" stop-opacity="1"/></linearGradient><linearGradient id="mCedlqKPXXhX" x1="3989.200002145767px" x2="2909.200002145767px" y1="797.5px" y2="2188.5000071525574px" gradientUnits="userSpaceOnUse"><stop offset="0" stop-color="rgb(211,211,211)" stop-opacity="1"/><stop offset="1" stop-color="rgb(29,122,218)" stop-opacity="1"/></linearGradient><linearGradient id="EyUhNITTxdsT" x1="3989.200002145767px" x2="2909.200002145767px" y1="797.5px" y2="2853.500010728836px" gradientUnits="userSpaceOnUse"><stop offset="0" stop-color="rgb(211,211,211)" stop-opacity="1"/><stop offset="1" stop-color="rgb(29,122,218)" stop-opacity="1"/></linearGradient><linearGradient id="OnzUglhAFRNM" x1="3656.700002145767px" x2="1979.7000007152558px" y1="700px" y2="2496.000008583069px" gradientUnits="userSpaceOnUse"><stop offset="0" stop-color="rgb(211,211,211)" stop-opacity="1"/><stop offset="1" stop-color="rgb(29,122,218)" stop-opacity="1"/></linearGradient><linearGradient id="aVyosBemoKrC" x1="3656.700002145767px" x2="1979.7000007152558px" y1="700px" y2="500px" gradientUnits="userSpaceOnUse"><stop offset="0" stop-color="rgb(211,211,211)" stop-opacity="1"/><stop offset="1" stop-color="rgb(0,0,0)" stop-opacity="1"/></linearGradient><linearGradient id="htXBKMWtVqiD" x1="3989.200002145767px" x2="3989.200002145767px" y1="797.5px" y2="1189.4000007152558px" gradientUnits="userSpaceOnUse"><stop offset="0" stop-color="rgb(211,211,211)" stop-opacity="1"/><stop offset="1" stop-color="rgb(211,211,211)" stop-opacity="1"/></linearGradient><linearGradient id="UUGGdkdbUTHD" x1="2982.7000014305113px" x2="3656.700002145767px" y1="1298.0000042915344px" y2="1228.4000007152558px" gradientUnits="userSpaceOnUse"><stop offset="0" stop-color="rgb(255,193,7)" stop-opacity="1"/><stop offset="1" stop-color="rgb(211,211,211)" stop-opacity="1"/></linearGradient><linearGradient id="uzmtGHvkTTLc" x1="2982.7000014305113px" x2="3656.700002145767px" y1="500px" y2="1228.4000007152558px" gradientUnits="userSpaceOnUse"><stop offset="0" stop-color="rgb(255,193,7)" stop-opacity="1"/><stop offset="1" stop-color="rgb(211,211,211)" stop-opacity="1"/></linearGradient><linearGradient id="VxuuaVLtQxNm" x1="2982.7000014305113px" x2="3656.700002145767px" y1="633.0000007152557px" y2="1228.4000007152558px" gradientUnits="userSpaceOnUse"><stop offset="0" stop-color="rgb(255,193,7)" stop-opacity="1"/><stop offset="1" stop-color="rgb(211,211,211)" stop-opacity="1"/></linearGradient><linearGradient id="xykccUQqHElZ" x1="2982.7000014305113px" x2="3656.700002145767px" y1="766.0000014305115px" y2="1228.4000007152558px" gradientUnits="userSpaceOnUse"><stop offset="0" stop-color="rgb(255,193,7)" stop-opacity="1"/><stop offset="1" stop-color="rgb(211,211,211)" stop-opacity="1"/></linearGradient><linearGradient id="KwvUmWLDhEDG" x1="2982.7000014305113px" x2="3656.700002145767px" y1="899.0000021457672px" y2="1228.4000007152558px" gradientUnits="userSpaceOnUse"><stop offset="0" stop-color="rgb(255,193,7)" stop-opacity="1"/><stop offset="1" stop-color="rgb(211,211,211)" stop-opacity="1"/></linearGradient><linearGradient id="oXbEpNHtohfL" x1="2982.7000014305113px" x2="3656.700002145767px" y1="1032.000002861023px" y2="1228.4000007152558px" gradientUnits="userSpaceOnUse"><stop offset="0" stop-color="rgb(255,193,7)" stop-opacity="1"/><stop offset="1" stop-color="rgb(211,211,211)" stop-opacity="1"/></linearGradient><linearGradient id="tPzCWZCHgerG" x1="2982.7000014305113px" x2="3656.700002145767px" y1="1165.0000035762787px" y2="1228.4000007152558px" gradientUnits="userSpaceOnUse"><stop offset="0" stop-color="rgb(255,193,7)" stop-opacity="1"/><stop offset="1" stop-color="rgb(211,211,211)" stop-opacity="1"/></linearGradient><linearGradient id="NsZvbFTTmWwr" x1="2982.7000014305113px" x2="3656.700002145767px" y1="1431.0000050067902px" y2="1228.4000007152558px" gradientUnits="userSpaceOnUse"><stop offset="0" stop-color="rgb(255,193,7)" stop-opacity="1"/><stop offset="1" stop-color="rgb(211,211,211)" stop-opacity="1"/></linearGradient></defs><g transform="translate(48,14.139999999999965) scale(0.2,0.2)"><path fill="rgb(244,236,255)" stroke="rgb(255,255,255)" paint-order="fill stroke markers" d=" M 2331.9500010728834 -68.69999999999982 L 4893.900002145767 -68.69999999999982 L 4893.900002145767 -68.69999999999982 A 8 8 0 0 1 4901.900002145767 -60.69999999999982 L 4901.900002145767 3704.5000121593475 L 4901.900002145767 3704.5000121593475 A 8 8 0 0 1 4893.900002145767 3712.5000121593475 L -230 3712.5000121593475 L -230 3712.5000121593475 A 8 8 0 0 1 -238 3704.5000121593475 L -238 -60.69999999999982 L -238 -60.69999999999982 A 8 8 0 0 1 -230 -68.69999999999982 L 2331.9500010728834 -68.69999999999982 Z" fill-opacity="1" stroke-opacity="1" stroke-miterlimit="10" stroke-width="2"/><text fill="rgb(0,0,0)" stroke="none" font-family="Avenir, Helvetica, Arial, sans-serif" font-size="32px" font-style="normal" font-weight="bold" text-decoration="normal" x="2331.9500010728834" y="6.300000000000182" text-anchor="middle" dominant-baseline="text-after-edge" fill-opacity="1">platform-eks/terraform</text><path fill="rgb(255,255,255)" stroke="rgb(211,211,211)" paint-order="fill stroke markers" d=" M 2909.300001430511 132.80000000000018 L 4692.400002145767 132.80000000000018 L 4692.400002145767 132.80000000000018 A 8 8 0 0 1 4700.400002145767 140.80000000000018 L 4700.400002145767 3503.0000121593475 L 4700.400002145767 3503.0000121593475 A 8 8 0 0 1 4692.400002145767 3511.0000121593475 L 1126.2000007152556 3511.0000121593475 L 1126.2000007152556 3511.0000121593475 A 8 8 0 0 1 1118.2000007152556 3503.0000121593475 L 1118.2000007152556 140.80000000000018 L 1118.2000007152556 140.80000000000018 A 8 8 0 0 1 1126.2000007152556 132.80000000000018 L 2909.300001430511 132.80000000000018 Z" fill-opacity="1" stroke-opacity="1" stroke-miterlimit="10"/><text fill="rgb(0,0,0)" stroke="none" font-family="Avenir, Helvetica, Arial, sans-serif" font-size="32px" font-style="normal" font-weight="bold" text-decoration="normal" x="2909.300001430511" y="207.80000000000018" text-anchor="middle" dominant-baseline="text-after-edge" fill-opacity="1">module.tf</text><path fill="rgb(255,255,255)" stroke="rgb(211,211,211)" paint-order="fill stroke markers" d=" M 400 153 L 828.5 153 L 828.5 153 A 8 8 0 0 1 836.5 161 L 836.5 593.5 L 836.5 593.5 A 8 8 0 0 1 828.5 601.5 L -28.5 601.5 L -28.5 601.5 A 8 8 0 0 1 -36.5 593.5 L -36.5 161 L -36.5 161 A 8 8 0 0 1 -28.5 153 L 400 153 Z" fill-opacity="1" stroke-opacity="1" stroke-miterlimit="10"/><text fill="rgb(0,0,0)" stroke="none" font-family="Avenir, Helvetica, Arial, sans-serif" font-size="32px" font-style="normal" font-weight="bold" text-decoration="normal" x="400" y="228" text-anchor="middle" dominant-baseline="text-after-edge" fill-opacity="1">data.tf</text><path fill="rgb(255,255,255)" stroke="rgb(132,80,186)" paint-order="fill stroke markers" d=" M 2909.300001430511 238.80000000000018 L 4586.400002145767 238.80000000000018 L 4586.400002145767 238.80000000000018 A 8 8 0 0 1 4594.400002145767 246.80000000000018 L 4594.400002145767 3397.0000121593475 L 4594.400002145767 3397.0000121593475 A 8 8 0 0 1 4586.400002145767 3405.0000121593475 L 1232.2000007152556 3405.0000121593475 L 1232.2000007152556 3405.0000121593475 A 8 8 0 0 1 1224.2000007152556 3397.0000121593475 L 1224.2000007152556 246.80000000000018 L 1224.2000007152556 246.80000000000018 A 8 8 0 0 1 1232.2000007152556 238.80000000000018 L 2909.300001430511 238.80000000000018 Z" fill-opacity="1" stroke-opacity="1" stroke-miterlimit="10" stroke-width="10"/><text fill="rgb(132,80,186)" stroke="none" font-family="Avenir, Helvetica, Arial, sans-serif" font-size="32px" font-style="normal" font-weight="bold" text-decoration="normal" x="2909.300001430511" y="298.8000000000002" text-anchor="middle" dominant-baseline="text-after-edge" fill-opacity="1">platform-eks</text><path fill="rgb(255,255,255)" stroke="rgb(0,0,0)" paint-order="fill stroke markers" d=" M 400 302 L 725 302 L 725 302 A 8 8 0 0 1 733 310 L 733 490 L 733 490 A 8 8 0 0 1 725 498 L 75 498 L 75 498 A 8 8 0 0 1 67 490 L 67 310 L 67 310 A 8 8 0 0 1 75 302 L 400 302 Z" fill-opacity="1" stroke-opacity="1" stroke-miterlimit="10" stroke-width="5"/><rect fill="rgb(255,255,255)" stroke="none" x="188" y="253" width="424" height="96" fill-opacity="1"/><text fill="rgb(0,0,0)" stroke="none" font-family="Avenir, Helvetica, Arial, sans-serif" font-size="32px" font-style="normal" font-weight="bold" text-decoration="normal" x="400" y="317" text-anchor="middle" dominant-baseline="text-after-edge" fill-opacity="1">terraform_remote_state</text><path fill="rgb(255,255,255)" stroke="rgb(211,211,211)" paint-order="fill stroke markers" d=" M 2706.2000014305113 357.5 L 3114.7000014305113 357.5 L 3114.7000014305113 357.5 A 8 8 0 0 1 3122.7000014305113 365.5 L 3122.7000014305113 1565.5000050067902 L 3122.7000014305113 1565.5000050067902 A 8 8 0 0 1 3114.7000014305113 1573.5000050067902 L 2297.7000014305113 1573.5000050067902 L 2297.7000014305113 1573.5000050067902 A 8 8 0 0 1 2289.7000014305113 1565.5000050067902 L 2289.7000014305113 365.5 L 2289.7000014305113 365.5 A 8 8 0 0 1 2297.7000014305113 357.5 L 2706.2000014305113 357.5 Z" fill-opacity="1" stroke-opacity="1" stroke-miterlimit="10"/><text fill="rgb(0,0,0)" stroke="none" font-family="Avenir, Helvetica, Arial, sans-serif" font-size="32px" font-style="normal" font-weight="bold" text-decoration="normal" x="2706.2000014305113" y="432.5" text-anchor="middle" dominant-baseline="text-after-edge" fill-opacity="1">outputs.tf</text><path fill="rgb(255,255,255)" stroke="rgb(211,211,211)" paint-order="fill stroke markers" d=" M 2316.9500014305113 1821.500005722046 L 3300.200002145767 1821.500005722046 L 3300.200002145767 1821.500005722046 A 8 8 0 0 1 3308.200002145767 1829.500005722046 L 3308.200002145767 3295.5000121593475 L 3308.200002145767 3295.5000121593475 A 8 8 0 0 1 3300.200002145767 3303.5000121593475 L 1333.7000007152556 3303.5000121593475 L 1333.7000007152556 3303.5000121593475 A 8 8 0 0 1 1325.7000007152556 3295.5000121593475 L 1325.7000007152556 1829.500005722046 L 1325.7000007152556 1829.500005722046 A 8 8 0 0 1 1333.7000007152556 1821.500005722046 L 2316.9500014305113 1821.500005722046 Z" fill-opacity="1" stroke-opacity="1" stroke-miterlimit="10"/><text fill="rgb(0,0,0)" stroke="none" font-family="Avenir, Helvetica, Arial, sans-serif" font-size="32px" font-style="normal" font-weight="bold" text-decoration="normal" x="2316.9500014305113" y="1896.500005722046" text-anchor="middle" dominant-baseline="text-after-edge" fill-opacity="1">variables.tf</text><path fill="rgb(255,255,255)" stroke="rgb(211,211,211)" paint-order="fill stroke markers" d=" M 3989.200002145767 340.29999999999995 L 4484.900002145767 340.29999999999995 L 4484.900002145767 340.29999999999995 A 8 8 0 0 1 4492.900002145767 348.29999999999995 L 4492.900002145767 1489.1000007152559 L 4492.900002145767 1489.1000007152559 A 8 8 0 0 1 4484.900002145767 1497.1000007152559 L 3493.500002145767 1497.1000007152559 L 3493.500002145767 1497.1000007152559 A 8 8 0 0 1 3485.500002145767 1489.1000007152559 L 3485.500002145767 348.29999999999995 L 3485.500002145767 348.29999999999995 A 8 8 0 0 1 3493.500002145767 340.29999999999995 L 3989.200002145767 340.29999999999995 Z" fill-opacity="1" stroke-opacity="1" stroke-miterlimit="10"/><text fill="rgb(0,0,0)" stroke="none" font-family="Avenir, Helvetica, Arial, sans-serif" font-size="32px" font-style="normal" font-weight="bold" text-decoration="normal" x="3989.200002145767" y="415.29999999999995" text-anchor="middle" dominant-baseline="text-after-edge" fill-opacity="1">main.tf</text><path fill="rgb(255,255,255)" stroke="rgb(211,211,211)" paint-order="fill stroke markers" d=" M 1703.2000007152558 357.5 L 2072.7000007152556 357.5 L 2072.7000007152556 357.5 A 8 8 0 0 1 2080.7000007152556 365.5 L 2080.7000007152556 634.5 L 2080.7000007152556 634.5 A 8 8 0 0 1 2072.7000007152556 642.5 L 1333.7000007152558 642.5 L 1333.7000007152558 642.5 A 8 8 0 0 1 1325.7000007152558 634.5 L 1325.7000007152558 365.5 L 1325.7000007152558 365.5 A 8 8 0 0 1 1333.7000007152558 357.5 L 1703.2000007152558 357.5 Z" fill-opacity="1" stroke-opacity="1" stroke-miterlimit="10"/><text fill="rgb(0,0,0)" stroke="none" font-family="Avenir, Helvetica, Arial, sans-serif" font-size="32px" font-style="normal" font-weight="bold" text-decoration="normal" x="1703.2000007152558" y="432.5" text-anchor="middle" dominant-baseline="text-after-edge" fill-opacity="1">unknown file</text><path fill="rgb(255,255,255)" stroke="rgb(0,0,0)" paint-order="fill stroke markers" d=" M 3989.200002145767 489.3 L 4381.400002145767 489.3 L 4381.400002145767 489.3 A 8 8 0 0 1 4389.400002145767 497.3 L 4389.400002145767 857.2 L 4389.400002145767 857.2 A 8 8 0 0 1 4381.400002145767 865.2 L 3597.000002145767 865.2 L 3597.000002145767 865.2 A 8 8 0 0 1 3589.000002145767 857.2 L 3589.000002145767 497.3 L 3589.000002145767 497.3 A 8 8 0 0 1 3597.000002145767 489.3 L 3989.200002145767 489.3 Z" fill-opacity="1" stroke-opacity="1" stroke-miterlimit="10" stroke-width="5"/><rect fill="rgb(255,255,255)" stroke="none" x="3688.200002145767" y="440.3" width="602" height="96" fill-opacity="1"/><text fill="rgb(0,0,0)" stroke="none" font-family="Avenir, Helvetica, Arial, sans-serif" font-size="32px" font-style="normal" font-weight="bold" text-decoration="normal" x="3989.200002145767" y="504.3" text-anchor="middle" dominant-baseline="text-after-edge" fill-opacity="1">aws_s3_bucket_public_access_block</text><path fill="rgb(255,255,255)" stroke="rgb(0,0,0)" paint-order="fill stroke markers" d=" M 3989.200002145767 1017.7000007152558 L 4381.400002145767 1017.7000007152558 L 4381.400002145767 1017.7000007152558 A 8 8 0 0 1 4389.400002145767 1025.7000007152558 L 4389.400002145767 1385.6000007152559 L 4389.400002145767 1385.6000007152559 A 8 8 0 0 1 4381.400002145767 1393.6000007152559 L 3597.000002145767 1393.6000007152559 L 3597.000002145767 1393.6000007152559 A 8 8 0 0 1 3589.000002145767 1385.6000007152559 L 3589.000002145767 1025.7000007152558 L 3589.000002145767 1025.7000007152558 A 8 8 0 0 1 3597.000002145767 1017.7000007152558 L 3989.200002145767 1017.7000007152558 Z" fill-opacity="1" stroke-opacity="1" stroke-miterlimit="10" stroke-width="5"/><rect fill="rgb(255,255,255)" stroke="none" x="3845.200002145767" y="968.7000007152558" width="288" height="96" fill-opacity="1"/><text fill="rgb(0,0,0)" stroke="none" font-family="Avenir, Helvetica, Arial, sans-serif" font-size="32px" font-style="normal" font-weight="bold" text-decoration="normal" x="3989.200002145767" y="1032.7000007152558" text-anchor="middle" dominant-baseline="text-after-edge" fill-opacity="1">aws_s3_bucket</text><path fill="none" stroke="url(#HoKAfQRHHGmN)" paint-order="fill stroke markers" d=" M 3989.200002145767 797.5 L 3989.200002145767 964.2000003576279 L 3989.200002145767 964.2000003576279 L 3989.200002145767 1130.9000007152558" stroke-linejoin="round" stroke-miterlimit="10" stroke-width="10"/><path fill="rgb(255,255,255)" stroke="rgb(0,0,0)" paint-order="fill stroke markers" d=" M 3989.200002145767 605 L 4311.200002145767 605 L 4311.200002145767 605 A 8 8 0 0 1 4319.200002145767 613 L 4319.200002145767 787 L 4319.200002145767 787 A 8 8 0 0 1 4311.200002145767 795 L 3667.200002145767 795 L 3667.200002145767 795 A 8 8 0 0 1 3659.200002145767 787 L 3659.200002145767 613 L 3659.200002145767 613 A 8 8 0 0 1 3667.200002145767 605 L 3989.200002145767 605 Z" fill-opacity="1" stroke-opacity="1" stroke-miterlimit="10" stroke-width="5"/><rect fill="rgb(255,255,255)" stroke="none" x="3930.200002145767" y="556" width="118" height="96" fill-opacity="1"/><text fill="rgb(0,0,0)" stroke="none" font-family="Avenir, Helvetica, Arial, sans-serif" font-size="32px" font-style="normal" font-weight="bold" text-decoration="normal" x="3989.200002145767" y="620" text-anchor="middle" dominant-baseline="text-after-edge" fill-opacity="1">this</text><path fill="rgb(255,255,255)" stroke="rgb(0,0,0)" paint-order="fill stroke markers" d=" M 3989.200002145767 1133.4000007152558 L 4311.200002145767 1133.4000007152558 L 4311.200002145767 1133.4000007152558 A 8 8 0 0 1 4319.200002145767 1141.4000007152558 L 4319.200002145767 1315.4000007152558 L 4319.200002145767 1315.4000007152558 A 8 8 0 0 1 4311.200002145767 1323.4000007152558 L 3667.200002145767 1323.4000007152558 L 3667.200002145767 1323.4000007152558 A 8 8 0 0 1 3659.200002145767 1315.4000007152558 L 3659.200002145767 1141.4000007152558 L 3659.200002145767 1141.4000007152558 A 8 8 0 0 1 3667.200002145767 1133.4000007152558 L 3989.200002145767 1133.4000007152558 Z" fill-opacity="1" stroke-opacity="1" stroke-miterlimit="10" stroke-width="5"/><rect fill="rgb(255,255,255)" stroke="none" x="3930.200002145767" y="1084.4000007152558" width="118" height="96" fill-opacity="1"/><text fill="rgb(0,0,0)" stroke="none" font-family="Avenir, Helvetica, Arial, sans-serif" font-size="32px" font-style="normal" font-weight="bold" text-decoration="normal" x="3989.200002145767" y="1148.4000007152558" text-anchor="middle" dominant-baseline="text-after-edge" fill-opacity="1">this</text><path fill="none" stroke="url(#BHVFqWLxHeHd)" paint-order="fill stroke markers" d=" M 3989.200002145767 1325.9000007152558 L 3989.200002145767 2222.7000064373015 L 1703.2000007152558 2222.7000064373015 L 1703.2000007152558 3119.5000121593475" stroke-linejoin="round" stroke-miterlimit="10" stroke-width="10"/><path fill="none" stroke="url(#kpbtPlCovSdJ)" paint-order="fill stroke markers" d=" M 3656.700002145767 1228.4000007152558 L 2818.2000014305113 1228.4000007152558 L 2818.2000014305113 2895.000010728836 L 1979.7000007152558 2895.000010728836" stroke-linejoin="round" stroke-miterlimit="10" stroke-width="10"/><path fill="none" stroke="url(#USGwxrSMvZEG)" paint-order="fill stroke markers" d=" M 3656.700002145767 1228.4000007152558 L 2818.2000014305113 1228.4000007152558 L 2818.2000014305113 3028.000011444092 L 1979.7000007152558 3028.000011444092" stroke-linejoin="round" stroke-miterlimit="10" stroke-width="10"/><path fill="none" stroke="url(#PBNJabPTnmMf)" paint-order="fill stroke markers" d=" M 3989.200002145767 1325.9000007152558 L 3989.200002145767 1690.7000035762787 L 2909.200002145767 1690.7000035762787 L 2909.200002145767 2055.5000064373016" stroke-linejoin="round" stroke-miterlimit="10" stroke-width="10"/><path fill="none" stroke="url(#KOqglRSdmvoy)" paint-order="fill stroke markers" d=" M 3656.700002145767 1228.4000007152558 L 3119.700001788139 1228.4000007152558 L 3119.700001788139 2230.0000071525574 L 2582.7000014305113 2230.0000071525574" stroke-linejoin="round" stroke-miterlimit="10" stroke-width="10"/><path fill="none" stroke="url(#yRGrxBsHItRg)" paint-order="fill stroke markers" d=" M 3989.200002145767 1325.9000007152558 L 3989.200002145767 1890.2000046491623 L 2909.200002145767 1890.2000046491623 L 2909.200002145767 2454.500008583069" stroke-linejoin="round" stroke-miterlimit="10" stroke-width="10"/><path fill="none" stroke="url(#CUCxHKJlqfUf)" paint-order="fill stroke markers" d=" M 3656.700002145767 1228.4000007152558 L 2818.2000014305113 1228.4000007152558 L 2818.2000014305113 2363.000007867813 L 1979.7000007152558 2363.000007867813" stroke-linejoin="round" stroke-miterlimit="10" stroke-width="10"/><path fill="none" stroke="url(#OEWCcBiVyOVu)" paint-order="fill stroke markers" d=" M 3989.200002145767 797.5 L 3989.200002145767 1892.000005722046 L 2306.2000014305113 1892.000005722046 L 2306.2000014305113 2986.500011444092" stroke-linejoin="round" stroke-miterlimit="10" stroke-width="10"/><path fill="none" stroke="url(#mCedlqKPXXhX)" paint-order="fill stroke markers" d=" M 3989.200002145767 797.5 L 3989.200002145767 1493.0000035762787 L 2909.200002145767 1493.0000035762787 L 2909.200002145767 2188.5000071525574" stroke-linejoin="round" stroke-miterlimit="10" stroke-width="10"/><path fill="none" stroke="url(#EyUhNITTxdsT)" paint-order="fill stroke markers" d=" M 3989.200002145767 797.5 L 3989.200002145767 1825.500005364418 L 2909.200002145767 1825.500005364418 L 2909.200002145767 2853.500010728836" stroke-linejoin="round" stroke-miterlimit="10" stroke-width="10"/><path fill="none" stroke="url(#OnzUglhAFRNM)" paint-order="fill stroke markers" d=" M 3656.700002145767 700 L 2818.2000014305113 700 L 2818.2000014305113 2496.000008583069 L 1979.7000007152558 2496.000008583069" stroke-linejoin="round" stroke-miterlimit="10" stroke-width="10"/><path fill="none" stroke="url(#aVyosBemoKrC)" paint-order="fill stroke markers" d=" M 3656.700002145767 700 L 2818.2000014305113 700 L 2818.2000014305113 500 L 1979.7000007152558 500" stroke-linejoin="round" stroke-miterlimit="10" stroke-width="10"/><path fill="none" stroke="url(#htXBKMWtVqiD)" paint-order="fill stroke markers" d=" M 3989.200002145767 797.5 L 3989.200002145767 993.4500003576279 L 3989.200002145767 993.4500003576279 L 3989.200002145767 1189.4000007152558" stroke-linejoin="round" stroke-miterlimit="10" stroke-width="10"/><path fill="none" stroke="url(#UUGGdkdbUTHD)" paint-order="fill stroke markers" d=" M 2982.7000014305113 1298.0000042915344 L 3319.700001788139 1298.0000042915344 L 3319.700001788139 1228.4000007152558 L 3656.700002145767 1228.4000007152558" stroke-linejoin="round" stroke-miterlimit="10" stroke-width="10"/><path fill="none" stroke="url(#uzmtGHvkTTLc)" paint-order="fill stroke markers" d=" M 2982.7000014305113 500 L 3319.700001788139 500 L 3319.700001788139 1228.4000007152558 L 3656.700002145767 1228.4000007152558" stroke-linejoin="round" stroke-miterlimit="10" stroke-width="10"/><path fill="none" stroke="url(#VxuuaVLtQxNm)" paint-order="fill stroke markers" d=" M 2982.7000014305113 633.0000007152557 L 3319.700001788139 633.0000007152557 L 3319.700001788139 1228.4000007152558 L 3656.700002145767 1228.4000007152558" stroke-linejoin="round" stroke-miterlimit="10" stroke-width="10"/><path fill="none" stroke="url(#xykccUQqHElZ)" paint-order="fill stroke markers" d=" M 2982.7000014305113 766.0000014305115 L 3319.700001788139 766.0000014305115 L 3319.700001788139 1228.4000007152558 L 3656.700002145767 1228.4000007152558" stroke-linejoin="round" stroke-miterlimit="10" stroke-width="10"/><path fill="none" stroke="url(#KwvUmWLDhEDG)" paint-order="fill stroke markers" d=" M 2982.7000014305113 899.0000021457672 L 3319.700001788139 899.0000021457672 L 3319.700001788139 1228.4000007152558 L 3656.700002145767 1228.4000007152558" stroke-linejoin="round" stroke-miterlimit="10" stroke-width="10"/><path fill="none" stroke="url(#oXbEpNHtohfL)" paint-order="fill stroke markers" d=" M 2982.7000014305113 1032.000002861023 L 3319.700001788139 1032.000002861023 L 3319.700001788139 1228.4000007152558 L 3656.700002145767 1228.4000007152558" stroke-linejoin="round" stroke-miterlimit="10" stroke-width="10"/><path fill="none" stroke="url(#tPzCWZCHgerG)" paint-order="fill stroke markers" d=" M 2982.7000014305113 1165.0000035762787 L 3319.700001788139 1165.0000035762787 L 3319.700001788139 1228.4000007152558 L 3656.700002145767 1228.4000007152558" stroke-linejoin="round" stroke-miterlimit="10" stroke-width="10"/><path fill="none" stroke="url(#NsZvbFTTmWwr)" paint-order="fill stroke markers" d=" M 2982.7000014305113 1431.0000050067902 L 3319.700001788139 1431.0000050067902 L 3319.700001788139 1228.4000007152558 L 3656.700002145767 1228.4000007152558" stroke-linejoin="round" stroke-miterlimit="10" stroke-width="10"/><path fill="rgb(255,247,224)" stroke="rgb(255,193,7)" paint-order="fill stroke markers" d=" M 2706.2000014305113 461 L 2972.2000014305113 461 L 2972.2000014305113 461 A 8 8 0 0 1 2980.2000014305113 469 L 2980.2000014305113 531 L 2980.2000014305113 531 A 8 8 0 0 1 2972.2000014305113 539 L 2440.2000014305113 539 L 2440.2000014305113 539 A 8 8 0 0 1 2432.2000014305113 531 L 2432.2000014305113 469 L 2432.2000014305113 469 A 8 8 0 0 1 2440.2000014305113 461 L 2706.2000014305113 461 Z" fill-opacity="1" stroke-opacity="1" stroke-miterlimit="10" stroke-width="5"/><text fill="rgb(0,0,0)" stroke="none" font-family="Avenir, Helvetica, Arial, sans-serif" font-size="32px" font-style="normal" font-weight="bold" text-decoration="normal" x="2706.2000014305113" y="516" text-anchor="middle" dominant-baseline="text-after-edge" fill-opacity="1">s3_bucket_region</text><path fill="rgb(255,247,224)" stroke="rgb(255,193,7)" paint-order="fill stroke markers" d=" M 2706.2000014305113 594.0000007152557 L 2972.2000014305113 594.0000007152557 L 2972.2000014305113 594.0000007152557 A 8 8 0 0 1 2980.2000014305113 602.0000007152557 L 2980.2000014305113 664.0000007152557 L 2980.2000014305113 664.0000007152557 A 8 8 0 0 1 2972.2000014305113 672.0000007152557 L 2440.2000014305113 672.0000007152557 L 2440.2000014305113 672.0000007152557 A 8 8 0 0 1 2432.2000014305113 664.0000007152557 L 2432.2000014305113 602.0000007152557 L 2432.2000014305113 602.0000007152557 A 8 8 0 0 1 2440.2000014305113 594.0000007152557 L 2706.2000014305113 594.0000007152557 Z" fill-opacity="1" stroke-opacity="1" stroke-miterlimit="10" stroke-width="5"/><text fill="rgb(0,0,0)" stroke="none" font-family="Avenir, Helvetica, Arial, sans-serif" font-size="32px" font-style="normal" font-weight="bold" text-decoration="normal" x="2706.2000014305113" y="649.0000007152557" text-anchor="middle" dominant-baseline="text-after-edge" fill-opacity="1">s3_bucket_website_endpoint</text><path fill="rgb(255,247,224)" stroke="rgb(255,193,7)" paint-order="fill stroke markers" d=" M 2706.2000014305113 727.0000014305115 L 2972.2000014305113 727.0000014305115 L 2972.2000014305113 727.0000014305115 A 8 8 0 0 1 2980.2000014305113 735.0000014305115 L 2980.2000014305113 797.0000014305115 L 2980.2000014305113 797.0000014305115 A 8 8 0 0 1 2972.2000014305113 805.0000014305115 L 2440.2000014305113 805.0000014305115 L 2440.2000014305113 805.0000014305115 A 8 8 0 0 1 2432.2000014305113 797.0000014305115 L 2432.2000014305113 735.0000014305115 L 2432.2000014305113 735.0000014305115 A 8 8 0 0 1 2440.2000014305113 727.0000014305115 L 2706.2000014305113 727.0000014305115 Z" fill-opacity="1" stroke-opacity="1" stroke-miterlimit="10" stroke-width="5"/><text fill="rgb(0,0,0)" stroke="none" font-family="Avenir, Helvetica, Arial, sans-serif" font-size="32px" font-style="normal" font-weight="bold" text-decoration="normal" x="2706.2000014305113" y="782.0000014305115" text-anchor="middle" dominant-baseline="text-after-edge" fill-opacity="1">s3_bucket_website_domain</text><path fill="rgb(255,247,224)" stroke="rgb(255,193,7)" paint-order="fill stroke markers" d=" M 2706.2000014305113 860.0000021457672 L 2972.2000014305113 860.0000021457672 L 2972.2000014305113 860.0000021457672 A 8 8 0 0 1 2980.2000014305113 868.0000021457672 L 2980.2000014305113 930.0000021457672 L 2980.2000014305113 930.0000021457672 A 8 8 0 0 1 2972.2000014305113 938.0000021457672 L 2440.2000014305113 938.0000021457672 L 2440.2000014305113 938.0000021457672 A 8 8 0 0 1 2432.2000014305113 930.0000021457672 L 2432.2000014305113 868.0000021457672 L 2432.2000014305113 868.0000021457672 A 8 8 0 0 1 2440.2000014305113 860.0000021457672 L 2706.2000014305113 860.0000021457672 Z" fill-opacity="1" stroke-opacity="1" stroke-miterlimit="10" stroke-width="5"/><text fill="rgb(0,0,0)" stroke="none" font-family="Avenir, Helvetica, Arial, sans-serif" font-size="32px" font-style="normal" font-weight="bold" text-decoration="normal" x="2706.2000014305113" y="915.0000021457672" text-anchor="middle" dominant-baseline="text-after-edge" fill-opacity="1">s3_bucket_id</text><path fill="rgb(255,247,224)" stroke="rgb(255,193,7)" paint-order="fill stroke markers" d=" M 2706.2000014305113 993.000002861023 L 2972.2000014305113 993.000002861023 L 2972.2000014305113 993.000002861023 A 8 8 0 0 1 2980.2000014305113 1001.000002861023 L 2980.2000014305113 1063.000002861023 L 2980.2000014305113 1063.000002861023 A 8 8 0 0 1 2972.2000014305113 1071.000002861023 L 2440.2000014305113 1071.000002861023 L 2440.2000014305113 1071.000002861023 A 8 8 0 0 1 2432.2000014305113 1063.000002861023 L 2432.2000014305113 1001.000002861023 L 2432.2000014305113 1001.000002861023 A 8 8 0 0 1 2440.2000014305113 993.000002861023 L 2706.2000014305113 993.000002861023 Z" fill-opacity="1" stroke-opacity="1" stroke-miterlimit="10" stroke-width="5"/><text fill="rgb(0,0,0)" stroke="none" font-family="Avenir, Helvetica, Arial, sans-serif" font-size="32px" font-style="normal" font-weight="bold" text-decoration="normal" x="2706.2000014305113" y="1048.000002861023" text-anchor="middle" dominant-baseline="text-after-edge" fill-opacity="1">s3_bucket_arn</text><path fill="rgb(255,247,224)" stroke="rgb(255,193,7)" paint-order="fill stroke markers" d=" M 2706.2000014305113 1126.0000035762787 L 2972.2000014305113 1126.0000035762787 L 2972.2000014305113 1126.0000035762787 A 8 8 0 0 1 2980.2000014305113 1134.0000035762787 L 2980.2000014305113 1196.0000035762787 L 2980.2000014305113 1196.0000035762787 A 8 8 0 0 1 2972.2000014305113 1204.0000035762787 L 2440.2000014305113 1204.0000035762787 L 2440.2000014305113 1204.0000035762787 A 8 8 0 0 1 2432.2000014305113 1196.0000035762787 L 2432.2000014305113 1134.0000035762787 L 2432.2000014305113 1134.0000035762787 A 8 8 0 0 1 2440.2000014305113 1126.0000035762787 L 2706.2000014305113 1126.0000035762787 Z" fill-opacity="1" stroke-opacity="1" stroke-miterlimit="10" stroke-width="5"/><text fill="rgb(0,0,0)" stroke="none" font-family="Avenir, Helvetica, Arial, sans-serif" font-size="32px" font-style="normal" font-weight="bold" text-decoration="normal" x="2706.2000014305113" y="1181.0000035762787" text-anchor="middle" dominant-baseline="text-after-edge" fill-opacity="1">s3_bucket_bucket_domain_name</text><path fill="rgb(255,247,224)" stroke="rgb(255,193,7)" paint-order="fill stroke markers" d=" M 2706.2000014305113 1392.0000050067902 L 2972.2000014305113 1392.0000050067902 L 2972.2000014305113 1392.0000050067902 A 8 8 0 0 1 2980.2000014305113 1400.0000050067902 L 2980.2000014305113 1462.0000050067902 L 2980.2000014305113 1462.0000050067902 A 8 8 0 0 1 2972.2000014305113 1470.0000050067902 L 2440.2000014305113 1470.0000050067902 L 2440.2000014305113 1470.0000050067902 A 8 8 0 0 1 2432.2000014305113 1462.0000050067902 L 2432.2000014305113 1400.0000050067902 L 2432.2000014305113 1400.0000050067902 A 8 8 0 0 1 2440.2000014305113 1392.0000050067902 L 2706.2000014305113 1392.0000050067902 Z" fill-opacity="1" stroke-opacity="1" stroke-miterlimit="10" stroke-width="5"/><text fill="rgb(0,0,0)" stroke="none" font-family="Avenir, Helvetica, Arial, sans-serif" font-size="32px" font-style="normal" font-weight="bold" text-decoration="normal" x="2706.2000014305113" y="1447.0000050067902" text-anchor="middle" dominant-baseline="text-after-edge" fill-opacity="1">s3_bucket_bucket_regional_domain_name</text><path fill="rgb(255,247,224)" stroke="rgb(255,193,7)" paint-order="fill stroke markers" d=" M 2706.2000014305113 1259.0000042915344 L 2972.2000014305113 1259.0000042915344 L 2972.2000014305113 1259.0000042915344 A 8 8 0 0 1 2980.2000014305113 1267.0000042915344 L 2980.2000014305113 1329.0000042915344 L 2980.2000014305113 1329.0000042915344 A 8 8 0 0 1 2972.2000014305113 1337.0000042915344 L 2440.2000014305113 1337.0000042915344 L 2440.2000014305113 1337.0000042915344 A 8 8 0 0 1 2432.2000014305113 1329.0000042915344 L 2432.2000014305113 1267.0000042915344 L 2432.2000014305113 1267.0000042915344 A 8 8 0 0 1 2440.2000014305113 1259.0000042915344 L 2706.2000014305113 1259.0000042915344 Z" fill-opacity="1" stroke-opacity="1" stroke-miterlimit="10" stroke-width="5"/><text fill="rgb(0,0,0)" stroke="none" font-family="Avenir, Helvetica, Arial, sans-serif" font-size="32px" font-style="normal" font-weight="bold" text-decoration="normal" x="2706.2000014305113" y="1314.0000042915344" text-anchor="middle" dominant-baseline="text-after-edge" fill-opacity="1">s3_bucket_hosted_zone_id</text><path fill="rgb(225,240,255)" stroke="rgb(29,122,218)" paint-order="fill stroke markers" d=" M 1703.2000007152558 1925.000005722046 L 1969.2000007152558 1925.000005722046 L 1969.2000007152558 1925.000005722046 A 8 8 0 0 1 1977.2000007152558 1933.000005722046 L 1977.2000007152558 1995.000005722046 L 1977.2000007152558 1995.000005722046 A 8 8 0 0 1 1969.2000007152558 2003.000005722046 L 1437.2000007152558 2003.000005722046 L 1437.2000007152558 2003.000005722046 A 8 8 0 0 1 1429.2000007152558 1995.000005722046 L 1429.2000007152558 1933.000005722046 L 1429.2000007152558 1933.000005722046 A 8 8 0 0 1 1437.2000007152558 1925.000005722046 L 1703.2000007152558 1925.000005722046 Z" fill-opacity="1" stroke-opacity="1" stroke-miterlimit="10" stroke-width="5"/><text fill="rgb(0,0,0)" stroke="none" font-family="Avenir, Helvetica, Arial, sans-serif" font-size="32px" font-style="normal" font-weight="bold" text-decoration="normal" x="1703.2000007152558" y="1980.000005722046" text-anchor="middle" dominant-baseline="text-after-edge" fill-opacity="1">attach_public_policy</text><path fill="rgb(225,240,255)" stroke="rgb(29,122,218)" paint-order="fill stroke markers" d=" M 2306.2000014305113 1925.000005722046 L 2572.2000014305113 1925.000005722046 L 2572.2000014305113 1925.000005722046 A 8 8 0 0 1 2580.2000014305113 1933.000005722046 L 2580.2000014305113 1995.000005722046 L 2580.2000014305113 1995.000005722046 A 8 8 0 0 1 2572.2000014305113 2003.000005722046 L 2040.2000014305113 2003.000005722046 L 2040.2000014305113 2003.000005722046 A 8 8 0 0 1 2032.2000014305113 1995.000005722046 L 2032.2000014305113 1933.000005722046 L 2032.2000014305113 1933.000005722046 A 8 8 0 0 1 2040.2000014305113 1925.000005722046 L 2306.2000014305113 1925.000005722046 Z" fill-opacity="1" stroke-opacity="1" stroke-miterlimit="10" stroke-width="5"/><text fill="rgb(0,0,0)" stroke="none" font-family="Avenir, Helvetica, Arial, sans-serif" font-size="32px" font-style="normal" font-weight="bold" text-decoration="normal" x="2306.2000014305113" y="1980.000005722046" text-anchor="middle" dominant-baseline="text-after-edge" fill-opacity="1">attach_policy</text><path fill="rgb(225,240,255)" stroke="rgb(29,122,218)" paint-order="fill stroke markers" d=" M 2909.200002145767 1925.000005722046 L 3175.200002145767 1925.000005722046 L 3175.200002145767 1925.000005722046 A 8 8 0 0 1 3183.200002145767 1933.000005722046 L 3183.200002145767 1995.000005722046 L 3183.200002145767 1995.000005722046 A 8 8 0 0 1 3175.200002145767 2003.000005722046 L 2643.200002145767 2003.000005722046 L 2643.200002145767 2003.000005722046 A 8 8 0 0 1 2635.200002145767 1995.000005722046 L 2635.200002145767 1933.000005722046 L 2635.200002145767 1933.000005722046 A 8 8 0 0 1 2643.200002145767 1925.000005722046 L 2909.200002145767 1925.000005722046 Z" fill-opacity="1" stroke-opacity="1" stroke-miterlimit="10" stroke-width="5"/><text fill="rgb(0,0,0)" stroke="none" font-family="Avenir, Helvetica, Arial, sans-serif" font-size="32px" font-style="normal" font-weight="bold" text-decoration="normal" x="2909.200002145767" y="1980.000005722046" text-anchor="middle" dominant-baseline="text-after-edge" fill-opacity="1">policy</text><path fill="rgb(225,240,255)" stroke="rgb(29,122,218)" paint-order="fill stroke markers" d=" M 1703.2000007152558 2058.0000064373016 L 1969.2000007152558 2058.0000064373016 L 1969.2000007152558 2058.0000064373016 A 8 8 0 0 1 1977.2000007152558 2066.0000064373016 L 1977.2000007152558 2128.0000064373016 L 1977.2000007152558 2128.0000064373016 A 8 8 0 0 1 1969.2000007152558 2136.0000064373016 L 1437.2000007152558 2136.0000064373016 L 1437.2000007152558 2136.0000064373016 A 8 8 0 0 1 1429.2000007152558 2128.0000064373016 L 1429.2000007152558 2066.0000064373016 L 1429.2000007152558 2066.0000064373016 A 8 8 0 0 1 1437.2000007152558 2058.0000064373016 L 1703.2000007152558 2058.0000064373016 Z" fill-opacity="1" stroke-opacity="1" stroke-miterlimit="10" stroke-width="5"/><text fill="rgb(0,0,0)" stroke="none" font-family="Avenir, Helvetica, Arial, sans-serif" font-size="32px" font-style="normal" font-weight="bold" text-decoration="normal" x="1703.2000007152558" y="2113.0000064373016" text-anchor="middle" dominant-baseline="text-after-edge" fill-opacity="1">replication_configuration</text><path fill="rgb(225,240,255)" stroke="rgb(29,122,218)" paint-order="fill stroke markers" d=" M 2306.2000014305113 2058.0000064373016 L 2572.2000014305113 2058.0000064373016 L 2572.2000014305113 2058.0000064373016 A 8 8 0 0 1 2580.2000014305113 2066.0000064373016 L 2580.2000014305113 2128.0000064373016 L 2580.2000014305113 2128.0000064373016 A 8 8 0 0 1 2572.2000014305113 2136.0000064373016 L 2040.2000014305113 2136.0000064373016 L 2040.2000014305113 2136.0000064373016 A 8 8 0 0 1 2032.2000014305113 2128.0000064373016 L 2032.2000014305113 2066.0000064373016 L 2032.2000014305113 2066.0000064373016 A 8 8 0 0 1 2040.2000014305113 2058.0000064373016 L 2306.2000014305113 2058.0000064373016 Z" fill-opacity="1" stroke-opacity="1" stroke-miterlimit="10" stroke-width="5"/><text fill="rgb(0,0,0)" stroke="none" font-family="Avenir, Helvetica, Arial, sans-serif" font-size="32px" font-style="normal" font-weight="bold" text-decoration="normal" x="2306.2000014305113" y="2113.0000064373016" text-anchor="middle" dominant-baseline="text-after-edge" fill-opacity="1">website</text><path fill="rgb(225,240,255)" stroke="rgb(29,122,218)" paint-order="fill stroke markers" d=" M 2909.200002145767 2058.0000064373016 L 3175.200002145767 2058.0000064373016 L 3175.200002145767 2058.0000064373016 A 8 8 0 0 1 3183.200002145767 2066.0000064373016 L 3183.200002145767 2128.0000064373016 L 3183.200002145767 2128.0000064373016 A 8 8 0 0 1 3175.200002145767 2136.0000064373016 L 2643.200002145767 2136.0000064373016 L 2643.200002145767 2136.0000064373016 A 8 8 0 0 1 2635.200002145767 2128.0000064373016 L 2635.200002145767 2066.0000064373016 L 2635.200002145767 2066.0000064373016 A 8 8 0 0 1 2643.200002145767 2058.0000064373016 L 2909.200002145767 2058.0000064373016 Z" fill-opacity="1" stroke-opacity="1" stroke-miterlimit="10" stroke-width="5"/><text fill="rgb(0,0,0)" stroke="none" font-family="Avenir, Helvetica, Arial, sans-serif" font-size="32px" font-style="normal" font-weight="bold" text-decoration="normal" x="2909.200002145767" y="2113.0000064373016" text-anchor="middle" dominant-baseline="text-after-edge" fill-opacity="1">bucket</text><path fill="rgb(225,240,255)" stroke="rgb(29,122,218)" paint-order="fill stroke markers" d=" M 1703.2000007152558 2191.0000071525574 L 1969.2000007152558 2191.0000071525574 L 1969.2000007152558 2191.0000071525574 A 8 8 0 0 1 1977.2000007152558 2199.0000071525574 L 1977.2000007152558 2261.0000071525574 L 1977.2000007152558 2261.0000071525574 A 8 8 0 0 1 1969.2000007152558 2269.0000071525574 L 1437.2000007152558 2269.0000071525574 L 1437.2000007152558 2269.0000071525574 A 8 8 0 0 1 1429.2000007152558 2261.0000071525574 L 1429.2000007152558 2199.0000071525574 L 1429.2000007152558 2199.0000071525574 A 8 8 0 0 1 1437.2000007152558 2191.0000071525574 L 1703.2000007152558 2191.0000071525574 Z" fill-opacity="1" stroke-opacity="1" stroke-miterlimit="10" stroke-width="5"/><text fill="rgb(0,0,0)" stroke="none" font-family="Avenir, Helvetica, Arial, sans-serif" font-size="32px" font-style="normal" font-weight="bold" text-decoration="normal" x="1703.2000007152558" y="2246.0000071525574" text-anchor="middle" dominant-baseline="text-after-edge" fill-opacity="1">attach_lb_log_delivery_policy</text><path fill="rgb(225,240,255)" stroke="rgb(29,122,218)" paint-order="fill stroke markers" d=" M 2306.2000014305113 2191.0000071525574 L 2572.2000014305113 2191.0000071525574 L 2572.2000014305113 2191.0000071525574 A 8 8 0 0 1 2580.2000014305113 2199.0000071525574 L 2580.2000014305113 2261.0000071525574 L 2580.2000014305113 2261.0000071525574 A 8 8 0 0 1 2572.2000014305113 2269.0000071525574 L 2040.2000014305113 2269.0000071525574 L 2040.2000014305113 2269.0000071525574 A 8 8 0 0 1 2032.2000014305113 2261.0000071525574 L 2032.2000014305113 2199.0000071525574 L 2032.2000014305113 2199.0000071525574 A 8 8 0 0 1 2040.2000014305113 2191.0000071525574 L 2306.2000014305113 2191.0000071525574 Z" fill-opacity="1" stroke-opacity="1" stroke-miterlimit="10" stroke-width="5"/><text fill="rgb(0,0,0)" stroke="none" font-family="Avenir, Helvetica, Arial, sans-serif" font-size="32px" font-style="normal" font-weight="bold" text-decoration="normal" x="2306.2000014305113" y="2246.0000071525574" text-anchor="middle" dominant-baseline="text-after-edge" fill-opacity="1">bucket_prefix</text><path fill="rgb(225,240,255)" stroke="rgb(29,122,218)" paint-order="fill stroke markers" d=" M 2909.200002145767 2191.0000071525574 L 3175.200002145767 2191.0000071525574 L 3175.200002145767 2191.0000071525574 A 8 8 0 0 1 3183.200002145767 2199.0000071525574 L 3183.200002145767 2261.0000071525574 L 3183.200002145767 2261.0000071525574 A 8 8 0 0 1 3175.200002145767 2269.0000071525574 L 2643.200002145767 2269.0000071525574 L 2643.200002145767 2269.0000071525574 A 8 8 0 0 1 2635.200002145767 2261.0000071525574 L 2635.200002145767 2199.0000071525574 L 2635.200002145767 2199.0000071525574 A 8 8 0 0 1 2643.200002145767 2191.0000071525574 L 2909.200002145767 2191.0000071525574 Z" fill-opacity="1" stroke-opacity="1" stroke-miterlimit="10" stroke-width="5"/><text fill="rgb(0,0,0)" stroke="none" font-family="Avenir, Helvetica, Arial, sans-serif" font-size="32px" font-style="normal" font-weight="bold" text-decoration="normal" x="2909.200002145767" y="2246.0000071525574" text-anchor="middle" dominant-baseline="text-after-edge" fill-opacity="1">restrict_public_buckets</text><path fill="rgb(225,240,255)" stroke="rgb(29,122,218)" paint-order="fill stroke markers" d=" M 1703.2000007152558 2324.000007867813 L 1969.2000007152558 2324.000007867813 L 1969.2000007152558 2324.000007867813 A 8 8 0 0 1 1977.2000007152558 2332.000007867813 L 1977.2000007152558 2394.000007867813 L 1977.2000007152558 2394.000007867813 A 8 8 0 0 1 1969.2000007152558 2402.000007867813 L 1437.2000007152558 2402.000007867813 L 1437.2000007152558 2402.000007867813 A 8 8 0 0 1 1429.2000007152558 2394.000007867813 L 1429.2000007152558 2332.000007867813 L 1429.2000007152558 2332.000007867813 A 8 8 0 0 1 1437.2000007152558 2324.000007867813 L 1703.2000007152558 2324.000007867813 Z" fill-opacity="1" stroke-opacity="1" stroke-miterlimit="10" stroke-width="5"/><text fill="rgb(0,0,0)" stroke="none" font-family="Avenir, Helvetica, Arial, sans-serif" font-size="32px" font-style="normal" font-weight="bold" text-decoration="normal" x="1703.2000007152558" y="2379.000007867813" text-anchor="middle" dominant-baseline="text-after-edge" fill-opacity="1">request_payer</text><path fill="rgb(225,240,255)" stroke="rgb(29,122,218)" paint-order="fill stroke markers" d=" M 2306.2000014305113 2324.000007867813 L 2572.2000014305113 2324.000007867813 L 2572.2000014305113 2324.000007867813 A 8 8 0 0 1 2580.2000014305113 2332.000007867813 L 2580.2000014305113 2394.000007867813 L 2580.2000014305113 2394.000007867813 A 8 8 0 0 1 2572.2000014305113 2402.000007867813 L 2040.2000014305113 2402.000007867813 L 2040.2000014305113 2402.000007867813 A 8 8 0 0 1 2032.2000014305113 2394.000007867813 L 2032.2000014305113 2332.000007867813 L 2032.2000014305113 2332.000007867813 A 8 8 0 0 1 2040.2000014305113 2324.000007867813 L 2306.2000014305113 2324.000007867813 Z" fill-opacity="1" stroke-opacity="1" stroke-miterlimit="10" stroke-width="5"/><text fill="rgb(0,0,0)" stroke="none" font-family="Avenir, Helvetica, Arial, sans-serif" font-size="32px" font-style="normal" font-weight="bold" text-decoration="normal" x="2306.2000014305113" y="2379.000007867813" text-anchor="middle" dominant-baseline="text-after-edge" fill-opacity="1">lifecycle_rule</text><path fill="rgb(225,240,255)" stroke="rgb(29,122,218)" paint-order="fill stroke markers" d=" M 2909.200002145767 2324.000007867813 L 3175.200002145767 2324.000007867813 L 3175.200002145767 2324.000007867813 A 8 8 0 0 1 3183.200002145767 2332.000007867813 L 3183.200002145767 2394.000007867813 L 3183.200002145767 2394.000007867813 A 8 8 0 0 1 3175.200002145767 2402.000007867813 L 2643.200002145767 2402.000007867813 L 2643.200002145767 2402.000007867813 A 8 8 0 0 1 2635.200002145767 2394.000007867813 L 2635.200002145767 2332.000007867813 L 2635.200002145767 2332.000007867813 A 8 8 0 0 1 2643.200002145767 2324.000007867813 L 2909.200002145767 2324.000007867813 Z" fill-opacity="1" stroke-opacity="1" stroke-miterlimit="10" stroke-width="5"/><text fill="rgb(0,0,0)" stroke="none" font-family="Avenir, Helvetica, Arial, sans-serif" font-size="32px" font-style="normal" font-weight="bold" text-decoration="normal" x="2909.200002145767" y="2379.000007867813" text-anchor="middle" dominant-baseline="text-after-edge" fill-opacity="1">object_lock_configuration</text><path fill="rgb(225,240,255)" stroke="rgb(29,122,218)" paint-order="fill stroke markers" d=" M 1703.2000007152558 2457.000008583069 L 1969.2000007152558 2457.000008583069 L 1969.2000007152558 2457.000008583069 A 8 8 0 0 1 1977.2000007152558 2465.000008583069 L 1977.2000007152558 2527.000008583069 L 1977.2000007152558 2527.000008583069 A 8 8 0 0 1 1969.2000007152558 2535.000008583069 L 1437.2000007152558 2535.000008583069 L 1437.2000007152558 2535.000008583069 A 8 8 0 0 1 1429.2000007152558 2527.000008583069 L 1429.2000007152558 2465.000008583069 L 1429.2000007152558 2465.000008583069 A 8 8 0 0 1 1437.2000007152558 2457.000008583069 L 1703.2000007152558 2457.000008583069 Z" fill-opacity="1" stroke-opacity="1" stroke-miterlimit="10" stroke-width="5"/><text fill="rgb(0,0,0)" stroke="none" font-family="Avenir, Helvetica, Arial, sans-serif" font-size="32px" font-style="normal" font-weight="bold" text-decoration="normal" x="1703.2000007152558" y="2512.000008583069" text-anchor="middle" dominant-baseline="text-after-edge" fill-opacity="1">block_public_policy</text><path fill="rgb(225,240,255)" stroke="rgb(29,122,218)" paint-order="fill stroke markers" d=" M 2306.2000014305113 2457.000008583069 L 2572.2000014305113 2457.000008583069 L 2572.2000014305113 2457.000008583069 A 8 8 0 0 1 2580.2000014305113 2465.000008583069 L 2580.2000014305113 2527.000008583069 L 2580.2000014305113 2527.000008583069 A 8 8 0 0 1 2572.2000014305113 2535.000008583069 L 2040.2000014305113 2535.000008583069 L 2040.2000014305113 2535.000008583069 A 8 8 0 0 1 2032.2000014305113 2527.000008583069 L 2032.2000014305113 2465.000008583069 L 2032.2000014305113 2465.000008583069 A 8 8 0 0 1 2040.2000014305113 2457.000008583069 L 2306.2000014305113 2457.000008583069 Z" fill-opacity="1" stroke-opacity="1" stroke-miterlimit="10" stroke-width="5"/><text fill="rgb(0,0,0)" stroke="none" font-family="Avenir, Helvetica, Arial, sans-serif" font-size="32px" font-style="normal" font-weight="bold" text-decoration="normal" x="2306.2000014305113" y="2512.000008583069" text-anchor="middle" dominant-baseline="text-after-edge" fill-opacity="1">versioning</text><path fill="rgb(225,240,255)" stroke="rgb(29,122,218)" paint-order="fill stroke markers" d=" M 2909.200002145767 2457.000008583069 L 3175.200002145767 2457.000008583069 L 3175.200002145767 2457.000008583069 A 8 8 0 0 1 3183.200002145767 2465.000008583069 L 3183.200002145767 2527.000008583069 L 3183.200002145767 2527.000008583069 A 8 8 0 0 1 3175.200002145767 2535.000008583069 L 2643.200002145767 2535.000008583069 L 2643.200002145767 2535.000008583069 A 8 8 0 0 1 2635.200002145767 2527.000008583069 L 2635.200002145767 2465.000008583069 L 2635.200002145767 2465.000008583069 A 8 8 0 0 1 2643.200002145767 2457.000008583069 L 2909.200002145767 2457.000008583069 Z" fill-opacity="1" stroke-opacity="1" stroke-miterlimit="10" stroke-width="5"/><text fill="rgb(0,0,0)" stroke="none" font-family="Avenir, Helvetica, Arial, sans-serif" font-size="32px" font-style="normal" font-weight="bold" text-decoration="normal" x="2909.200002145767" y="2512.000008583069" text-anchor="middle" dominant-baseline="text-after-edge" fill-opacity="1">force_destroy</text><path fill="rgb(225,240,255)" stroke="rgb(29,122,218)" paint-order="fill stroke markers" d=" M 1703.2000007152558 2590.0000092983246 L 1969.2000007152558 2590.0000092983246 L 1969.2000007152558 2590.0000092983246 A 8 8 0 0 1 1977.2000007152558 2598.0000092983246 L 1977.2000007152558 2660.0000092983246 L 1977.2000007152558 2660.0000092983246 A 8 8 0 0 1 1969.2000007152558 2668.0000092983246 L 1437.2000007152558 2668.0000092983246 L 1437.2000007152558 2668.0000092983246 A 8 8 0 0 1 1429.2000007152558 2660.0000092983246 L 1429.2000007152558 2598.0000092983246 L 1429.2000007152558 2598.0000092983246 A 8 8 0 0 1 1437.2000007152558 2590.0000092983246 L 1703.2000007152558 2590.0000092983246 Z" fill-opacity="1" stroke-opacity="1" stroke-miterlimit="10" stroke-width="5"/><text fill="rgb(0,0,0)" stroke="none" font-family="Avenir, Helvetica, Arial, sans-serif" font-size="32px" font-style="normal" font-weight="bold" text-decoration="normal" x="1703.2000007152558" y="2645.0000092983246" text-anchor="middle" dominant-baseline="text-after-edge" fill-opacity="1">object_ownership</text><path fill="rgb(225,240,255)" stroke="rgb(29,122,218)" paint-order="fill stroke markers" d=" M 2306.2000014305113 2590.0000092983246 L 2572.2000014305113 2590.0000092983246 L 2572.2000014305113 2590.0000092983246 A 8 8 0 0 1 2580.2000014305113 2598.0000092983246 L 2580.2000014305113 2660.0000092983246 L 2580.2000014305113 2660.0000092983246 A 8 8 0 0 1 2572.2000014305113 2668.0000092983246 L 2040.2000014305113 2668.0000092983246 L 2040.2000014305113 2668.0000092983246 A 8 8 0 0 1 2032.2000014305113 2660.0000092983246 L 2032.2000014305113 2598.0000092983246 L 2032.2000014305113 2598.0000092983246 A 8 8 0 0 1 2040.2000014305113 2590.0000092983246 L 2306.2000014305113 2590.0000092983246 Z" fill-opacity="1" stroke-opacity="1" stroke-miterlimit="10" stroke-width="5"/><text fill="rgb(0,0,0)" stroke="none" font-family="Avenir, Helvetica, Arial, sans-serif" font-size="32px" font-style="normal" font-weight="bold" text-decoration="normal" x="2306.2000014305113" y="2645.0000092983246" text-anchor="middle" dominant-baseline="text-after-edge" fill-opacity="1">grant</text><path fill="rgb(225,240,255)" stroke="rgb(29,122,218)" paint-order="fill stroke markers" d=" M 2917.200002145767 3122.0000121593475 L 3183.200002145767 3122.0000121593475 L 3183.200002145767 3122.0000121593475 A 8 8 0 0 1 3191.200002145767 3130.0000121593475 L 3191.200002145767 3192.0000121593475 L 3191.200002145767 3192.0000121593475 A 8 8 0 0 1 3183.200002145767 3200.0000121593475 L 2651.200002145767 3200.0000121593475 L 2651.200002145767 3200.0000121593475 A 8 8 0 0 1 2643.200002145767 3192.0000121593475 L 2643.200002145767 3130.0000121593475 L 2643.200002145767 3130.0000121593475 A 8 8 0 0 1 2651.200002145767 3122.0000121593475 L 2917.200002145767 3122.0000121593475 Z" fill-opacity="1" stroke-opacity="1" stroke-miterlimit="10" stroke-width="5"/><text fill="rgb(0,0,0)" stroke="none" font-family="Avenir, Helvetica, Arial, sans-serif" font-size="32px" font-style="normal" font-weight="bold" text-decoration="normal" x="2917.200002145767" y="3177.0000121593475" text-anchor="middle" dominant-baseline="text-after-edge" fill-opacity="1">attach_deny_insecure_transport_policy</text><path fill="rgb(225,240,255)" stroke="rgb(29,122,218)" paint-order="fill stroke markers" d=" M 2909.200002145767 2590.0000092983246 L 3175.200002145767 2590.0000092983246 L 3175.200002145767 2590.0000092983246 A 8 8 0 0 1 3183.200002145767 2598.0000092983246 L 3183.200002145767 2660.0000092983246 L 3183.200002145767 2660.0000092983246 A 8 8 0 0 1 3175.200002145767 2668.0000092983246 L 2643.200002145767 2668.0000092983246 L 2643.200002145767 2668.0000092983246 A 8 8 0 0 1 2635.200002145767 2660.0000092983246 L 2635.200002145767 2598.0000092983246 L 2635.200002145767 2598.0000092983246 A 8 8 0 0 1 2643.200002145767 2590.0000092983246 L 2909.200002145767 2590.0000092983246 Z" fill-opacity="1" stroke-opacity="1" stroke-miterlimit="10" stroke-width="5"/><text fill="rgb(0,0,0)" stroke="none" font-family="Avenir, Helvetica, Arial, sans-serif" font-size="32px" font-style="normal" font-weight="bold" text-decoration="normal" x="2909.200002145767" y="2645.0000092983246" text-anchor="middle" dominant-baseline="text-after-edge" fill-opacity="1">cors_rule</text><path fill="rgb(225,240,255)" stroke="rgb(29,122,218)" paint-order="fill stroke markers" d=" M 1703.2000007152558 2723.0000100135803 L 1969.2000007152558 2723.0000100135803 L 1969.2000007152558 2723.0000100135803 A 8 8 0 0 1 1977.2000007152558 2731.0000100135803 L 1977.2000007152558 2793.0000100135803 L 1977.2000007152558 2793.0000100135803 A 8 8 0 0 1 1969.2000007152558 2801.0000100135803 L 1437.2000007152558 2801.0000100135803 L 1437.2000007152558 2801.0000100135803 A 8 8 0 0 1 1429.2000007152558 2793.0000100135803 L 1429.2000007152558 2731.0000100135803 L 1429.2000007152558 2731.0000100135803 A 8 8 0 0 1 1437.2000007152558 2723.0000100135803 L 1703.2000007152558 2723.0000100135803 Z" fill-opacity="1" stroke-opacity="1" stroke-miterlimit="10" stroke-width="5"/><text fill="rgb(0,0,0)" stroke="none" font-family="Avenir, Helvetica, Arial, sans-serif" font-size="32px" font-style="normal" font-weight="bold" text-decoration="normal" x="1703.2000007152558" y="2778.0000100135803" text-anchor="middle" dominant-baseline="text-after-edge" fill-opacity="1">logging</text><path fill="rgb(225,240,255)" stroke="rgb(29,122,218)" paint-order="fill stroke markers" d=" M 2306.2000014305113 2723.0000100135803 L 2572.2000014305113 2723.0000100135803 L 2572.2000014305113 2723.0000100135803 A 8 8 0 0 1 2580.2000014305113 2731.0000100135803 L 2580.2000014305113 2793.0000100135803 L 2580.2000014305113 2793.0000100135803 A 8 8 0 0 1 2572.2000014305113 2801.0000100135803 L 2040.2000014305113 2801.0000100135803 L 2040.2000014305113 2801.0000100135803 A 8 8 0 0 1 2032.2000014305113 2793.0000100135803 L 2032.2000014305113 2731.0000100135803 L 2032.2000014305113 2731.0000100135803 A 8 8 0 0 1 2040.2000014305113 2723.0000100135803 L 2306.2000014305113 2723.0000100135803 Z" fill-opacity="1" stroke-opacity="1" stroke-miterlimit="10" stroke-width="5"/><text fill="rgb(0,0,0)" stroke="none" font-family="Avenir, Helvetica, Arial, sans-serif" font-size="32px" font-style="normal" font-weight="bold" text-decoration="normal" x="2306.2000014305113" y="2778.0000100135803" text-anchor="middle" dominant-baseline="text-after-edge" fill-opacity="1">attach_elb_log_delivery_policy</text><path fill="rgb(225,240,255)" stroke="rgb(29,122,218)" paint-order="fill stroke markers" d=" M 2909.200002145767 2723.0000100135803 L 3175.200002145767 2723.0000100135803 L 3175.200002145767 2723.0000100135803 A 8 8 0 0 1 3183.200002145767 2731.0000100135803 L 3183.200002145767 2793.0000100135803 L 3183.200002145767 2793.0000100135803 A 8 8 0 0 1 3175.200002145767 2801.0000100135803 L 2643.200002145767 2801.0000100135803 L 2643.200002145767 2801.0000100135803 A 8 8 0 0 1 2635.200002145767 2793.0000100135803 L 2635.200002145767 2731.0000100135803 L 2635.200002145767 2731.0000100135803 A 8 8 0 0 1 2643.200002145767 2723.0000100135803 L 2909.200002145767 2723.0000100135803 Z" fill-opacity="1" stroke-opacity="1" stroke-miterlimit="10" stroke-width="5"/><text fill="rgb(0,0,0)" stroke="none" font-family="Avenir, Helvetica, Arial, sans-serif" font-size="32px" font-style="normal" font-weight="bold" text-decoration="normal" x="2909.200002145767" y="2778.0000100135803" text-anchor="middle" dominant-baseline="text-after-edge" fill-opacity="1">control_object_ownership</text><path fill="rgb(225,240,255)" stroke="rgb(29,122,218)" paint-order="fill stroke markers" d=" M 1703.2000007152558 2856.000010728836 L 1969.2000007152558 2856.000010728836 L 1969.2000007152558 2856.000010728836 A 8 8 0 0 1 1977.2000007152558 2864.000010728836 L 1977.2000007152558 2926.000010728836 L 1977.2000007152558 2926.000010728836 A 8 8 0 0 1 1969.2000007152558 2934.000010728836 L 1437.2000007152558 2934.000010728836 L 1437.2000007152558 2934.000010728836 A 8 8 0 0 1 1429.2000007152558 2926.000010728836 L 1429.2000007152558 2864.000010728836 L 1429.2000007152558 2864.000010728836 A 8 8 0 0 1 1437.2000007152558 2856.000010728836 L 1703.2000007152558 2856.000010728836 Z" fill-opacity="1" stroke-opacity="1" stroke-miterlimit="10" stroke-width="5"/><text fill="rgb(0,0,0)" stroke="none" font-family="Avenir, Helvetica, Arial, sans-serif" font-size="32px" font-style="normal" font-weight="bold" text-decoration="normal" x="1703.2000007152558" y="2911.000010728836" text-anchor="middle" dominant-baseline="text-after-edge" fill-opacity="1">acceleration_status</text><path fill="rgb(225,240,255)" stroke="rgb(29,122,218)" paint-order="fill stroke markers" d=" M 2306.2000014305113 2856.000010728836 L 2572.2000014305113 2856.000010728836 L 2572.2000014305113 2856.000010728836 A 8 8 0 0 1 2580.2000014305113 2864.000010728836 L 2580.2000014305113 2926.000010728836 L 2580.2000014305113 2926.000010728836 A 8 8 0 0 1 2572.2000014305113 2934.000010728836 L 2040.2000014305113 2934.000010728836 L 2040.2000014305113 2934.000010728836 A 8 8 0 0 1 2032.2000014305113 2926.000010728836 L 2032.2000014305113 2864.000010728836 L 2032.2000014305113 2864.000010728836 A 8 8 0 0 1 2040.2000014305113 2856.000010728836 L 2306.2000014305113 2856.000010728836 Z" fill-opacity="1" stroke-opacity="1" stroke-miterlimit="10" stroke-width="5"/><text fill="rgb(0,0,0)" stroke="none" font-family="Avenir, Helvetica, Arial, sans-serif" font-size="32px" font-style="normal" font-weight="bold" text-decoration="normal" x="2306.2000014305113" y="2911.000010728836" text-anchor="middle" dominant-baseline="text-after-edge" fill-opacity="1">create_bucket</text><path fill="rgb(225,240,255)" stroke="rgb(29,122,218)" paint-order="fill stroke markers" d=" M 2909.200002145767 2856.000010728836 L 3175.200002145767 2856.000010728836 L 3175.200002145767 2856.000010728836 A 8 8 0 0 1 3183.200002145767 2864.000010728836 L 3183.200002145767 2926.000010728836 L 3183.200002145767 2926.000010728836 A 8 8 0 0 1 3175.200002145767 2934.000010728836 L 2643.200002145767 2934.000010728836 L 2643.200002145767 2934.000010728836 A 8 8 0 0 1 2635.200002145767 2926.000010728836 L 2635.200002145767 2864.000010728836 L 2635.200002145767 2864.000010728836 A 8 8 0 0 1 2643.200002145767 2856.000010728836 L 2909.200002145767 2856.000010728836 Z" fill-opacity="1" stroke-opacity="1" stroke-miterlimit="10" stroke-width="5"/><text fill="rgb(0,0,0)" stroke="none" font-family="Avenir, Helvetica, Arial, sans-serif" font-size="32px" font-style="normal" font-weight="bold" text-decoration="normal" x="2909.200002145767" y="2911.000010728836" text-anchor="middle" dominant-baseline="text-after-edge" fill-opacity="1">block_public_acls</text><path fill="rgb(225,240,255)" stroke="rgb(29,122,218)" paint-order="fill stroke markers" d=" M 1703.2000007152558 2989.000011444092 L 1969.2000007152558 2989.000011444092 L 1969.2000007152558 2989.000011444092 A 8 8 0 0 1 1977.2000007152558 2997.000011444092 L 1977.2000007152558 3059.000011444092 L 1977.2000007152558 3059.000011444092 A 8 8 0 0 1 1969.2000007152558 3067.000011444092 L 1437.2000007152558 3067.000011444092 L 1437.2000007152558 3067.000011444092 A 8 8 0 0 1 1429.2000007152558 3059.000011444092 L 1429.2000007152558 2997.000011444092 L 1429.2000007152558 2997.000011444092 A 8 8 0 0 1 1437.2000007152558 2989.000011444092 L 1703.2000007152558 2989.000011444092 Z" fill-opacity="1" stroke-opacity="1" stroke-miterlimit="10" stroke-width="5"/><text fill="rgb(0,0,0)" stroke="none" font-family="Avenir, Helvetica, Arial, sans-serif" font-size="32px" font-style="normal" font-weight="bold" text-decoration="normal" x="1703.2000007152558" y="3044.000011444092" text-anchor="middle" dominant-baseline="text-after-edge" fill-opacity="1">acl</text><path fill="rgb(225,240,255)" stroke="rgb(29,122,218)" paint-order="fill stroke markers" d=" M 2306.2000014305113 2989.000011444092 L 2572.2000014305113 2989.000011444092 L 2572.2000014305113 2989.000011444092 A 8 8 0 0 1 2580.2000014305113 2997.000011444092 L 2580.2000014305113 3059.000011444092 L 2580.2000014305113 3059.000011444092 A 8 8 0 0 1 2572.2000014305113 3067.000011444092 L 2040.2000014305113 3067.000011444092 L 2040.2000014305113 3067.000011444092 A 8 8 0 0 1 2032.2000014305113 3059.000011444092 L 2032.2000014305113 2997.000011444092 L 2032.2000014305113 2997.000011444092 A 8 8 0 0 1 2040.2000014305113 2989.000011444092 L 2306.2000014305113 2989.000011444092 Z" fill-opacity="1" stroke-opacity="1" stroke-miterlimit="10" stroke-width="5"/><text fill="rgb(0,0,0)" stroke="none" font-family="Avenir, Helvetica, Arial, sans-serif" font-size="32px" font-style="normal" font-weight="bold" text-decoration="normal" x="2306.2000014305113" y="3044.000011444092" text-anchor="middle" dominant-baseline="text-after-edge" fill-opacity="1">ignore_public_acls</text><path fill="rgb(225,240,255)" stroke="rgb(29,122,218)" paint-order="fill stroke markers" d=" M 2909.200002145767 2989.000011444092 L 3175.200002145767 2989.000011444092 L 3175.200002145767 2989.000011444092 A 8 8 0 0 1 3183.200002145767 2997.000011444092 L 3183.200002145767 3059.000011444092 L 3183.200002145767 3059.000011444092 A 8 8 0 0 1 3175.200002145767 3067.000011444092 L 2643.200002145767 3067.000011444092 L 2643.200002145767 3067.000011444092 A 8 8 0 0 1 2635.200002145767 3059.000011444092 L 2635.200002145767 2997.000011444092 L 2635.200002145767 2997.000011444092 A 8 8 0 0 1 2643.200002145767 2989.000011444092 L 2909.200002145767 2989.000011444092 Z" fill-opacity="1" stroke-opacity="1" stroke-miterlimit="10" stroke-width="5"/><text fill="rgb(0,0,0)" stroke="none" font-family="Avenir, Helvetica, Arial, sans-serif" font-size="32px" font-style="normal" font-weight="bold" text-decoration="normal" x="2909.200002145767" y="3044.000011444092" text-anchor="middle" dominant-baseline="text-after-edge" fill-opacity="1">attach_require_latest_tls_policy</text><path fill="rgb(225,240,255)" stroke="rgb(29,122,218)" paint-order="fill stroke markers" d=" M 1703.2000007152558 3122.0000121593475 L 1969.2000007152558 3122.0000121593475 L 1969.2000007152558 3122.0000121593475 A 8 8 0 0 1 1977.2000007152558 3130.0000121593475 L 1977.2000007152558 3192.0000121593475 L 1977.2000007152558 3192.0000121593475 A 8 8 0 0 1 1969.2000007152558 3200.0000121593475 L 1437.2000007152558 3200.0000121593475 L 1437.2000007152558 3200.0000121593475 A 8 8 0 0 1 1429.2000007152558 3192.0000121593475 L 1429.2000007152558 3130.0000121593475 L 1429.2000007152558 3130.0000121593475 A 8 8 0 0 1 1437.2000007152558 3122.0000121593475 L 1703.2000007152558 3122.0000121593475 Z" fill-opacity="1" stroke-opacity="1" stroke-miterlimit="10" stroke-width="5"/><text fill="rgb(0,0,0)" stroke="none" font-family="Avenir, Helvetica, Arial, sans-serif" font-size="32px" font-style="normal" font-weight="bold" text-decoration="normal" x="1703.2000007152558" y="3177.0000121593475" text-anchor="middle" dominant-baseline="text-after-edge" fill-opacity="1">tags</text><path fill="rgb(225,240,255)" stroke="rgb(29,122,218)" paint-order="fill stroke markers" d=" M 2306.2000014305113 3122.0000121593475 L 2572.2000014305113 3122.0000121593475 L 2572.2000014305113 3122.0000121593475 A 8 8 0 0 1 2580.2000014305113 3130.0000121593475 L 2580.2000014305113 3192.0000121593475 L 2580.2000014305113 3192.0000121593475 A 8 8 0 0 1 2572.2000014305113 3200.0000121593475 L 2040.2000014305113 3200.0000121593475 L 2040.2000014305113 3200.0000121593475 A 8 8 0 0 1 2032.2000014305113 3192.0000121593475 L 2032.2000014305113 3130.0000121593475 L 2032.2000014305113 3130.0000121593475 A 8 8 0 0 1 2040.2000014305113 3122.0000121593475 L 2306.2000014305113 3122.0000121593475 Z" fill-opacity="1" stroke-opacity="1" stroke-miterlimit="10" stroke-width="5"/><text fill="rgb(0,0,0)" stroke="none" font-family="Avenir, Helvetica, Arial, sans-serif" font-size="32px" font-style="normal" font-weight="bold" text-decoration="normal" x="2306.2000014305113" y="3177.0000121593475" text-anchor="middle" dominant-baseline="text-after-edge" fill-opacity="1">server_side_encryption_configuration</text><path fill="rgb(40,167,69)" stroke="none" paint-order="stroke fill markers" d=" M 3989.200002145767 661 L 4255.200002145767 661 L 4255.200002145767 661 A 8 8 0 0 1 4263.200002145767 669 L 4263.200002145767 731 L 4263.200002145767 731 A 8 8 0 0 1 4255.200002145767 739 L 3723.200002145767 739 L 3723.200002145767 739 A 8 8 0 0 1 3715.200002145767 731 L 3715.200002145767 669 L 3715.200002145767 669 A 8 8 0 0 1 3723.200002145767 661 L 3989.200002145767 661 Z" fill-opacity="1"/><text fill="rgb(255,255,255)" stroke="none" font-family="Avenir, Helvetica, Arial, sans-serif" font-size="32px" font-style="normal" font-weight="bold" text-decoration="normal" x="3989.200002145767" y="716" text-anchor="middle" dominant-baseline="text-after-edge" fill-opacity="1">this[0]</text><path fill="rgb(40,167,69)" stroke="none" paint-order="stroke fill markers" d=" M 3989.200002145767 1189.4000007152558 L 4255.200002145767 1189.4000007152558 L 4255.200002145767 1189.4000007152558 A 8 8 0 0 1 4263.200002145767 1197.4000007152558 L 4263.200002145767 1259.4000007152558 L 4263.200002145767 1259.4000007152558 A 8 8 0 0 1 4255.200002145767 1267.4000007152558 L 3723.200002145767 1267.4000007152558 L 3723.200002145767 1267.4000007152558 A 8 8 0 0 1 3715.200002145767 1259.4000007152558 L 3715.200002145767 1197.4000007152558 L 3715.200002145767 1197.4000007152558 A 8 8 0 0 1 3723.200002145767 1189.4000007152558 L 3989.200002145767 1189.4000007152558 Z" fill-opacity="1"/><text fill="rgb(255,255,255)" stroke="none" font-family="Avenir, Helvetica, Arial, sans-serif" font-size="32px" font-style="normal" font-weight="bold" text-decoration="normal" x="3989.200002145767" y="1244.4000007152558" text-anchor="middle" dominant-baseline="text-after-edge" fill-opacity="1">this[0]</text><path fill="rgb(0,0,0)" stroke="rgb(0,0,0)" paint-order="fill stroke markers" d=" M 1703.2000007152558 461 L 1969.2000007152558 461 L 1969.2000007152558 461 A 8 8 0 0 1 1977.2000007152558 469 L 1977.2000007152558 531 L 1977.2000007152558 531 A 8 8 0 0 1 1969.2000007152558 539 L 1437.2000007152558 539 L 1437.2000007152558 539 A 8 8 0 0 1 1429.2000007152558 531 L 1429.2000007152558 469 L 1429.2000007152558 469 A 8 8 0 0 1 1437.2000007152558 461 L 1703.2000007152558 461 Z" fill-opacity="1" stroke-opacity="1" stroke-miterlimit="10" stroke-width="5"/><text fill="rgb(255,255,255)" stroke="none" font-family="Avenir, Helvetica, Arial, sans-serif" font-size="32px" font-style="normal" font-weight="bold" text-decoration="normal" x="1703.2000007152558" y="516" text-anchor="middle" dominant-baseline="text-after-edge" fill-opacity="1">attach_policy</text><path fill="rgb(255,236,236)" stroke="rgb(220,71,125)" paint-order="fill stroke markers" d=" M 400 361 L 666 361 L 666 361 A 8 8 0 0 1 674 369 L 674 431 L 674 431 A 8 8 0 0 1 666 439 L 134 439 L 134 439 A 8 8 0 0 1 126 431 L 126 369 L 126 369 A 8 8 0 0 1 134 361 L 400 361 Z" fill-opacity="1" stroke-opacity="1" stroke-miterlimit="10" stroke-width="5"/><text fill="rgb(0,0,0)" stroke="none" font-family="Avenir, Helvetica, Arial, sans-serif" font-size="32px" font-style="normal" font-weight="bold" text-decoration="normal" x="400" y="416" text-anchor="middle" dominant-baseline="text-after-edge" fill-opacity="1">networking</text><g transform="scale(5,5) translate(-48,-14.139999999999965)"/></g></svg>