<svg width="16" height="16" viewBox="0 0 16 16" fill="none" xmlns="http://www.w3.org/2000/svg">
    <path d="M1.33325 8C1.33325 7.12452 1.50569 6.25762 1.84072 5.44878C2.17575 4.63994 2.66682 3.90501 3.28587 3.28596C3.90493 2.6669 4.63986 2.17584 5.4487 1.84081C6.25753 1.50577 7.12444 1.33334 7.99992 1.33334C8.8754 1.33334 9.7423 1.50577 10.5511 1.84081C11.36 2.17584 12.0949 2.6669 12.714 3.28596C13.333 3.90501 13.8241 4.63994 14.1591 5.44878C14.4941 6.25762 14.6666 7.12452 14.6666 8C14.6666 9.76811 13.9642 11.4638 12.714 12.714C11.4637 13.9643 9.76803 14.6667 7.99992 14.6667C6.23181 14.6667 4.53612 13.9643 3.28587 12.714C2.03563 11.4638 1.33325 9.76811 1.33325 8V8Z" stroke="white" stroke-width="2" stroke-linecap="round"/>
    <path d="M1.33325 8C1.33325 7.12452 1.50569 6.25762 1.84072 5.44878C2.17575 4.63994 2.66682 3.90501 3.28587 3.28596C3.90493 2.6669 4.63986 2.17584 5.4487 1.84081C6.25753 1.50577 7.12444 1.33334 7.99992 1.33334C8.8754 1.33334 9.7423 1.50577 10.5511 1.84081C11.36 2.17584 12.0949 2.6669 12.714 3.28596C13.333 3.90501 13.8241 4.63994 14.1591 5.44878C14.4941 6.25762 14.6666 7.12452 14.6666 8C14.6666 9.76811 13.9642 11.4638 12.714 12.714C11.4637 13.9643 9.76803 14.6667 7.99992 14.6667C6.23181 14.6667 4.53612 13.9643 3.28587 12.714C2.03563 11.4638 1.33325 9.76811 1.33325 8Z" fill="#47C9A7"/>
    <path d="M5.03687 8.00001L7.25909 10.2222L10.9628 6.51853" stroke="white" stroke-width="2" stroke-linecap="round" stroke-linejoin="round"/>
</svg>

