<svg width="16" height="16" viewBox="0 0 16 16" fill="none" xmlns="http://www.w3.org/2000/svg">
    <g clip-path="url(#clip0)">
        <path fill-rule="evenodd" clip-rule="evenodd" d="M14.6666 8C14.6666 9.76811 13.9642 11.4638 12.714 12.714C11.4637 13.9643 9.76803 14.6667 7.99992 14.6667C6.23181 14.6667 4.53612 13.9643 3.28587 12.714C2.03563 11.4638 1.33325 9.76811 1.33325 8C1.33325 6.23189 2.03563 4.5362 3.28587 3.28596C4.53612 2.03571 6.23181 1.33334 7.99992 1.33334C9.76803 1.33334 11.4637 2.03571 12.714 3.28596C13.9642 4.5362 14.6666 6.23189 14.6666 8ZM6.80825 6.36084H5.70825C5.68325 4.78917 6.89992 4.25 8.00492 4.25C9.16909 4.25 10.2324 4.85834 10.2324 6.11667C10.2324 7.01667 9.70325 7.445 9.19575 7.83084C8.58159 8.29667 8.35409 8.47084 8.35409 9.06917V9.365H7.26409L7.25825 8.97917C7.22659 8.20667 7.67075 7.73084 8.23159 7.32334C8.72325 6.95334 9.03575 6.71 9.03575 6.18084C9.03575 5.49334 8.51242 5.2075 7.94075 5.2075C7.18992 5.2075 6.80909 5.71 6.80909 6.36084H6.80825ZM7.85075 11.73C7.36409 11.73 7.00992 11.4017 7.00992 10.9575C7.00992 10.4975 7.36409 10.1742 7.85159 10.1742C8.35909 10.1742 8.70825 10.4975 8.70825 10.9575C8.70825 11.4017 8.35825 11.73 7.85075 11.73Z" fill="#8D8D8D"/>
    </g>
    <defs>
        <clipPath id="clip0">
            <rect width="13.3333" height="13.3333" fill="white" transform="translate(1.33325 1.33334)"/>
        </clipPath>
    </defs>
</svg>
