<svg width="24" height="24" viewBox="0 0 24 24" fill="none" xmlns="http://www.w3.org/2000/svg">
<path d="M20.25 3.9375H6.42474C6.19821 3.93811 5.97565 3.99706 5.77853 4.10867C5.5814 4.22028 5.41634 4.38079 5.29927 4.57472L1.01771 11.7106C0.965225 11.798 0.9375 11.898 0.9375 12C0.9375 12.102 0.965225 12.202 1.01771 12.2894L5.29927 19.4253C5.41635 19.6192 5.58141 19.7797 5.77853 19.8913C5.97566 20.0029 6.19821 20.0619 6.42474 20.0625H20.25C20.598 20.0621 20.9316 19.9237 21.1777 19.6776C21.4237 19.4316 21.5622 19.098 21.5625 18.75V5.25C21.5622 4.90203 21.4237 4.56842 21.1777 4.32236C20.9316 4.07631 20.598 3.9379 20.25 3.9375ZM20.4375 18.75C20.4375 18.7997 20.4177 18.8474 20.3825 18.8825C20.3474 18.9176 20.2998 18.9374 20.25 18.9375H6.42474C6.39238 18.9374 6.36059 18.929 6.33242 18.9131C6.30426 18.8972 6.28068 18.8743 6.26396 18.8466V18.8465L2.15602 11.9999L6.26396 5.15344C6.28069 5.12575 6.30427 5.10283 6.33243 5.0869C6.3606 5.07098 6.39239 5.06257 6.42474 5.0625H20.25C20.2998 5.06257 20.3474 5.08235 20.3825 5.1175C20.4177 5.15265 20.4375 5.20029 20.4375 5.25V18.75ZM15.3977 10.1477L13.5454 12L15.3977 13.8522C15.4511 13.9042 15.4937 13.9662 15.5229 14.0348C15.5521 14.1033 15.5674 14.177 15.5679 14.2515C15.5684 14.326 15.5541 14.3999 15.5259 14.4688C15.4976 14.5378 15.4559 14.6004 15.4032 14.6531C15.3505 14.7058 15.2879 14.7475 15.219 14.7757C15.15 14.804 15.0762 14.8183 15.0017 14.8178C14.9272 14.8173 14.8535 14.802 14.7849 14.7728C14.7164 14.7436 14.6543 14.7011 14.6024 14.6477L12.7501 12.7954L10.8977 14.6477C10.8458 14.7011 10.7837 14.7436 10.7152 14.7728C10.6466 14.802 10.5729 14.8173 10.4984 14.8178C10.4239 14.8183 10.3501 14.804 10.2811 14.7757C10.2122 14.7475 10.1496 14.7058 10.0969 14.6531C10.0442 14.6004 10.0025 14.5378 9.97423 14.4688C9.94595 14.3999 9.93166 14.326 9.93217 14.2515C9.93268 14.177 9.94798 14.1033 9.9772 14.0348C10.0064 13.9662 10.049 13.9042 10.1024 13.8522L11.9547 12L10.1024 10.1477C9.99923 10.0417 9.94197 9.89943 9.94296 9.75157C9.94396 9.60371 10.0031 9.46219 10.1077 9.35763C10.2122 9.25307 10.3537 9.19388 10.5016 9.19286C10.6495 9.19185 10.7918 9.2491 10.8977 9.35222L12.7501 11.2045L14.6024 9.35222C14.7083 9.2491 14.8506 9.19185 14.9985 9.19286C15.1464 9.19388 15.2879 9.25307 15.3924 9.35763C15.497 9.46219 15.5561 9.60371 15.5571 9.75157C15.5581 9.89943 15.5009 10.0417 15.3977 10.1477Z" fill="black"/>
</svg>
