<svg width="24" height="24" viewBox="0 0 24 24" fill="none" xmlns="http://www.w3.org/2000/svg">
<path fill-rule="evenodd" clip-rule="evenodd" d="M15.9443 16.9981C16.2373 17.2909 16.7122 17.2907 17.005 16.9977C17.2977 16.7046 17.2975 16.2297 17.0045 15.937L13.062 11.9982L17.0045 8.05937C17.2975 7.76661 17.2977 7.29174 17.005 6.99871C16.7122 6.70568 16.2373 6.70546 15.9443 6.99822L12.0009 10.938L8.05744 6.99822C7.76441 6.70546 7.28954 6.70568 6.99678 6.99871C6.70403 7.29174 6.70424 7.76661 6.99727 8.05937L10.9397 11.9982L6.99726 15.937C6.70423 16.2297 6.70401 16.7046 6.99677 16.9977C7.28953 17.2907 7.7644 17.2909 8.05743 16.9981L12.0009 13.0583L15.9443 16.9981Z" fill="#252625"/>
</svg>
