<svg width="26" height="26" viewBox="0 0 26 26" fill="none" xmlns="http://www.w3.org/2000/svg">
<path d="M12.3237 23.3238C11.3088 23.3238 10.3349 23.1929 9.40186 22.9309C8.46882 22.669 7.59308 22.3007 6.77462 21.826C5.95617 21.3513 5.21547 20.7784 4.55253 20.1073C3.88958 19.4362 3.31666 18.6955 2.83378 17.8852C2.35089 17.0749 1.97849 16.1992 1.71659 15.258C1.45468 14.3167 1.32373 13.3387 1.32373 12.3238C1.32373 11.3089 1.45468 10.335 1.71659 9.40193C1.97849 8.4689 2.3468 7.59315 2.8215 6.7747C3.2962 5.95625 3.86912 5.21555 4.54025 4.5526C5.21138 3.88965 5.95208 3.31674 6.76235 2.83385C7.57261 2.35096 8.44836 1.97857 9.38958 1.71666C10.3308 1.45476 11.3088 1.32381 12.3237 1.32381C13.3386 1.32381 14.3126 1.45476 15.2456 1.71666C16.1786 1.97857 17.0544 2.34687 17.8728 2.82157C18.6913 3.29628 19.432 3.86919 20.0949 4.54032C20.7579 5.21146 21.3308 5.95216 21.8137 6.76242C22.2966 7.57269 22.669 8.44843 22.9309 9.38966C23.1928 10.3309 23.3237 11.3089 23.3237 12.3238C23.3237 13.3387 23.1928 14.3126 22.9309 15.2457C22.669 16.1787 22.3007 17.0545 21.826 17.8729C21.3513 18.6914 20.7783 19.4321 20.1072 20.095C19.4361 20.758 18.6954 21.3309 17.8851 21.8138C17.0748 22.2966 16.1991 22.669 15.2579 22.9309C14.3167 23.1929 13.3386 23.3238 12.3237 23.3238ZM12.3237 2.89524C11.0224 2.89524 9.8029 3.14077 8.66525 3.63184C7.5276 4.12291 6.52909 4.79814 5.66971 5.65751C4.81034 6.51689 4.13511 7.5154 3.64404 8.65305C3.15297 9.7907 2.90334 11.0143 2.89516 12.3238C2.89516 13.6251 3.14069 14.8446 3.63177 15.9823C4.12284 17.1199 4.79806 18.1185 5.65744 18.9778C6.51681 19.8372 7.51532 20.5124 8.65297 21.0035C9.79062 21.4946 11.0142 21.7442 12.3237 21.7524C13.6251 21.7524 14.8446 21.5068 15.9822 21.0158C17.1199 20.5247 18.1184 19.8495 18.9777 18.9901C19.8371 18.1307 20.5123 17.1322 21.0034 15.9946C21.4945 14.8569 21.7441 13.6333 21.7523 12.3238C21.7523 11.0225 21.5068 9.80297 21.0157 8.66532C20.5246 7.52768 19.8494 6.52916 18.99 5.66979C18.1306 4.81041 17.1321 4.13519 15.9945 3.64412C14.8568 3.15305 13.6333 2.90342 12.3237 2.89524ZM12.3237 12.3238V6.03809H10.7523V13.8952H17.038V12.3238H12.3237Z" fill="#FC9C66"/>
</svg>
