<svg width="26" height="25" viewBox="0 0 26 25" fill="none" xmlns="http://www.w3.org/2000/svg">
<path d="M5.74286 23.9714C5.53827 23.9714 5.34205 23.8902 5.19738 23.7455C5.05271 23.6008 4.97144 23.4046 4.97144 23.2V6.22857C4.97146 6.09452 5.00641 5.96279 5.07285 5.84636C5.13929 5.72993 5.23493 5.63283 5.35033 5.56461C5.46572 5.4964 5.59691 5.45944 5.73094 5.45737C5.86498 5.4553 5.99724 5.48819 6.11469 5.5528L21.5433 14.0385C21.6642 14.1051 21.7651 14.2029 21.8353 14.3218C21.9056 14.4407 21.9426 14.5762 21.9426 14.7143C21.9426 14.8524 21.9056 14.9879 21.8353 15.1068C21.7651 15.2256 21.6642 15.3235 21.5433 15.3901L6.11469 23.8758C6.00079 23.9385 5.87289 23.9714 5.74286 23.9714ZM6.51429 7.53229V21.8963L19.5707 14.7143L6.51429 7.53229Z" fill="#1A70BC"/>
</svg>
