<svg width="24" height="24" viewBox="0 0 24 24" fill="none" xmlns="http://www.w3.org/2000/svg" x="-12" y="-12">
<path d="M19.7191 19.9996H4.7274C3.53865 20.0154 2.3886 19.572 1.51134 18.7596C0.634084 17.9473 0.0955377 16.827 0.00531654 15.6267C0.00531654 15.5004 0.00531654 15.3741 0.00531654 15.2478C-0.0430889 14.2541 0.240157 13.2729 0.809456 12.4621C1.37876 11.6513 2.20098 11.058 3.14378 10.7777C3.14378 10.6417 3.14378 10.5057 3.14378 10.3793C3.17838 9.1531 3.54601 7.96023 4.20633 6.93169C4.86665 5.90315 5.79411 5.0787 6.88689 4.54887C8.06936 4.01615 9.38556 3.86654 10.6553 4.12051C11.925 4.37449 13.0861 5.01964 13.9796 5.96762C14.5902 6.59729 15.0814 7.33508 15.4289 8.14432C15.7775 7.85164 16.1912 7.64917 16.6342 7.55437C17.0773 7.45957 17.5365 7.47528 17.9723 7.60015C18.6121 7.82792 19.1694 8.2454 19.5717 8.79827C19.974 9.35113 20.2026 10.0138 20.2277 10.7C21.2927 10.885 22.2576 11.4484 22.949 12.2892C23.6404 13.1299 24.0129 14.1927 23.9997 15.2866C23.9997 19.5915 19.7671 19.9899 19.7191 19.9996ZM3.71964 11.5746C2.9034 11.7538 2.17728 12.2225 1.67221 12.896C1.16714 13.5695 0.916358 14.4036 0.96509 15.2478C0.96509 15.3547 0.96509 15.4615 0.96509 15.5684C1.0456 16.5348 1.48806 17.4335 2.20183 18.0803C2.9156 18.7271 3.84663 19.073 4.80418 19.0473H19.7671C20.7019 18.9641 21.572 18.5294 22.2059 17.8288C22.8398 17.1281 23.1914 16.2125 23.1914 15.2623C23.1914 14.3122 22.8398 13.3965 22.2059 12.6959C21.572 11.9953 20.7019 11.5605 19.7671 11.4774C19.7084 11.468 19.6521 11.4469 19.6016 11.4154C19.551 11.3838 19.507 11.3425 19.4722 11.2938C19.4375 11.245 19.4125 11.1898 19.3989 11.1312C19.3852 11.0727 19.3832 11.012 19.3927 10.9527C19.4109 10.4152 19.2649 9.88507 18.9747 9.43466C18.6844 8.98425 18.264 8.63546 17.7707 8.43584C17.3888 8.32908 16.9835 8.34462 16.6106 8.48033C16.2377 8.61604 15.9154 8.86527 15.688 9.1938C15.6381 9.2625 15.5706 9.31603 15.4928 9.34858C15.4149 9.38113 15.3298 9.39146 15.2465 9.37844C15.1642 9.36328 15.0873 9.32661 15.0233 9.27206C14.9593 9.21752 14.9106 9.14699 14.8818 9.06748C14.5469 8.14632 14.0123 7.31287 13.3174 6.6284C12.5548 5.81219 11.5606 5.25598 10.4723 5.03664C9.38393 4.8173 8.25517 4.94567 7.24201 5.404C6.31296 5.87288 5.52636 6.58729 4.96544 7.47167C4.40452 8.35604 4.09014 9.37748 4.05556 10.4279C4.04124 10.6544 4.04124 10.8816 4.05556 11.1081C4.07001 11.2247 4.04047 11.3425 3.97286 11.438C3.90524 11.5335 3.80453 11.5996 3.69085 11.6232L3.71964 11.5746Z" fill="#252625"/>
</svg>
