<svg width="24" height="24" viewBox="0 0 24 24" fill="none" xmlns="http://www.w3.org/2000/svg" x="-12" y="-12">
<path d="M24 6.72V5.76H22.08V3.6816C22.08 3.21439 21.8944 2.76632 21.564 2.43596C21.2337 2.1056 20.7856 1.92 20.3184 1.92H18.24V0H17.28V1.92H15.36V0H14.4V1.92H12.48V0H11.52V1.92H9.6V0H8.64V1.92H6.72V0H5.76V1.92H3.6816C3.21439 1.92 2.76632 2.1056 2.43596 2.43596C2.1056 2.76632 1.92 3.21439 1.92 3.6816V5.76H0V6.72H1.92V8.64H0V9.6H1.92V11.52H0V12.48H1.92V14.4H0V15.36H1.92V17.28H0V18.24H1.92V20.3184C1.92 20.7856 2.1056 21.2337 2.43596 21.564C2.76632 21.8944 3.21439 22.08 3.6816 22.08H5.76V24H6.72V22.08H8.64V24H9.6V22.08H11.52V24H12.48V22.08H14.4V24H15.36V22.08H17.28V24H18.24V22.08H20.3184C20.7856 22.08 21.2337 21.8944 21.564 21.564C21.8944 21.2337 22.08 20.7856 22.08 20.3184V18.24H24V17.28H22.08V15.36H24V14.4H22.08V12.48H24V11.52H22.08V9.6H24V8.64H22.08V6.72H24ZM21.12 20.3184C21.12 20.531 21.0355 20.7349 20.8852 20.8852C20.7349 21.0355 20.531 21.12 20.3184 21.12H3.6816C3.57633 21.12 3.4721 21.0993 3.37484 21.059C3.27759 21.0187 3.18922 20.9597 3.11478 20.8852C3.04035 20.8108 2.9813 20.7224 2.94102 20.6252C2.90073 20.5279 2.88 20.4237 2.88 20.3184V3.6816C2.88 3.57633 2.90073 3.4721 2.94102 3.37484C2.9813 3.27759 3.04035 3.18922 3.11478 3.11478C3.18922 3.04035 3.27759 2.9813 3.37484 2.94102C3.4721 2.90073 3.57633 2.88 3.6816 2.88H20.3184C20.4237 2.88 20.5279 2.90073 20.6252 2.94102C20.7224 2.9813 20.8108 3.04035 20.8852 3.11478C20.9597 3.18922 21.0187 3.27759 21.059 3.37484C21.0993 3.4721 21.12 3.57633 21.12 3.6816V20.3184Z" fill="#252625"/>
<path d="M16.6178 6.24005H7.38263C7.08043 6.24256 6.79131 6.36372 6.57761 6.57742C6.36391 6.79113 6.24274 7.08024 6.24023 7.38245V16.6177C6.24274 16.9199 6.36391 17.209 6.57761 17.4227C6.79131 17.6364 7.08043 17.7575 7.38263 17.7601H16.6178C16.92 17.7575 17.2092 17.6364 17.4229 17.4227C17.6366 17.209 17.7577 16.9199 17.7602 16.6177V7.38245C17.7577 7.08024 17.6366 6.79113 17.4229 6.57742C17.2092 6.36372 16.92 6.24256 16.6178 6.24005ZM16.8002 16.6177C16.8002 16.666 16.781 16.7124 16.7468 16.7466C16.7126 16.7808 16.6662 16.8001 16.6178 16.8001H7.38263C7.33426 16.8001 7.28786 16.7808 7.25366 16.7466C7.21945 16.7124 7.20023 16.666 7.20023 16.6177V7.38245C7.20023 7.33408 7.21945 7.28768 7.25366 7.25347C7.28786 7.21927 7.33426 7.20005 7.38263 7.20005H16.6178C16.6662 7.20005 16.7126 7.21927 16.7468 7.25347C16.781 7.28768 16.8002 7.33408 16.8002 7.38245V16.6177Z" fill="#252625"/>
</svg>
