<svg width="102" height="135" viewBox="0 0 102 135" fill="none" xmlns="http://www.w3.org/2000/svg">
<mask id="path-1-inside-1" fill="white">
<path fill-rule="evenodd" clip-rule="evenodd" d="M0 30C0 13.4315 13.4315 0 30 0H72C88.5685 0 102 13.4315 102 30V105C102 121.569 88.5685 135 72 135H30C13.4315 135 0 121.569 0 105V30ZM23 68C23 63.5817 26.5817 60 31 60H71C75.4183 60 79 63.5817 79 68C79 72.4183 75.4183 76 71 76H31C26.5817 76 23 72.4183 23 68ZM31 26C26.5817 26 23 29.5817 23 34C23 38.4183 26.5817 42 31 42H71C75.4183 42 79 38.4183 79 34C79 29.5817 75.4183 26 71 26H31ZM23 104C23 99.5817 26.5817 96 31 96H71C75.4183 96 79 99.5817 79 104C79 108.418 75.4183 112 71 112H31C26.5817 112 23 108.418 23 104ZM51 17C54.866 17 58 13.866 58 10C58 6.13401 54.866 3 51 3C47.134 3 44 6.13401 44 10C44 13.866 47.134 17 51 17Z"/>
</mask>
<path fill-rule="evenodd" clip-rule="evenodd" d="M0 30C0 13.4315 13.4315 0 30 0H72C88.5685 0 102 13.4315 102 30V105C102 121.569 88.5685 135 72 135H30C13.4315 135 0 121.569 0 105V30ZM23 68C23 63.5817 26.5817 60 31 60H71C75.4183 60 79 63.5817 79 68C79 72.4183 75.4183 76 71 76H31C26.5817 76 23 72.4183 23 68ZM31 26C26.5817 26 23 29.5817 23 34C23 38.4183 26.5817 42 31 42H71C75.4183 42 79 38.4183 79 34C79 29.5817 75.4183 26 71 26H31ZM23 104C23 99.5817 26.5817 96 31 96H71C75.4183 96 79 99.5817 79 104C79 108.418 75.4183 112 71 112H31C26.5817 112 23 108.418 23 104ZM51 17C54.866 17 58 13.866 58 10C58 6.13401 54.866 3 51 3C47.134 3 44 6.13401 44 10C44 13.866 47.134 17 51 17Z" fill="#323232"/>
<path d="M30 -10C7.90861 -10 -10 7.90861 -10 30H10C10 18.9543 18.9543 10 30 10V-10ZM72 -10H30V10H72V-10ZM112 30C112 7.90861 94.0914 -10 72 -10V10C83.0457 10 92 18.9543 92 30H112ZM112 105V30H92V105H112ZM72 145C94.0914 145 112 127.091 112 105H92C92 116.046 83.0457 125 72 125V145ZM30 145H72V125H30V145ZM-10 105C-10 127.091 7.90861 145 30 145V125C18.9543 125 10 116.046 10 105H-10ZM-10 30V105H10V30H-10ZM31 50C21.0589 50 13 58.0589 13 68H33C33 69.1046 32.1046 70 31 70V50ZM71 50H31V70H71V50ZM89 68C89 58.0589 80.9411 50 71 50V70C69.8954 70 69 69.1046 69 68H89ZM71 86C80.9411 86 89 77.9411 89 68H69C69 66.8954 69.8954 66 71 66V86ZM31 86H71V66H31V86ZM13 68C13 77.9411 21.0589 86 31 86V66C32.1046 66 33 66.8954 33 68H13ZM33 34C33 35.1046 32.1046 36 31 36V16C21.0589 16 13 24.0589 13 34H33ZM31 32C32.1046 32 33 32.8954 33 34H13C13 43.9411 21.0589 52 31 52V32ZM71 32H31V52H71V32ZM69 34C69 32.8954 69.8954 32 71 32V52C80.9411 52 89 43.9411 89 34H69ZM71 36C69.8954 36 69 35.1046 69 34H89C89 24.0589 80.9411 16 71 16V36ZM31 36H71V16H31V36ZM31 86C21.0589 86 13 94.0589 13 104H33C33 105.105 32.1046 106 31 106V86ZM71 86H31V106H71V86ZM89 104C89 94.0589 80.9411 86 71 86V106C69.8954 106 69 105.105 69 104H89ZM71 122C80.9411 122 89 113.941 89 104H69C69 102.895 69.8954 102 71 102V122ZM31 122H71V102H31V122ZM13 104C13 113.941 21.0589 122 31 122V102C32.1046 102 33 102.895 33 104H13ZM48 10C48 8.34315 49.3431 7 51 7V27C60.3888 27 68 19.3888 68 10H48ZM51 13C49.3431 13 48 11.6569 48 10H68C68 0.61116 60.3888 -7 51 -7V13ZM54 10C54 11.6569 52.6569 13 51 13V-7C41.6112 -7 34 0.61116 34 10H54ZM51 7C52.6569 7 54 8.34315 54 10H34C34 19.3888 41.6112 27 51 27V7Z" fill="#323232" mask="url(#path-1-inside-1)"/>
</svg>
