<svg width="24" height="24" viewBox="0 0 24 24" fill="none" xmlns="http://www.w3.org/2000/svg" x="-12" y="-12">
<path d="M22.1471 12.6133H20.0137V11.76H22.1471V1.51996H11.907V3.65329H11.0537V1.51996C11.0537 1.29364 11.1436 1.07659 11.3036 0.916562C11.4637 0.756531 11.6807 0.666626 11.907 0.666626H22.1471C22.3734 0.666626 22.5904 0.756531 22.7504 0.916562C22.9105 1.07659 23.0004 1.29364 23.0004 1.51996V11.76C23.0004 11.9863 22.9105 12.2033 22.7504 12.3634C22.5904 12.5234 22.3734 12.6133 22.1471 12.6133Z" fill="#252625"/>
<path d="M12.7603 22H2.52033C2.29401 22 2.07696 21.9101 1.91693 21.7501C1.7569 21.5901 1.66699 21.373 1.66699 21.1467V10.9067C1.66699 10.6804 1.7569 10.4633 1.91693 10.3033C2.07696 10.1432 2.29401 10.0533 2.52033 10.0533H4.65366V10.9067H2.52033V21.1467H12.7603V19.0133H13.6137V21.1467C13.6137 21.373 13.5238 21.5901 13.3637 21.7501C13.2037 21.9101 12.9867 22 12.7603 22Z" fill="#252625"/>
<path d="M19.1651 7.49326V6.63993H17.8851C17.8675 6.41946 17.772 6.21247 17.6156 6.05608C17.4592 5.8997 17.2522 5.80416 17.0317 5.78659V4.50659H16.1784V5.78659H14.8984V4.50659H14.0451V5.78659H12.7651V4.50659H11.9117V5.78659H10.6317V4.50659H9.77839V5.78659H8.49839V4.50659H7.64505V5.78659C7.42459 5.80416 7.2176 5.8997 7.06121 6.05608C6.90483 6.21247 6.80928 6.41946 6.79172 6.63993H5.51172V7.49326H6.79172V8.77326H5.51172V9.62659H6.79172V10.9066H5.51172V11.7599H6.79172V13.0399H5.51172V13.8933H6.79172V15.1733H5.51172V16.0266H6.79172C6.80928 16.2471 6.90483 16.4541 7.06121 16.6104C7.2176 16.7668 7.42459 16.8624 7.64505 16.8799V18.1599H8.49839V16.8799H9.77839V18.1599H10.6317V16.8799H11.9117V18.1599H12.7651V16.8799H14.0451V18.1599H14.8984V16.8799H16.1784V18.1599H17.0317V16.8799C17.2522 16.8624 17.4592 16.7668 17.6156 16.6104C17.772 16.4541 17.8675 16.2471 17.8851 16.0266H19.1651V15.1733H17.8851V13.8933H19.1651V13.0399H17.8851V11.7599H19.1651V10.9066H17.8851V9.62659H19.1651V8.77326H17.8851V7.49326H19.1651ZM17.0317 15.9498C17.0317 15.9702 17.0236 15.9897 17.0092 16.0041C16.9948 16.0185 16.9753 16.0266 16.9549 16.0266H7.72185C7.70148 16.0266 7.68195 16.0185 7.66755 16.0041C7.65314 15.9897 7.64505 15.9702 7.64505 15.9498V6.71673C7.64505 6.69636 7.65314 6.67682 7.66755 6.66242C7.68195 6.64802 7.70148 6.63993 7.72185 6.63993H16.9549C16.9753 6.63993 16.9948 6.64802 17.0092 6.66242C17.0236 6.67682 17.0317 6.69636 17.0317 6.71673V15.9498Z" fill="#252625"/>
</svg>
