<svg width="24" height="24" viewBox="0 0 24 24" fill="none" xmlns="http://www.w3.org/2000/svg" x="-12" y="-12">
<path d="M11.6022 23.9999C11.5193 24.0015 11.4376 23.9799 11.3663 23.9376L1.2359 18.0979C1.16405 18.0564 1.1044 17.9967 1.06299 17.9248C1.02157 17.853 0.999843 17.7714 1 17.6884V5.85776C0.999843 5.77479 1.02157 5.69324 1.06299 5.62135C1.1044 5.54945 1.16405 5.48975 1.2359 5.44827L10.5518 0.0803951C10.621 0.0319759 10.7025 0.00424799 10.7869 0.000450252C10.8713 -0.00334749 10.955 0.0169418 11.0283 0.058948C11.1016 0.100954 11.1614 0.162943 11.2008 0.237674C11.2401 0.312406 11.2574 0.396794 11.2506 0.480983V5.60405C11.2503 5.68356 11.2296 5.76167 11.1907 5.83098C11.1518 5.9003 11.0958 5.95854 11.028 6.00019L6.36787 8.67077V14.8754L11.6156 17.9065L16.2045 15.236C16.2722 15.1969 16.3489 15.1763 16.4271 15.1763C16.5052 15.1763 16.582 15.1969 16.6496 15.236L21.065 17.773C21.1368 17.8145 21.1965 17.8742 21.2379 17.9461C21.2793 18.018 21.301 18.0995 21.3009 18.1825C21.3031 18.2653 21.2822 18.347 21.2406 18.4186C21.1989 18.4901 21.1381 18.5486 21.065 18.5875L11.8292 23.9287C11.7614 23.9726 11.6829 23.9972 11.6022 23.9999ZM1.90355 17.368L11.8426 23.1053L20.3751 18.1736L16.8143 16.1217L12.0829 18.8546C12.0089 18.8963 11.9253 18.9182 11.8403 18.9182C11.7554 18.9182 11.6718 18.8963 11.5978 18.8546L5.68687 15.4451C5.61537 15.4044 5.5559 15.3455 5.51447 15.2743C5.47305 15.2032 5.45114 15.1224 5.45097 15.0401V8.43042C5.44872 8.34764 5.46961 8.26588 5.51129 8.19433C5.55296 8.12278 5.61377 8.06427 5.68687 8.02538L10.347 5.3548V1.2688L1.8902 6.16487L1.90355 17.368Z" fill="#252625"/>
<path d="M21.9058 17.1276C21.8233 17.1265 21.7423 17.1051 21.6699 17.0653L17.259 14.5149C17.1859 14.476 17.1251 14.4175 17.0834 14.346C17.0418 14.2744 17.0209 14.1926 17.0231 14.1099V8.71974L12.363 6.03136C12.2915 5.99059 12.232 5.93167 12.1906 5.86055C12.1491 5.78943 12.1272 5.70862 12.1271 5.62632V0.503249C12.1252 0.421678 12.1458 0.341169 12.1867 0.270521C12.2275 0.199874 12.2869 0.141805 12.3585 0.102662C12.4262 0.0635963 12.5029 0.0430298 12.5811 0.0430298C12.6592 0.0430298 12.736 0.0635963 12.8036 0.102662L22.1551 5.47498C22.2266 5.51575 22.2861 5.57467 22.3275 5.64579C22.3689 5.71692 22.3908 5.79772 22.391 5.88002V16.638C22.3912 16.721 22.3694 16.8025 22.328 16.8744C22.2866 16.9463 22.227 17.006 22.1551 17.0475C22.0808 17.0963 21.9947 17.124 21.9058 17.1276ZM17.9267 13.8117L21.4875 15.8591V6.17824L13.0306 1.28217V5.34591L17.7041 8.0521C17.7772 8.09099 17.838 8.1495 17.8797 8.22105C17.9214 8.2926 17.9423 8.37436 17.94 8.45714L17.9267 13.8117Z" fill="#252625"/>
</svg>
