<svg width="153" height="193" viewBox="0 0 153 193" fill="none" xmlns="http://www.w3.org/2000/svg">
<path d="M101.953 23.1644L102.344 25.0218L104.238 25.1448C113.489 25.7452 120.5 32.8277 120.5 41.25C120.5 50.0698 112.814 57.5 103 57.5H51C38.9863 57.5 29.5 48.3823 29.5 37.5C29.5 27.3354 37.7439 18.7245 48.6479 17.6377L49.9499 17.5079L50.5854 16.3641C55.1346 8.1755 64.3274 2.5 75 2.5C88.4632 2.5 99.494 11.4658 101.953 23.1644Z" fill="#323232" stroke="#323232" stroke-width="5"/>
<line x1="24.5" y1="120" x2="24.5" y2="94" stroke="#323232" stroke-width="5"/>
<line x1="30.9973" y1="87" x2="123.003" y2="87" stroke="#323232" stroke-width="5"/>
<line x1="74.5" y1="87" x2="74.5" y2="57" stroke="#323232" stroke-width="5"/>
<circle cx="24" cy="87" r="6.5" fill="#323232" stroke="#323232" stroke-width="5"/>
<line x1="129.5" y1="120" x2="129.5" y2="94" stroke="#323232" stroke-width="5"/>
<circle cx="129" cy="87" r="6.5" fill="#323232" stroke="#323232" stroke-width="5"/>
<mask id="path-8-inside-1" fill="white">
<path fill-rule="evenodd" clip-rule="evenodd" d="M115 120C109.477 120 105 124.477 105 130V183C105 188.523 109.477 193 115 193H143C148.523 193 153 188.523 153 183V130C153 124.477 148.523 120 143 120H115ZM122.5 138C121.119 138 120 139.119 120 140.5C120 141.881 121.119 143 122.5 143H135.5C136.881 143 138 141.881 138 140.5C138 139.119 136.881 138 135.5 138H122.5ZM120 168.5C120 167.119 121.119 166 122.5 166H135.5C136.881 166 138 167.119 138 168.5C138 169.881 136.881 171 135.5 171H122.5C121.119 171 120 169.881 120 168.5ZM122.5 152C121.119 152 120 153.119 120 154.5C120 155.881 121.119 157 122.5 157H135.5C136.881 157 138 155.881 138 154.5C138 153.119 136.881 152 135.5 152H122.5Z"/>
</mask>
<path fill-rule="evenodd" clip-rule="evenodd" d="M115 120C109.477 120 105 124.477 105 130V183C105 188.523 109.477 193 115 193H143C148.523 193 153 188.523 153 183V130C153 124.477 148.523 120 143 120H115ZM122.5 138C121.119 138 120 139.119 120 140.5C120 141.881 121.119 143 122.5 143H135.5C136.881 143 138 141.881 138 140.5C138 139.119 136.881 138 135.5 138H122.5ZM120 168.5C120 167.119 121.119 166 122.5 166H135.5C136.881 166 138 167.119 138 168.5C138 169.881 136.881 171 135.5 171H122.5C121.119 171 120 169.881 120 168.5ZM122.5 152C121.119 152 120 153.119 120 154.5C120 155.881 121.119 157 122.5 157H135.5C136.881 157 138 155.881 138 154.5C138 153.119 136.881 152 135.5 152H122.5Z" fill="#323232"/>
<path d="M111 130C111 127.791 112.791 126 115 126V114C106.163 114 99 121.163 99 130H111ZM111 183V130H99V183H111ZM115 187C112.791 187 111 185.209 111 183H99C99 191.837 106.163 199 115 199V187ZM143 187H115V199H143V187ZM147 183C147 185.209 145.209 187 143 187V199C151.837 199 159 191.837 159 183H147ZM147 130V183H159V130H147ZM143 126C145.209 126 147 127.791 147 130H159C159 121.163 151.837 114 143 114V126ZM115 126H143V114H115V126ZM126 140.5C126 142.433 124.433 144 122.5 144V132C117.806 132 114 135.806 114 140.5H126ZM122.5 137C124.433 137 126 138.567 126 140.5H114C114 145.194 117.806 149 122.5 149V137ZM135.5 137H122.5V149H135.5V137ZM132 140.5C132 138.567 133.567 137 135.5 137V149C140.194 149 144 145.194 144 140.5H132ZM135.5 144C133.567 144 132 142.433 132 140.5H144C144 135.806 140.194 132 135.5 132V144ZM122.5 144H135.5V132H122.5V144ZM122.5 160C117.806 160 114 163.806 114 168.5H126C126 170.433 124.433 172 122.5 172V160ZM135.5 160H122.5V172H135.5V160ZM144 168.5C144 163.806 140.194 160 135.5 160V172C133.567 172 132 170.433 132 168.5H144ZM135.5 177C140.194 177 144 173.194 144 168.5H132C132 166.567 133.567 165 135.5 165V177ZM122.5 177H135.5V165H122.5V177ZM114 168.5C114 173.194 117.806 177 122.5 177V165C124.433 165 126 166.567 126 168.5H114ZM126 154.5C126 156.433 124.433 158 122.5 158V146C117.806 146 114 149.806 114 154.5H126ZM122.5 151C124.433 151 126 152.567 126 154.5H114C114 159.194 117.806 163 122.5 163V151ZM135.5 151H122.5V163H135.5V151ZM132 154.5C132 152.567 133.567 151 135.5 151V163C140.194 163 144 159.194 144 154.5H132ZM135.5 158C133.567 158 132 156.433 132 154.5H144C144 149.806 140.194 146 135.5 146V158ZM122.5 158H135.5V146H122.5V158Z" fill="#323232" mask="url(#path-8-inside-1)"/>
<mask id="path-10-inside-2" fill="white">
<path fill-rule="evenodd" clip-rule="evenodd" d="M10 120C4.47715 120 0 124.477 0 130V183C0 188.523 4.47715 193 10 193H38C43.5228 193 48 188.523 48 183V130C48 124.477 43.5229 120 38 120H10ZM17.5 138C16.1193 138 15 139.119 15 140.5C15 141.881 16.1193 143 17.5 143H30.5C31.8807 143 33 141.881 33 140.5C33 139.119 31.8807 138 30.5 138H17.5ZM15 154.5C15 153.119 16.1193 152 17.5 152H30.5C31.8807 152 33 153.119 33 154.5C33 155.881 31.8807 157 30.5 157H17.5C16.1193 157 15 155.881 15 154.5ZM17.5 166C16.1193 166 15 167.119 15 168.5C15 169.881 16.1193 171 17.5 171H30.5C31.8807 171 33 169.881 33 168.5C33 167.119 31.8807 166 30.5 166H17.5Z"/>
</mask>
<path fill-rule="evenodd" clip-rule="evenodd" d="M10 120C4.47715 120 0 124.477 0 130V183C0 188.523 4.47715 193 10 193H38C43.5228 193 48 188.523 48 183V130C48 124.477 43.5229 120 38 120H10ZM17.5 138C16.1193 138 15 139.119 15 140.5C15 141.881 16.1193 143 17.5 143H30.5C31.8807 143 33 141.881 33 140.5C33 139.119 31.8807 138 30.5 138H17.5ZM15 154.5C15 153.119 16.1193 152 17.5 152H30.5C31.8807 152 33 153.119 33 154.5C33 155.881 31.8807 157 30.5 157H17.5C16.1193 157 15 155.881 15 154.5ZM17.5 166C16.1193 166 15 167.119 15 168.5C15 169.881 16.1193 171 17.5 171H30.5C31.8807 171 33 169.881 33 168.5C33 167.119 31.8807 166 30.5 166H17.5Z" fill="#323232"/>
<path d="M6 130C6 127.791 7.79086 126 10 126V114C1.16344 114 -6 121.163 -6 130H6ZM6 183V130H-6V183H6ZM10 187C7.79086 187 6 185.209 6 183H-6C-6 191.837 1.16344 199 10 199V187ZM38 187H10V199H38V187ZM42 183C42 185.209 40.2091 187 38 187V199C46.8366 199 54 191.837 54 183H42ZM42 130V183H54V130H42ZM38 126C40.2091 126 42 127.791 42 130H54C54 121.163 46.8366 114 38 114V126ZM10 126H38V114H10V126ZM21 140.5C21 142.433 19.433 144 17.5 144V132C12.8056 132 9 135.806 9 140.5H21ZM17.5 137C19.433 137 21 138.567 21 140.5H9C9 145.194 12.8056 149 17.5 149V137ZM30.5 137H17.5V149H30.5V137ZM27 140.5C27 138.567 28.567 137 30.5 137V149C35.1944 149 39 145.194 39 140.5H27ZM30.5 144C28.567 144 27 142.433 27 140.5H39C39 135.806 35.1944 132 30.5 132V144ZM17.5 144H30.5V132H17.5V144ZM17.5 146C12.8056 146 9 149.806 9 154.5H21C21 156.433 19.433 158 17.5 158V146ZM30.5 146H17.5V158H30.5V146ZM39 154.5C39 149.806 35.1944 146 30.5 146V158C28.567 158 27 156.433 27 154.5H39ZM30.5 163C35.1944 163 39 159.194 39 154.5H27C27 152.567 28.567 151 30.5 151V163ZM17.5 163H30.5V151H17.5V163ZM9 154.5C9 159.194 12.8056 163 17.5 163V151C19.433 151 21 152.567 21 154.5H9ZM21 168.5C21 170.433 19.433 172 17.5 172V160C12.8056 160 9 163.806 9 168.5H21ZM17.5 165C19.433 165 21 166.567 21 168.5H9C9 173.194 12.8056 177 17.5 177V165ZM30.5 165H17.5V177H30.5V165ZM27 168.5C27 166.567 28.567 165 30.5 165V177C35.1944 177 39 173.194 39 168.5H27ZM30.5 172C28.567 172 27 170.433 27 168.5H39C39 163.806 35.1944 160 30.5 160V172ZM17.5 172H30.5V160H17.5V172Z" fill="#323232" mask="url(#path-10-inside-2)"/>
</svg>
