<svg width="24" height="24" viewBox="0 0 24 24" fill="none" xmlns="http://www.w3.org/2000/svg" x="-12" y="-12">
<g>
<path d="M23.0739 5.44647L14.4166 0.560223C13.2384 -0.105027 11.2134 -0.105777 10.0329 0.560223L1.37561 5.44647C0.713359 5.82072 0.349609 6.34422 0.349609 6.92172C0.349609 7.49922 0.714109 8.02272 1.37561 8.39622L10.0329 13.2832C10.6224 13.6162 11.4009 13.7992 12.2244 13.7992C13.0486 13.7992 13.8271 13.6155 14.4166 13.2832L23.0739 8.39622C23.7361 8.02272 24.1006 7.49922 24.1006 6.92172C24.1006 6.34422 23.7354 5.82072 23.0739 5.44647ZM22.6794 7.69872L14.0221 12.5857C13.0936 13.11 11.3551 13.1107 10.4266 12.5857L1.76936 7.69872C1.37636 7.47672 1.15136 7.19322 1.15136 6.92172C1.15136 6.64947 1.37636 6.36672 1.76936 6.14397L10.4266 1.25697C10.8909 0.994474 11.5464 0.844473 12.2236 0.844473C12.9016 0.844473 13.5571 0.995224 14.0214 1.25697L22.6786 6.14397C23.0716 6.36597 23.2974 6.64947 23.2974 6.92172C23.2981 7.19322 23.0731 7.47672 22.6794 7.69872Z" fill="black"/>
<path d="M23.0736 10.5742C22.9818 10.5306 22.8768 10.5234 22.7798 10.5541C22.6829 10.5847 22.6012 10.651 22.5511 10.7396C22.5011 10.8281 22.4865 10.9323 22.5103 11.0312C22.534 11.1301 22.5944 11.2163 22.6791 11.2725C23.0721 11.4945 23.2979 11.778 23.2979 12.0495C23.2979 12.321 23.0721 12.6045 22.6791 12.8265L14.0219 17.7135C13.0484 18.2632 11.4014 18.264 10.4264 17.7135L1.76913 12.8265C1.37613 12.6045 1.15113 12.321 1.15113 12.0495C1.15113 11.778 1.37613 11.4945 1.76913 11.2725C1.81498 11.2466 1.85528 11.2119 1.88772 11.1704C1.92017 11.1289 1.94413 11.0815 1.95823 11.0307C1.97233 10.98 1.9763 10.927 1.96992 10.8747C1.96353 10.8224 1.94691 10.7719 1.92101 10.7261C1.8951 10.6802 1.86042 10.6399 1.81895 10.6075C1.77747 10.575 1.73001 10.5511 1.67927 10.537C1.62854 10.5229 1.57552 10.5189 1.52325 10.5253C1.47098 10.5317 1.42048 10.5483 1.37463 10.5742C0.712383 10.9477 0.348633 11.472 0.348633 12.0495C0.348633 12.627 0.712383 13.1512 1.37463 13.5247L10.0319 18.4117C10.6461 18.7582 11.4351 18.9322 12.2234 18.9322C13.0124 18.9322 13.8014 18.759 14.4156 18.4117L23.0729 13.5247C23.7351 13.1512 24.0996 12.627 24.0996 12.0495C24.0996 11.472 23.7351 10.9477 23.0736 10.5742Z" fill="black"/>
<path d="M23.0739 15.603C22.982 15.5593 22.877 15.5521 22.7801 15.5828C22.6831 15.6135 22.6014 15.6798 22.5514 15.7683C22.5013 15.8569 22.4867 15.9611 22.5105 16.06C22.5342 16.1589 22.5946 16.2451 22.6794 16.3012C23.0724 16.5232 23.2981 16.8067 23.2981 17.0782C23.2981 17.3497 23.0724 17.6332 22.6794 17.856L14.0221 22.743C13.0486 23.2927 11.4016 23.2935 10.4266 22.743L1.76936 17.8552C1.37636 17.6332 1.15136 17.3497 1.15136 17.0775C1.15136 16.806 1.37636 16.5225 1.76936 16.3005C1.81521 16.2746 1.8555 16.2399 1.88795 16.1984C1.92039 16.1569 1.94435 16.1095 1.95845 16.0587C1.97256 16.008 1.97653 15.955 1.97014 15.9027C1.96376 15.8504 1.94714 15.7999 1.92123 15.7541C1.89533 15.7083 1.86065 15.668 1.81917 15.6355C1.7777 15.6031 1.73024 15.5791 1.6795 15.565C1.62877 15.5509 1.57575 15.5469 1.52348 15.5533C1.47121 15.5597 1.42071 15.5763 1.37486 15.6022C0.714109 15.9765 0.349609 16.5 0.349609 17.0782C0.349609 17.6565 0.713359 18.18 1.37561 18.5535L10.0329 23.4405C10.6471 23.787 11.4361 23.961 12.2244 23.961C13.0134 23.961 13.8024 23.7877 14.4166 23.4405L23.0739 18.5535C23.7361 18.1792 24.1006 17.6557 24.1006 17.0782C24.1006 16.5007 23.7354 15.9765 23.0739 15.603Z" fill="black"/>
</g>
</svg>
