<svg width="24" height="24" viewBox="0 0 24 24" fill="none" xmlns="http://www.w3.org/2000/svg" x="-12" y="-12">
<path d="M17.4961 12.4733C17.6166 13.2131 18.0112 13.8804 18.6013 14.3425C19.1915 14.8046 19.934 15.0276 20.6811 14.9671C21.4281 14.9067 22.1251 14.5672 22.6333 14.0163C23.1415 13.4653 23.4236 12.7432 23.4236 11.9937C23.4236 11.2442 23.1415 10.5221 22.6333 9.97115C22.1251 9.42019 21.4281 9.08072 20.6811 9.02027C19.934 8.95982 19.1915 9.18282 18.6013 9.64491C18.0112 10.107 17.6166 10.7743 17.4961 11.5141H13.9183C13.8628 10.631 13.6346 9.76745 13.2468 8.97219L17.5633 5.32238C18.0929 5.74157 18.7492 5.96859 19.4247 5.96629C20.1002 5.96399 20.7549 5.73251 21.2817 5.30973C21.8085 4.88694 22.1762 4.29788 22.3247 3.63891C22.4732 2.97995 22.3937 2.2901 22.0991 1.68223C21.8045 1.07435 21.3124 0.584451 20.7031 0.292669C20.0939 0.000887191 19.4037 -0.0754986 18.7454 0.0760094C18.0872 0.227517 17.4998 0.597949 17.0794 1.1267C16.6591 1.65545 16.4306 2.31121 16.4314 2.98669C16.4258 3.56582 16.5927 4.13349 16.911 4.61736L12.7384 8.13287C11.91 6.89174 10.7043 5.94999 9.29947 5.44677C7.89466 4.94355 6.36523 4.90555 4.93716 5.33838C3.50909 5.77121 2.25811 6.65191 1.36905 7.85037C0.479987 9.04883 0 10.5015 0 11.9937C0 13.4859 0.479987 14.9386 1.36905 16.137C2.25811 17.3355 3.50909 18.2162 4.93716 18.649C6.36523 19.0819 7.89466 19.0439 9.29947 18.5406C10.7043 18.0374 11.91 17.0957 12.7384 15.8545L16.911 19.3701C16.5927 19.8539 16.4258 20.4216 16.4314 21.0007C16.4311 21.6749 16.6596 22.3293 17.0795 22.8568C17.4993 23.3843 18.0858 23.7537 18.7429 23.9047C19.3999 24.0556 20.0888 23.9792 20.6968 23.6878C21.3048 23.3965 21.796 22.9075 22.09 22.3008C22.384 21.6941 22.4635 21.0055 22.3154 20.3478C22.1673 19.6901 21.8005 19.102 21.2748 18.6798C20.7492 18.2576 20.0958 18.0263 19.4216 18.0236C18.7474 18.0209 18.0923 18.247 17.5633 18.665L13.2468 15.0152C13.6346 14.22 13.8628 13.3564 13.9183 12.4733H17.4961ZM20.4313 9.96977C20.8318 9.96882 21.2236 10.0867 21.5571 10.3085C21.8905 10.5303 22.1507 10.8461 22.3046 11.2158C22.4585 11.5856 22.4993 11.9927 22.4217 12.3856C22.3442 12.7785 22.1518 13.1396 21.8689 13.4231C21.5861 13.7067 21.2255 13.8999 20.8327 13.9784C20.44 14.0569 20.0328 14.0171 19.6627 13.864C19.2926 13.711 18.9762 13.4516 18.7536 13.1186C18.531 12.7857 18.4122 12.3942 18.4122 11.9937C18.4122 11.4578 18.6247 10.9437 19.0033 10.5643C19.3818 10.1848 19.8954 9.97104 20.4313 9.96977ZM19.4337 0.962755C19.834 0.962755 20.2253 1.08146 20.5582 1.30385C20.891 1.52624 21.1504 1.84234 21.3036 2.21217C21.4568 2.58199 21.4969 2.98894 21.4188 3.38155C21.3407 3.77415 21.1479 4.13478 20.8649 4.41784C20.5818 4.70089 20.2212 4.89365 19.8286 4.97175C19.436 5.04984 19.029 5.00976 18.6592 4.85657C18.2894 4.70338 17.9733 4.44397 17.7509 4.11114C17.5285 3.7783 17.4098 3.38699 17.4098 2.98669C17.4098 2.44991 17.623 1.93512 18.0026 1.55555C18.3822 1.17599 18.897 0.962755 19.4337 0.962755ZM19.4337 18.9816C19.8342 18.9816 20.2257 19.1004 20.5587 19.323C20.8916 19.5456 21.151 19.862 21.3041 20.2321C21.4571 20.6022 21.4969 21.0094 21.4184 21.4021C21.3399 21.7949 21.1467 22.1555 20.8632 22.4384C20.5796 22.7212 20.2186 22.9136 19.8256 22.9911C19.4327 23.0687 19.0256 23.0279 18.6559 22.874C18.2861 22.7201 17.9704 22.4599 17.7486 22.1265C17.5267 21.793 17.4088 21.4012 17.4098 21.0007C17.4111 20.4648 17.6249 19.9512 18.0043 19.5727C18.3837 19.1941 18.8978 18.9816 19.4337 18.9816ZM6.98315 17.9888C5.79743 17.9888 4.63835 17.6372 3.65246 16.9784C2.66657 16.3197 1.89817 15.3834 1.44442 14.2879C0.990662 13.1925 0.871939 11.9871 1.10326 10.8241C1.33458 9.66119 1.90556 8.59297 2.74399 7.75454C3.58241 6.91612 4.65063 6.34514 5.81357 6.11382C6.9765 5.8825 8.18191 6.00122 9.27737 6.45497C10.3728 6.90873 11.3091 7.67713 11.9679 8.66302C12.6266 9.6489 12.9782 10.808 12.9782 11.9937C12.9757 13.5829 12.3433 15.1063 11.2195 16.2301C10.0958 17.3538 8.57236 17.9863 6.98315 17.9888Z" fill="#252625"/>
</svg>
