<svg width="24" height="24" viewBox="0 0 24 24" fill="none" xmlns="http://www.w3.org/2000/svg" x="-12" y="-12">
<path d="M20 8.5C19.3367 8.50198 18.6928 8.72393 18.1692 9.1311C17.6456 9.53827 17.2718 10.1076 17.1065 10.75H13.8935C13.7873 10.327 13.5894 9.93261 13.3137 9.59465C13.0381 9.25669 12.6916 8.98346 12.2986 8.79432C11.9057 8.60519 11.476 8.50477 11.0399 8.50017C10.6038 8.49558 10.1721 8.58693 9.77525 8.76775L7.3925 5.79025C7.78445 5.27552 7.99774 4.64696 8 4C8 3.40666 7.82405 2.82664 7.49441 2.33329C7.16477 1.83994 6.69623 1.45543 6.14805 1.22836C5.59987 1.0013 4.99667 0.94189 4.41473 1.05765C3.83279 1.1734 3.29824 1.45912 2.87868 1.87868C2.45912 2.29824 2.1734 2.83279 2.05765 3.41473C1.94189 3.99667 2.0013 4.59987 2.22836 5.14805C2.45543 5.69623 2.83994 6.16477 3.33329 6.49441C3.82664 6.82405 4.40666 7 5 7C5.42291 6.99902 5.84072 6.90773 6.2255 6.73225L8.6075 9.70975C8.21376 10.2235 8.00036 10.8527 8.00036 11.5C8.00036 12.1473 8.21376 12.7765 8.6075 13.2903L6.2255 16.2678C5.84072 16.0923 5.42291 16.001 5 16C4.40666 16 3.82664 16.176 3.33329 16.5056C2.83994 16.8352 2.45543 17.3038 2.22836 17.852C2.0013 18.4001 1.94189 19.0033 2.05765 19.5853C2.1734 20.1672 2.45912 20.7018 2.87868 21.1213C3.29824 21.5409 3.83279 21.8266 4.41473 21.9424C4.99667 22.0581 5.59987 21.9987 6.14805 21.7716C6.69623 21.5446 7.16477 21.1601 7.49441 20.6667C7.82405 20.1734 8 19.5933 8 19C7.99779 18.353 7.78449 17.7245 7.3925 17.2098L9.7745 14.2323C10.1714 14.4132 10.6032 14.5047 11.0394 14.5001C11.4755 14.4956 11.9053 14.3952 12.2984 14.2061C12.6914 14.0169 13.038 13.7437 13.3137 13.4056C13.5894 13.0676 13.7873 12.6731 13.8935 12.25H17.1065C17.2477 12.7919 17.5381 13.2834 17.9446 13.6686C18.3511 14.0538 18.8575 14.3173 19.4062 14.4291C19.9549 14.541 20.524 14.4968 21.0489 14.3015C21.5738 14.1062 22.0333 13.7676 22.3754 13.3242C22.7176 12.8808 22.9285 12.3504 22.9843 11.7932C23.0401 11.2359 22.9385 10.6742 22.6912 10.1718C22.4438 9.6694 22.0605 9.24642 21.5848 8.9509C21.1091 8.65538 20.56 8.49917 20 8.5ZM3.5 4C3.5 3.70333 3.58797 3.41332 3.7528 3.16665C3.91762 2.91997 4.15189 2.72771 4.42598 2.61418C4.70007 2.50065 5.00167 2.47095 5.29264 2.52882C5.58361 2.5867 5.85088 2.72956 6.06066 2.93934C6.27044 3.14912 6.4133 3.41639 6.47118 3.70737C6.52906 3.99834 6.49935 4.29994 6.38582 4.57403C6.27229 4.84812 6.08003 5.08238 5.83336 5.24721C5.58668 5.41203 5.29667 5.5 5 5.5C4.6023 5.4996 4.221 5.34144 3.93978 5.06022C3.65856 4.779 3.5004 4.3977 3.5 4ZM5 20.5C4.70333 20.5 4.41332 20.412 4.16665 20.2472C3.91997 20.0824 3.72771 19.8481 3.61418 19.574C3.50065 19.2999 3.47095 18.9983 3.52882 18.7074C3.5867 18.4164 3.72956 18.1491 3.93934 17.9393C4.14912 17.7296 4.41639 17.5867 4.70737 17.5288C4.99834 17.4709 5.29994 17.5007 5.57403 17.6142C5.84812 17.7277 6.08238 17.92 6.24721 18.1666C6.41203 18.4133 6.5 18.7033 6.5 19C6.4996 19.3977 6.34144 19.779 6.06022 20.0602C5.779 20.3414 5.3977 20.4996 5 20.5ZM11 13C10.7033 13 10.4133 12.912 10.1666 12.7472C9.91997 12.5824 9.72771 12.3481 9.61418 12.074C9.50065 11.7999 9.47095 11.4983 9.52882 11.2074C9.5867 10.9164 9.72956 10.6491 9.93934 10.4393C10.1491 10.2296 10.4164 10.0867 10.7074 10.0288C10.9983 9.97095 11.2999 10.0007 11.574 10.1142C11.8481 10.2277 12.0824 10.42 12.2472 10.6666C12.412 10.9133 12.5 11.2033 12.5 11.5C12.4996 11.8977 12.3414 12.279 12.0602 12.5602C11.779 12.8414 11.3977 12.9996 11 13ZM20 13C19.7033 13 19.4133 12.912 19.1666 12.7472C18.92 12.5824 18.7277 12.3481 18.6142 12.074C18.5007 11.7999 18.4709 11.4983 18.5288 11.2074C18.5867 10.9164 18.7296 10.6491 18.9393 10.4393C19.1491 10.2296 19.4164 10.0867 19.7074 10.0288C19.9983 9.97095 20.2999 10.0007 20.574 10.1142C20.8481 10.2277 21.0824 10.42 21.2472 10.6666C21.412 10.9133 21.5 11.2033 21.5 11.5C21.4996 11.8977 21.3414 12.279 21.0602 12.5602C20.779 12.8414 20.3977 12.9996 20 13Z" fill="black"/>
</svg>
