<svg width="24" height="24" viewBox="0 0 24 24" fill="none" xmlns="http://www.w3.org/2000/svg" x="-12" y="-12">
<path d="M16.8722 8.51166C16.8722 7.31193 14.5183 6.75757 12.3215 6.75757C10.1247 6.75757 7.77079 7.31193 7.77079 8.51166C7.76898 8.57165 7.77595 8.63158 7.79147 8.68955V16.1569C7.77079 17.398 10.1289 17.9275 12.3422 17.9275C14.5555 17.9275 16.8929 17.3814 16.8929 16.1817V8.51166H16.8722ZM12.3298 7.58911C14.7416 7.58911 16.0531 8.24689 16.0531 8.5158C16.0531 8.7847 14.7499 9.44249 12.3298 9.44249C9.90962 9.44249 8.60646 8.78884 8.60646 8.5158C8.60646 8.24276 9.91789 7.58911 12.3298 7.58911ZM16.0531 16.1858C16.0531 16.4506 14.7458 17.1042 12.3298 17.1042C9.91376 17.1042 8.60646 16.4506 8.60646 16.1858V14.8785C9.47937 15.3543 10.9439 15.5818 12.3298 15.5818C13.7157 15.5818 15.1678 15.3584 16.0531 14.8909V16.1858ZM16.0531 13.8319C16.0531 14.0966 14.7499 14.7585 12.3298 14.7585C9.90962 14.7585 8.60646 14.0966 8.60646 13.8319H8.61887V12.2515C9.49178 12.7231 10.9563 12.9507 12.3422 12.9507C13.7281 12.9507 15.1802 12.7273 16.0655 12.2598L16.0531 13.8319ZM16.0531 11.1966C16.0531 11.4655 14.7499 12.1274 12.3298 12.1274C9.90962 12.1274 8.60646 11.4655 8.60646 11.1966H8.61887V9.58315C9.50006 10.0506 10.948 10.2658 12.3422 10.2658C13.7364 10.2658 15.2009 10.0424 16.0655 9.5666L16.0531 11.1966Z" fill="#252625"/>
<path d="M3.41072 21.8659H6.13701V22.6933H2.4137C2.30398 22.6933 2.19875 22.6498 2.12117 22.5722C2.04359 22.4946 2 22.3894 2 22.2796V18.5563H2.8274V21.2743L5.93016 18.1757L6.50934 18.759L3.41072 21.8659Z" fill="#252625"/>
<path d="M22.6848 18.5563V22.2797C22.6848 22.3894 22.6412 22.4946 22.5636 22.5722C22.486 22.6498 22.3808 22.6934 22.2711 22.6934H18.5478V21.866H21.274L18.2168 18.8004L18.8001 18.2213L21.8574 21.2744V18.5563H22.6848Z" fill="#252625"/>
<path d="M22.6848 2.42194V6.14525H21.8574V3.41482L18.8001 6.47207L18.2168 5.88876L21.2699 2.83564H18.5478V2.00824H22.2711C22.3808 2.00824 22.486 2.05183 22.5636 2.12941C22.6412 2.20699 22.6848 2.31222 22.6848 2.42194Z" fill="#252625"/>
<path d="M6.50934 5.9343L5.93016 6.51348L2.8274 3.41486V6.13701H2V2.4137C2 2.30398 2.04359 2.19875 2.12117 2.12117C2.19875 2.04359 2.30398 2 2.4137 2H6.13701V2.8274H3.41072L6.50934 5.9343Z" fill="#252625"/>
<path d="M5.99618 16.0534C3.46846 15.1433 2.02051 13.7532 2.02051 12.2432C2.02051 10.7332 3.46846 9.34732 5.99618 8.43304L6.27749 9.2108C4.13038 9.98442 2.84791 11.118 2.84791 12.2432C2.84791 13.3685 4.13038 14.502 6.27749 15.2757L5.99618 16.0534Z" fill="#252625"/>
<path d="M18.4572 16.1444L18.1924 15.3584C20.4884 14.5848 21.8578 13.4182 21.8578 12.2432C21.8578 11.0683 20.4884 9.90169 18.1924 9.12394L18.4572 8.34204C21.1421 9.24391 22.6852 10.6753 22.6852 12.2432C22.6852 13.8112 21.1421 15.2343 18.4572 16.1444Z" fill="#252625"/>
</svg>
