<svg width="24" height="24" viewBox="0 0 24 24" fill="none" xmlns="http://www.w3.org/2000/svg" x="-12" y="-12">
<path d="M11.1658 23.28C8.09864 23.28 3.24584 22.584 3.18344 20.7168L1.00904 4.58399C0.984219 4.45668 1.01098 4.32473 1.08345 4.21716C1.15591 4.10959 1.26814 4.03521 1.39544 4.01039C1.52275 3.98556 1.6547 4.01233 1.76227 4.08479C1.86984 4.15725 1.94422 4.26948 1.96904 4.39679C2.20904 5.32319 5.83304 6.61919 11.185 6.61919C16.537 6.61919 20.1562 5.32319 20.3962 4.39679C20.4211 4.26948 20.4954 4.15725 20.603 4.08479C20.7106 4.01233 20.8425 3.98556 20.9698 4.01039C21.0971 4.03521 21.2094 4.10959 21.2818 4.21716C21.3543 4.32473 21.3811 4.45668 21.3562 4.58399L19.1434 20.7168C19.1434 21.3504 18.5578 21.8928 17.4586 22.3296C16.9708 22.5154 16.4703 22.6662 15.961 22.7808C14.3856 23.1214 12.7777 23.2888 11.1658 23.28ZM2.15624 5.88959L4.12424 20.64C4.12424 20.64 4.12424 20.6832 4.12424 20.7024C4.12424 21.2688 6.85544 22.344 11.1466 22.344C12.686 22.3523 14.2216 22.1913 15.7258 21.864C16.1881 21.7538 16.6421 21.611 17.0842 21.4368C17.9722 21.0864 18.169 20.7696 18.169 20.6784C18.1669 20.6576 18.1669 20.6367 18.169 20.616L20.1514 5.88959C18.2986 6.99359 14.5642 7.57919 11.1418 7.57919C7.71944 7.57919 4.00424 6.99359 2.15624 5.88959Z" fill="#252625"/>
<path d="M11.1655 7.57917C6.61992 7.57917 1.51752 6.54717 1.02312 4.64157C1.02141 4.62081 1.02141 4.59994 1.02312 4.57917V4.38237C1.02094 4.36163 1.02094 4.34071 1.02312 4.31997C1.02312 2.19837 6.38952 0.719971 11.2087 0.719971C16.0279 0.719971 21.3511 2.19837 21.3511 4.31997C21.3511 4.31997 21.3511 4.35837 21.3511 4.38237L21.3223 4.57917C21.3243 4.59992 21.3243 4.62082 21.3223 4.64157C20.8087 6.54717 15.7063 7.57917 11.1655 7.57917ZM1.95432 4.42077C2.25192 5.34717 5.86152 6.61917 11.1655 6.61917C16.4695 6.61917 20.0743 5.34717 20.3719 4.42077V4.29117C20.3191 3.35997 16.5367 1.67997 11.1655 1.67997C5.79432 1.67997 2.00712 3.35997 1.93992 4.29117L1.95432 4.42077Z" fill="#252625"/>
<path d="M21.3711 14.2176C19.0863 14.2176 14.0847 11.9568 10.9551 10.4208L11.3775 9.55676C15.6975 11.6832 20.7855 13.6464 21.6543 13.2768C21.5871 13.1376 21.2655 12.7056 19.7343 11.8752L19.6575 11.8272L20.1375 10.992L20.2095 11.0352C21.7503 11.8848 22.4847 12.5376 22.6095 13.152C22.634 13.2802 22.6295 13.4123 22.5963 13.5386C22.5631 13.6648 22.502 13.782 22.4175 13.8816C22.2771 14.0089 22.1111 14.1048 21.9306 14.1627C21.7501 14.2207 21.5594 14.2394 21.3711 14.2176Z" fill="#252625"/>
<path d="M11.1656 11.04C10.9596 11.04 10.7582 10.9789 10.5869 10.8644C10.4157 10.75 10.2821 10.5873 10.2033 10.397C10.1245 10.2067 10.1038 9.99723 10.144 9.79518C10.1842 9.59313 10.2834 9.40754 10.4291 9.26186C10.5748 9.11619 10.7604 9.01699 10.9624 8.9768C11.1645 8.93661 11.3739 8.95724 11.5642 9.03607C11.7546 9.11491 11.9172 9.24842 12.0317 9.41971C12.1461 9.591 12.2072 9.79238 12.2072 9.99839C12.206 10.2742 12.0958 10.5384 11.9008 10.7335C11.7057 10.9286 11.4415 11.0387 11.1656 11.04ZM11.1656 9.91679C11.1545 9.91613 11.1434 9.91776 11.1329 9.92156C11.1225 9.92537 11.1129 9.93128 11.1048 9.93892C11.0967 9.94657 11.0903 9.95578 11.0859 9.96601C11.0815 9.97624 11.0792 9.98726 11.0792 9.99839C11.0792 10.0896 11.2472 10.0896 11.2472 9.99839C11.2486 9.98689 11.2475 9.97524 11.244 9.96421C11.2405 9.95317 11.2347 9.943 11.227 9.93437C11.2193 9.92575 11.2098 9.91886 11.1992 9.91418C11.1887 9.90949 11.1772 9.90711 11.1656 9.90719V9.91679Z" fill="#252625"/>
</svg>
