<svg width="24" height="24" viewBox="0 0 24 24" fill="none" xmlns="http://www.w3.org/2000/svg">
<rect width="24" height="24" rx="12" transform="matrix(1 0 0 -1 0 24)" fill="#F5F7FF"/>
<path d="M7.45645 11.168C7.45645 11.4043 7.48118 11.5957 7.5243 11.7362C7.57904 11.8942 7.64495 12.0478 7.7215 12.1957C7.75233 12.2468 7.76462 12.2978 7.76462 12.3426C7.76462 12.4063 7.72768 12.4702 7.64755 12.534L7.25925 12.8021C7.20377 12.8404 7.14829 12.8596 7.09892 12.8596C7.03733 12.8596 6.97567 12.8276 6.914 12.7702C6.83096 12.6778 6.75667 12.5773 6.69215 12.4702C6.63049 12.3618 6.56883 12.2404 6.50106 12.0936C6.02027 12.6808 5.41616 12.9745 4.68887 12.9745C4.17114 12.9745 3.75812 12.8212 3.45607 12.5149C3.15408 12.2085 3 11.8 3 11.2894C3 10.7468 3.18491 10.3064 3.56092 9.97447C3.93685 9.64255 4.43618 9.47659 5.07105 9.47659C5.28062 9.47659 5.49636 9.49572 5.72439 9.52765C5.9525 9.55957 6.18671 9.61063 6.43329 9.66808V9.20213C6.43329 8.71698 6.33461 8.37873 6.14352 8.18084C5.94632 7.98296 5.61343 7.88718 5.13882 7.88718C4.92308 7.88718 4.70123 7.91278 4.47312 7.97023C4.24509 8.02761 4.02317 8.09786 3.80742 8.18724C3.70882 8.2319 3.63487 8.25742 3.59168 8.27022C3.54856 8.28303 3.51773 8.28935 3.49308 8.28935C3.40677 8.28935 3.36365 8.2255 3.36365 8.09146V7.77867C3.36365 7.67656 3.37601 7.59998 3.40676 7.55533C3.4376 7.5106 3.49308 7.46595 3.57939 7.4213C3.79513 7.30639 4.054 7.21061 4.35598 7.13403C4.65811 7.05105 4.97863 7.0128 5.31763 7.0128C6.05117 7.0128 6.58744 7.18509 6.93262 7.52981C7.27161 7.87445 7.44424 8.39786 7.44424 9.10002V11.168H7.4566H7.45645ZM4.95391 12.1383C5.15737 12.1383 5.36693 12.1 5.58878 12.0234C5.81071 11.9468 6.00798 11.8064 6.17435 11.6149C6.27303 11.4936 6.34698 11.3596 6.38392 11.2064C6.42093 11.0532 6.44558 10.8681 6.44558 10.651V10.383C6.25865 10.3359 6.06932 10.2996 5.87848 10.2745C5.68631 10.2492 5.4928 10.2364 5.29909 10.2361C4.88607 10.2361 4.58409 10.3191 4.3807 10.4915C4.17725 10.6638 4.07865 10.9064 4.07865 11.2255C4.07865 11.5255 4.1526 11.7489 4.30668 11.9021C4.45465 12.0617 4.6704 12.1383 4.95391 12.1383ZM9.90352 12.8276C9.79255 12.8276 9.7186 12.8085 9.6693 12.7638C9.62 12.7255 9.57681 12.6362 9.53987 12.5149L8.0914 7.58086C8.05431 7.45315 8.03584 7.37017 8.03584 7.32552C8.03584 7.22341 8.08514 7.16588 8.18382 7.16588H8.78786C8.90493 7.16588 8.98513 7.18509 9.02825 7.22974C9.07755 7.26807 9.11456 7.35745 9.1515 7.47868L10.187 11.7042L11.1486 7.47868C11.1794 7.35105 11.2164 7.26807 11.2657 7.22974C11.3151 7.19149 11.4014 7.16596 11.5123 7.16596H12.0054C12.1225 7.16596 12.2027 7.18509 12.2519 7.22974C12.3013 7.26807 12.3444 7.35745 12.369 7.47868L13.343 11.7553L14.4093 7.47868C14.4462 7.35105 14.4894 7.26807 14.5325 7.22974C14.5818 7.19149 14.662 7.16596 14.7729 7.16596H15.3461C15.4448 7.16596 15.5003 7.21701 15.5003 7.32552C15.5003 7.35745 15.4941 7.38937 15.4879 7.42762C15.4817 7.46595 15.4694 7.51701 15.4448 7.58726L13.9592 12.5212C13.9223 12.649 13.8792 12.7319 13.8298 12.7702C13.7805 12.8085 13.7004 12.834 13.5957 12.834H13.0656C12.9484 12.834 12.8683 12.8149 12.8189 12.7702C12.7696 12.7255 12.7265 12.6426 12.7019 12.5149L11.7464 8.39786L10.7972 12.5084C10.7664 12.6362 10.7294 12.7191 10.6801 12.7638C10.6308 12.8085 10.5445 12.8276 10.4336 12.8276H9.90344H9.90352ZM17.8241 13C17.5036 13 17.183 12.9617 16.8749 12.8851C16.5666 12.8085 16.3263 12.7255 16.1661 12.6298C16.0674 12.5723 15.9995 12.5085 15.975 12.4511C15.951 12.3947 15.9384 12.3339 15.9379 12.2723V11.9468C15.9379 11.8128 15.9872 11.7489 16.0797 11.7489C16.1175 11.749 16.155 11.7555 16.1907 11.7681C16.2276 11.7809 16.2831 11.8064 16.3448 11.8319C16.5625 11.931 16.7898 12.0059 17.0228 12.0553C17.2642 12.106 17.51 12.1317 17.7563 12.1319C18.1446 12.1319 18.4467 12.0617 18.6562 11.9213C18.8658 11.7808 18.9768 11.5766 18.9768 11.3149C18.9768 11.1362 18.9213 10.9894 18.8103 10.8681C18.6994 10.7468 18.4898 10.6383 18.1878 10.5361L17.294 10.2489C16.844 10.1021 16.5112 9.88509 16.3078 9.59783C16.1044 9.31696 15.9996 9.00424 15.9996 8.67232C15.9996 8.40426 16.0551 8.16804 16.1661 7.96376C16.2769 7.75954 16.4249 7.58086 16.6098 7.44043C16.7947 7.29359 17.0043 7.18509 17.2509 7.10851C17.4974 7.03193 17.7562 7 18.0275 7C18.1631 7 18.3049 7.0064 18.4405 7.02553C18.5823 7.04465 18.7117 7.07018 18.8411 7.09571C18.9644 7.12763 19.0815 7.15956 19.1925 7.19789C19.3035 7.23614 19.3897 7.27447 19.4514 7.31272C19.5377 7.36385 19.5993 7.4149 19.6363 7.47235C19.6733 7.52341 19.6918 7.59358 19.6918 7.68296V7.98296C19.6918 8.11699 19.6425 8.18724 19.55 8.18724C19.5007 8.18724 19.4205 8.16164 19.3158 8.11059C18.9644 7.94463 18.5699 7.86165 18.1323 7.86165C17.781 7.86165 17.5036 7.9191 17.3125 8.04041C17.1215 8.16164 17.0228 8.3468 17.0228 8.60847C17.0228 8.78723 17.0844 8.94039 17.2077 9.0617C17.331 9.18293 17.559 9.30423 17.8858 9.41274L18.761 9.70001C19.2048 9.84684 19.5253 10.0511 19.7164 10.3127C19.9075 10.5745 20 10.8745 20 11.2064C20 11.4808 19.9444 11.7298 19.8397 11.9468C19.7288 12.1638 19.5808 12.3553 19.3897 12.5085C19.1986 12.6681 18.9706 12.783 18.7055 12.866C18.4281 12.9553 18.1384 13 17.8241 13Z" fill="#252625"/>
<path d="M19.2735 15.8023C17.304 17.2379 14.4423 18 11.9818 18C8.53351 18 5.42651 16.7416 3.07976 14.6503C2.89416 14.4849 3.06175 14.2604 3.28323 14.3903C5.82157 15.8437 8.95259 16.7239 12.1914 16.7239C14.3765 16.7239 16.7771 16.275 18.9862 15.3533C19.3155 15.2056 19.5968 15.566 19.2735 15.8023ZM20.0937 14.8807C19.8423 14.5617 18.4294 14.7271 17.7889 14.8039C17.5973 14.8276 17.5673 14.6621 17.741 14.5381C18.8664 13.7582 20.7163 13.9828 20.9318 14.2426C21.1474 14.5085 20.8719 16.334 19.8183 17.2084C19.6567 17.3443 19.501 17.2734 19.5729 17.0962C19.8123 16.5112 20.3451 15.1938 20.0937 14.8807Z" fill="#FF9900"/>
</svg>
