<svg width="24" height="24" viewBox="0 0 24 24" fill="none" xmlns="http://www.w3.org/2000/svg">
<path d="M13.2141 12L19.3664 4.66641C19.4695 4.54453 19.3828 4.35938 19.2234 4.35938H17.3531C17.243 4.35938 17.1375 4.40859 17.0648 4.49297L11.9906 10.5422L6.9164 4.49297C6.84608 4.40859 6.74061 4.35938 6.62811 4.35938H4.7578C4.59843 4.35938 4.51171 4.54453 4.61483 4.66641L10.7672 12L4.61483 19.3336C4.59173 19.3608 4.57691 19.394 4.57213 19.4293C4.56735 19.4647 4.57281 19.5006 4.58786 19.533C4.60292 19.5653 4.62693 19.5926 4.65705 19.6117C4.68718 19.6308 4.72214 19.6408 4.7578 19.6406H6.62811C6.73827 19.6406 6.84374 19.5914 6.9164 19.507L11.9906 13.4578L17.0648 19.507C17.1351 19.5914 17.2406 19.6406 17.3531 19.6406H19.2234C19.3828 19.6406 19.4695 19.4555 19.3664 19.3336L13.2141 12Z" fill="#252625"/>
</svg>
