<svg width="24" height="25" viewBox="0 0 24 25" fill="none" xmlns="http://www.w3.org/2000/svg">
<g clip-path="url(#clip0)">
<path fill-rule="evenodd" clip-rule="evenodd" d="M1 17.8357C1 17.2887 1.2173 16.7641 1.60409 16.3773C1.99089 15.9905 2.51549 15.7732 3.0625 15.7732H4.4375C4.98451 15.7732 5.50911 15.9905 5.89591 16.3773C6.2827 16.7641 6.5 17.2887 6.5 17.8357V19.2107C6.5 19.7577 6.2827 20.2823 5.89591 20.6691C5.50911 21.0559 4.98451 21.2732 4.4375 21.2732H3.0625C2.51549 21.2732 1.99089 21.0559 1.60409 20.6691C1.2173 20.2823 1 19.7577 1 19.2107L1 17.8357ZM3.0625 17.1482C2.88016 17.1482 2.7053 17.2206 2.57636 17.3496C2.44743 17.4785 2.375 17.6534 2.375 17.8357V19.2107C2.375 19.393 2.44743 19.5679 2.57636 19.6968C2.7053 19.8258 2.88016 19.8982 3.0625 19.8982H4.4375C4.61984 19.8982 4.7947 19.8258 4.92364 19.6968C5.05257 19.5679 5.125 19.393 5.125 19.2107V17.8357C5.125 17.6534 5.05257 17.4785 4.92364 17.3496C4.7947 17.2206 4.61984 17.1482 4.4375 17.1482H3.0625ZM9.25 17.8357C9.25 17.2887 9.4673 16.7641 9.85409 16.3773C10.2409 15.9905 10.7655 15.7732 11.3125 15.7732H12.6875C13.2345 15.7732 13.7591 15.9905 14.1459 16.3773C14.5327 16.7641 14.75 17.2887 14.75 17.8357V19.2107C14.75 19.7577 14.5327 20.2823 14.1459 20.6691C13.7591 21.0559 13.2345 21.2732 12.6875 21.2732H11.3125C10.7655 21.2732 10.2409 21.0559 9.85409 20.6691C9.4673 20.2823 9.25 19.7577 9.25 19.2107V17.8357ZM11.3125 17.1482C11.1302 17.1482 10.9553 17.2206 10.8264 17.3496C10.6974 17.4785 10.625 17.6534 10.625 17.8357V19.2107C10.625 19.393 10.6974 19.5679 10.8264 19.6968C10.9553 19.8258 11.1302 19.8982 11.3125 19.8982H12.6875C12.8698 19.8982 13.0447 19.8258 13.1736 19.6968C13.3026 19.5679 13.375 19.393 13.375 19.2107V17.8357C13.375 17.6534 13.3026 17.4785 13.1736 17.3496C13.0447 17.2206 12.8698 17.1482 12.6875 17.1482H11.3125ZM17.5 17.8357C17.5 17.2887 17.7173 16.7641 18.1041 16.3773C18.4909 15.9905 19.0155 15.7732 19.5625 15.7732H20.9375C21.4845 15.7732 22.0091 15.9905 22.3959 16.3773C22.7827 16.7641 23 17.2887 23 17.8357V19.2107C23 19.7577 22.7827 20.2823 22.3959 20.6691C22.0091 21.0559 21.4845 21.2732 20.9375 21.2732H19.5625C19.0155 21.2732 18.4909 21.0559 18.1041 20.6691C17.7173 20.2823 17.5 19.7577 17.5 19.2107V17.8357ZM19.5625 17.1482C19.3802 17.1482 19.2053 17.2206 19.0764 17.3496C18.9474 17.4785 18.875 17.6534 18.875 17.8357V19.2107C18.875 19.393 18.9474 19.5679 19.0764 19.6968C19.2053 19.8258 19.3802 19.8982 19.5625 19.8982H20.9375C21.1198 19.8982 21.2947 19.8258 21.4236 19.6968C21.5526 19.5679 21.625 19.393 21.625 19.2107V17.8357C21.625 17.6534 21.5526 17.4785 21.4236 17.3496C21.2947 17.2206 21.1198 17.1482 20.9375 17.1482H19.5625ZM9.25 6.83569C9.25 6.28868 9.4673 5.76408 9.85409 5.37729C10.2409 4.99049 10.7655 4.77319 11.3125 4.77319H12.6875C13.2345 4.77319 13.7591 4.99049 14.1459 5.37729C14.5327 5.76408 14.75 6.28868 14.75 6.83569V8.21069C14.75 8.7577 14.5327 9.28231 14.1459 9.6691C13.7591 10.0559 13.2345 10.2732 12.6875 10.2732H11.3125C10.7655 10.2732 10.2409 10.0559 9.85409 9.6691C9.4673 9.28231 9.25 8.7577 9.25 8.21069V6.83569ZM11.3125 6.14819C11.1302 6.14819 10.9553 6.22063 10.8264 6.34956C10.6974 6.47849 10.625 6.65336 10.625 6.83569V8.21069C10.625 8.39303 10.6974 8.5679 10.8264 8.69683C10.9553 8.82576 11.1302 8.89819 11.3125 8.89819H12.6875C12.8698 8.89819 13.0447 8.82576 13.1736 8.69683C13.3026 8.5679 13.375 8.39303 13.375 8.21069V6.83569C13.375 6.65336 13.3026 6.47849 13.1736 6.34956C13.0447 6.22063 12.8698 6.14819 12.6875 6.14819H11.3125Z" fill="#252625"/>
<path fill-rule="evenodd" clip-rule="evenodd" d="M12.0776 9.18097C12.2599 9.18097 12.5715 9.18098 12.5715 9.18098C12.5715 9.18098 12.5715 9.34086 12.5715 9.5232V11.6482H20.25C20.4323 11.6482 20.6072 11.7206 20.7361 11.8496C20.8651 11.9785 20.9375 12.1534 20.9375 12.3357V13.7107C20.9375 13.893 20.9375 14.3982 20.9375 14.3982C20.9375 14.3982 20.4323 14.3982 20.25 14.3982C20.0677 14.3982 19.748 14.3982 19.748 14.3982C19.748 14.3982 19.748 13.893 19.748 13.7107V12.8138H12.5715V13.7107C12.5715 13.893 12.5715 14.3982 12.5715 14.3982C12.5715 14.3982 12.1823 14.3982 12 14.3982C11.8177 14.3982 11.8867 14.3982 11.5139 14.3982C11.5139 14.1968 11.5139 13.893 11.5139 13.7107V12.8138H4.18961V13.7107C4.18961 13.893 4.18961 14.3982 4.18961 14.3982C4.18961 14.3982 3.93234 14.3982 3.75001 14.3982C3.56767 14.3982 3.0625 14.3982 3.0625 14.3982C3.0625 14.3982 3.06251 13.893 3.06251 13.7107V12.3357C3.06251 12.1534 3.13494 11.9785 3.26387 11.8496C3.3928 11.7206 3.56767 11.6482 3.75001 11.6482H11.5139V9.58569C11.5139 9.40336 11.5139 9.18097 11.5139 9.18097C11.5139 9.18097 11.8952 9.18097 12.0776 9.18097Z" fill="#252625"/>
</g>
<defs>
<clipPath id="clip0">
<rect width="24" height="24" fill="white" transform="translate(0 0.773193)"/>
</clipPath>
</defs>
</svg>
