<svg width="24" height="24" viewBox="0 0 24 24" fill="none" xmlns="http://www.w3.org/2000/svg">
<rect width="24" height="24" rx="12" transform="matrix(1 0 0 -1 0 24)" fill="#F5F7FF"/>
<g clip-path="url(#clip0)">
<path d="M14.6408 8.58567L16.0316 7.18135L16.1243 6.59004C13.5898 4.2631 9.561 4.52695 7.27625 7.14058C6.64169 7.8665 6.17088 8.77152 5.91982 9.70606L6.41794 9.6352L9.1995 9.17199L9.41425 8.9503C10.6516 7.57823 12.7436 7.39364 14.1723 8.56105L14.6408 8.58567Z" fill="#EA4335"/>
<path d="M18.0128 9.66475C17.6932 8.47607 17.0368 7.40747 16.1243 6.59006L14.1723 8.56101C14.5791 8.89664 14.9051 9.32117 15.1257 9.80258C15.3464 10.284 15.4559 10.8097 15.4459 11.34V11.6899C16.4053 11.6899 17.1833 12.4753 17.1833 13.444C17.1833 14.4128 16.4054 15.1785 15.4459 15.1785H11.9665L11.6249 15.553V17.657L11.9665 17.9871H15.4459C17.9415 18.0067 19.9804 15.9996 19.9999 13.4797C20.0057 12.7278 19.8273 11.986 19.4806 11.3204C19.134 10.6548 18.6297 10.0861 18.0128 9.66475Z" fill="#4285F4"/>
<path d="M8.49187 17.9871H11.9664V15.1785H8.49187C8.24591 15.1785 8.00287 15.1247 7.77943 15.0209L7.28649 15.1736L5.88593 16.5779L5.76393 17.0559C6.54937 17.6547 7.50768 17.9914 8.49187 17.9871Z" fill="#34A853"/>
<path d="M8.49188 8.87634C5.99626 8.89142 3.98519 10.9464 4.00007 13.4664C4.00417 14.1607 4.16519 14.845 4.47086 15.4671C4.77654 16.0891 5.21879 16.6325 5.76394 17.0559L7.77944 15.0209C6.90507 14.622 6.51644 13.583 6.91151 12.7001C7.30651 11.8172 8.33563 11.4248 9.20995 11.8237C9.59524 11.9994 9.90383 12.3111 10.0779 12.7001L12.0934 10.665C11.6704 10.1066 11.1251 9.6546 10.5004 9.34429C9.87557 9.03399 9.18816 8.87383 8.49188 8.87634Z" fill="#FBBC05"/>
</g>
<defs>
<clipPath id="clip0">
<rect width="16" height="13" fill="white" transform="translate(4 5)"/>
</clipPath>
</defs>
</svg>
