<svg xmlns="http://www.w3.org/2000/svg" width="16" height="16">
  <path d="m7.177,3.073l2.396,-2.396a0.25,0.25 0 0 1 0.427,0.177l0,4.792a0.25,0.25 0 0 1 -0.427,0.177l-2.396,-2.396a0.25,0.25 0 0 1 0,-0.354zm-3.427,-0.573a0.75,0.75 0 1 0 0,1.5a0.75,0.75 0 0 0 0,-1.5zm-2.25,0.75a2.25,2.25 0 1 1 3,2.122l0,5.256a2.251,2.251 0 1 1 -1.5,0l0,-5.256a2.25,2.25 0 0 1 -1.5,-2.122zm9.5,-0.75l-1,0l0,1.5l1,0a1,1 0 0 1 1,1l0,5.628a2.251,2.251 0 1 0 1.5,0l0,-5.628a2.5,2.5 0 0 0 -2.5,-2.5zm1,10.25a0.75,0.75 0 1 1 1.5,0a0.75,0.75 0 0 1 -1.5,0zm-8.25,-0.75a0.75,0.75 0 1 0 0,1.5a0.75,0.75 0 0 0 0,-1.5z"/>
</svg>