<svg width="24" height="24" viewBox="0 0 24 24" fill="none" xmlns="http://www.w3.org/2000/svg">
<path fill-rule="evenodd" clip-rule="evenodd" d="M1 3.35714C1 2.73199 1.24834 2.13244 1.69039 1.69039C2.13244 1.24834 2.73199 1 3.35714 1H8.07143C8.69658 1 9.29613 1.24834 9.73818 1.69039C10.1802 2.13244 10.4286 2.73199 10.4286 3.35714V8.07143C10.4286 8.69658 10.1802 9.29613 9.73818 9.73818C9.29613 10.1802 8.69658 10.4286 8.07143 10.4286H3.35714C2.73199 10.4286 2.13244 10.1802 1.69039 9.73818C1.24834 9.29613 1 8.69658 1 8.07143V3.35714ZM13.5714 3.35714C13.5714 2.73199 13.8198 2.13244 14.2618 1.69039C14.7039 1.24834 15.3034 1 15.9286 1H20.6429C21.268 1 21.8676 1.24834 22.3096 1.69039C22.7517 2.13244 23 2.73199 23 3.35714V8.07143C23 8.69658 22.7517 9.29613 22.3096 9.73818C21.8676 10.1802 21.268 10.4286 20.6429 10.4286H15.9286C15.3034 10.4286 14.7039 10.1802 14.2618 9.73818C13.8198 9.29613 13.5714 8.69658 13.5714 8.07143V3.35714ZM1 15.9286C1 15.3034 1.24834 14.7039 1.69039 14.2618C2.13244 13.8198 2.73199 13.5714 3.35714 13.5714H8.07143C8.69658 13.5714 9.29613 13.8198 9.73818 14.2618C10.1802 14.7039 10.4286 15.3034 10.4286 15.9286V20.6429C10.4286 21.268 10.1802 21.8676 9.73818 22.3096C9.29613 22.7517 8.69658 23 8.07143 23H3.35714C2.73199 23 2.13244 22.7517 1.69039 22.3096C1.24834 21.8676 1 21.268 1 20.6429V15.9286ZM13.5714 15.9286C13.5714 15.3034 13.8198 14.7039 14.2618 14.2618C14.7039 13.8198 15.3034 13.5714 15.9286 13.5714H20.6429C21.268 13.5714 21.8676 13.8198 22.3096 14.2618C22.7517 14.7039 23 15.3034 23 15.9286V20.6429C23 21.268 22.7517 21.8676 22.3096 22.3096C21.8676 22.7517 21.268 23 20.6429 23H15.9286C15.3034 23 14.7039 22.7517 14.2618 22.3096C13.8198 21.8676 13.5714 21.268 13.5714 20.6429V15.9286Z" stroke="#0E0D2C" stroke-width="1.5"/>
</svg>
