<?xml version="1.0" encoding="utf-8" ?>
<!-- Generator: Adobe Illustrator 24.3.0, SVG Export Plug-In . SVG Version: 6.00 Build 0)  -->
<svg
	version="1.1"
	id="Layer_1"
	xmlns="http://www.w3.org/2000/svg"
	xmlns:xlink="http://www.w3.org/1999/xlink"
	x="0px"
	y="0px"
	viewBox="0 0 256 256"
	style="enable-background:new 0 0 256 256;"
	xml:space="preserve"
>
<style type="text/css">
	.st4{fill:none;}
</style>
<g>
	<path
			class="color_2"
			d="M63.16,44.29l7.98,13.81H16.81l27.17-47.05l8.23,14.26c20.75-14.15,45.8-22.44,72.75-22.44
		c30.18,0,57.99,10.38,80.02,27.77c-7.01,2.96-12.32,9.17-14.06,16.72c-18.23-14.19-41.13-22.65-65.97-22.65
		C101.98,24.72,80.66,31.97,63.16,44.29z"
		/>
	<g>
		<path
				class="color_1"
				d="M230.28,41.78l-6.34,6.34c0.68,1.4,1.05,2.97,1.05,4.63c0,5.9-4.79,10.69-10.69,10.69
			c-1.66,0-3.23-0.38-4.63-1.05l-6.34,6.34c3.12,2.14,6.9,3.4,10.98,3.4c10.7,0,19.38-8.68,19.38-19.38
			C233.69,48.68,232.43,44.9,230.28,41.78z M203.63,52.75c0-5.9,4.78-10.69,10.68-10.69c1.48,0,2.89,0.3,4.18,0.85l6.4-6.4
			c-3.04-1.99-6.67-3.14-10.58-3.14c-10.7,0-19.37,8.68-19.37,19.38c0,3.91,1.15,7.54,3.14,10.58l6.4-6.4
			C203.93,55.65,203.63,54.23,203.63,52.75z"
			/>
	</g>
	<path class="st4" d="M222.16,86.21c-0.04-0.07-0.07-0.15-0.1-0.22C222.09,86.06,222.13,86.13,222.16,86.21z" />
	<path
			class="color_2"
			d="M254.4,132.33c0-24.83-7.03-48.05-19.2-67.78c-3.71,6.55-10.41,11.18-18.23,12.05c0,0,2.28,3.35,5.08,9.39
		c0.04,0.07,0.07,0.15,0.1,0.22c0.05,0.1,0.1,0.21,0.14,0.31c2.89,6.11,5.22,12.54,6.92,19.21c3.23,12.66,3.33,24.44,3.33,26.59
		c-0.02,19.72-5.53,34.34-8.17,41.14c-1.72,4.43-3.4,8-4.6,10.4h23.31C251.46,166.77,254.4,152.62,254.4,132.33z"
		/>
	<polygon class="color_2" points="124.17,162.63 170.01,102.43 68.83,183.87 173.69,183.87 186.45,163.36 	" />
	<path d="M222.3,86.52c-0.05-0.11-0.1-0.21-0.14-0.31C222.21,86.31,222.26,86.42,222.3,86.52z" />
	<path
			class="color_1"
			d="M192.84,211.71l-7.98-13.81h54.33l-27.17,47.05l-8.23-14.26c-20.75,14.15-45.8,22.44-72.75,22.44
		c-30.18,0-57.99-10.38-80.02-27.77c7.01-2.96,12.32-9.17,14.06-16.72c18.23,14.19,41.13,22.65,65.97,22.65
		C154.02,231.28,175.34,224.03,192.84,211.71z"
		/>
	<g>
		<g>
			<path
					class="color_2"
					d="M58.27,193.21l-6.5,6.5c0.39,1.11,0.6,2.29,0.6,3.53c0,5.9-4.78,10.69-10.68,10.69c-1.25,0-2.44-0.21-3.55-0.6l-6.5,6.5
				c2.93,1.77,6.37,2.8,10.04,2.8c10.7,0,19.37-8.68,19.37-19.38C61.07,199.57,60.05,196.14,58.27,193.21z M31.01,203.25
				c0-5.9,4.79-10.69,10.69-10.69c1.89,0,3.67,0.49,5.21,1.36l6.28-6.28c-3.21-2.37-7.19-3.77-11.49-3.77
				c-10.7,0-19.38,8.68-19.38,19.38c0,4.3,1.4,8.27,3.77,11.49l6.28-6.28C31.5,206.91,31.01,205.14,31.01,203.25z"
				/>
		</g>
	</g>
	<path class="st4" d="M33.84,169.79c0.04,0.07,0.07,0.15,0.1,0.22C33.91,169.94,33.87,169.87,33.84,169.79z" />
	<path
			class="color_1"
			d="M1.6,123.67c0,24.83,7.03,48.05,19.2,67.78c3.71-6.55,10.41-11.18,18.23-12.05c0,0-2.28-3.35-5.08-9.39
		c-0.04-0.07-0.07-0.15-0.1-0.22c-0.05-0.1-0.1-0.21-0.14-0.31c-2.89-6.11-5.22-12.54-6.92-19.21c-3.23-12.66-3.33-24.44-3.33-26.59
		c0.02-19.72,5.53-34.34,8.17-41.14c1.72-4.43,3.4-8,4.6-10.4H12.9C4.54,89.23,1.6,103.38,1.6,123.67z"
		/>
	<polygon class="color_1" points="131.83,93.37 77.15,162.35 187.17,72.13 82.31,72.13 69.55,92.64 	" />
</g>
</svg>
