<svg width="24" height="26" viewBox="0 0 24 26" fill="none" xmlns="http://www.w3.org/2000/svg">
<path d="M20.71 19.4804L17.31 16.0904C18.407 14.6929 19.0022 12.9671 19 11.1904C19 9.60818 18.5308 8.06146 17.6518 6.74587C16.7727 5.43028 15.5233 4.4049 14.0615 3.7994C12.5997 3.1939 10.9911 3.03547 9.43928 3.34415C7.88743 3.65283 6.46197 4.41476 5.34315 5.53358C4.22433 6.6524 3.4624 8.07786 3.15372 9.62971C2.84504 11.1816 3.00347 12.7901 3.60897 14.2519C4.21447 15.7137 5.23985 16.9631 6.55544 17.8422C7.87103 18.7212 9.41775 19.1904 11 19.1904C12.7767 19.1926 14.5025 18.5974 15.9 17.5004L19.29 20.9004C19.383 20.9942 19.4936 21.0686 19.6154 21.1193C19.7373 21.1701 19.868 21.1962 20 21.1962C20.132 21.1962 20.2627 21.1701 20.3846 21.1193C20.5064 21.0686 20.617 20.9942 20.71 20.9004C20.8037 20.8075 20.8781 20.6969 20.9289 20.575C20.9797 20.4532 21.0058 20.3224 21.0058 20.1904C21.0058 20.0584 20.9797 19.9277 20.9289 19.8059C20.8781 19.684 20.8037 19.5734 20.71 19.4804ZM5 11.1904C5 10.0037 5.3519 8.84371 6.01119 7.85701C6.67047 6.87032 7.60755 6.10128 8.7039 5.64716C9.80026 5.19303 11.0067 5.07421 12.1705 5.30572C13.3344 5.53723 14.4035 6.10868 15.2426 6.94779C16.0818 7.78691 16.6532 8.85601 16.8847 10.0199C17.1162 11.1838 16.9974 12.3902 16.5433 13.4865C16.0892 14.5829 15.3201 15.52 14.3334 16.1793C13.3467 16.8385 12.1867 17.1904 11 17.1904C9.4087 17.1904 7.88258 16.5583 6.75736 15.4331C5.63214 14.3079 5 12.7817 5 11.1904Z" fill="#252625"/>
</svg>
