<svg width="24" height="24" viewBox="0 0 24 24" fill="none" xmlns="http://www.w3.org/2000/svg">
<path d="M9.54416 4.36754L8.83265 4.13037V4.13037L9.54416 4.36754ZM9.12864 5.61412L9.43661 6.29798L9.73623 6.16304L9.84015 5.85129L9.12864 5.61412ZM7.90698 6.32071L7.75662 7.05548L8.07911 7.12147L8.34599 6.9288L7.90698 6.32071ZM6.61804 6.05695L6.46768 6.79172L6.61804 6.05695ZM4.48502 7.01634L5.13454 7.39134L4.48502 7.01634ZM3.92654 7.98366L4.57606 8.35866L3.92654 7.98366ZM4.16219 10.3106L4.72334 9.813H4.72334L4.16219 10.3106ZM5.03508 11.295L5.78135 11.3696L5.81402 11.043L5.59623 10.7974L5.03508 11.295ZM5.03508 12.705L5.59623 13.2026L5.81402 12.957L5.78135 12.6304L5.03508 12.705ZM4.16219 13.6894L3.60104 13.1918H3.60104L4.16219 13.6894ZM3.92654 16.0163L4.57606 15.6413L3.92654 16.0163ZM4.48502 16.9837L5.13454 16.6087L4.48502 16.9837ZM6.61804 17.9431L6.46768 17.2083H6.46767L6.61804 17.9431ZM7.90698 17.6793L8.346 17.0712L8.07911 16.8785L7.75662 16.9445L7.90698 17.6793ZM9.12864 18.3859L9.84015 18.1487L9.73623 17.837L9.43661 17.702L9.12864 18.3859ZM9.54416 19.6325L8.83265 19.8696L9.54416 19.6325ZM14.4559 19.6325L13.7443 19.3953V19.3953L14.4559 19.6325ZM14.8714 18.3859L14.5634 17.702L14.2638 17.837L14.1599 18.1487L14.8714 18.3859ZM16.093 17.6793L16.2434 16.9445L15.9209 16.8785L15.654 17.0712L16.093 17.6793ZM17.382 17.9431L17.2316 18.6778L17.382 17.9431ZM19.515 16.9837L18.8655 16.6087L19.515 16.9837ZM20.0735 16.0163L20.723 16.3913V16.3913L20.0735 16.0163ZM19.8378 13.6894L19.2767 14.187H19.2767L19.8378 13.6894ZM18.9649 12.705L18.2187 12.6304L18.186 12.957L18.4038 13.2026L18.9649 12.705ZM18.9649 11.295L18.4038 10.7974L18.186 11.043L18.2187 11.3696L18.9649 11.295ZM19.8378 10.3106L20.399 10.8082L19.8378 10.3106ZM20.0735 7.98366L19.424 8.35866V8.35866L20.0735 7.98366ZM19.515 7.01634L20.1645 6.64134V6.64134L19.515 7.01634ZM17.382 6.05695L17.2316 5.32217L17.382 6.05695ZM16.093 6.32071L15.654 6.92879L15.9209 7.12147L16.2434 7.05548L16.093 6.32071ZM14.8714 5.61412L14.1599 5.85129L14.2638 6.16304L14.5634 6.29798L14.8714 5.61412ZM14.4559 4.36754L13.7443 4.60471V4.60472L14.4559 4.36754ZM10.2557 4.60472C10.4258 4.09429 10.9035 3.75 11.4415 3.75V2.25C10.2578 2.25 9.20696 3.00743 8.83265 4.13037L10.2557 4.60472ZM9.84015 5.85129L10.2557 4.60472L8.83265 4.13037L8.41712 5.37695L9.84015 5.85129ZM8.34599 6.9288C8.6857 6.68354 9.05085 6.4717 9.43661 6.29798L8.82067 4.93027C8.34176 5.14594 7.8889 5.40873 7.46797 5.71262L8.34599 6.9288ZM6.46768 6.79172L7.75662 7.05548L8.05734 5.58594L6.7684 5.32217L6.46768 6.79172ZM5.13454 7.39134C5.40356 6.92539 5.94056 6.68385 6.46768 6.79172L6.7684 5.32217C5.60874 5.08487 4.42735 5.61624 3.83551 6.64134L5.13454 7.39134ZM4.57606 8.35866L5.13454 7.39134L3.83551 6.64134L3.27702 7.60866L4.57606 8.35866ZM4.72334 9.813C4.36637 9.41044 4.30704 8.82461 4.57606 8.35866L3.27702 7.60866C2.68518 8.63376 2.8157 9.92257 3.60104 10.8082L4.72334 9.813ZM5.59623 10.7974L4.72334 9.813L3.60104 10.8082L4.47392 11.7926L5.59623 10.7974ZM5.75001 12C5.75001 11.787 5.76064 11.5767 5.78135 11.3696L4.2888 11.2203C4.26313 11.477 4.25001 11.7371 4.25001 12H5.75001ZM5.78135 12.6304C5.76064 12.4233 5.75001 12.213 5.75001 12H4.25001C4.25001 12.2629 4.26313 12.523 4.2888 12.7797L5.78135 12.6304ZM4.72334 14.187L5.59623 13.2026L4.47392 12.2074L3.60104 13.1918L4.72334 14.187ZM4.57606 15.6413C4.30704 15.1754 4.36637 14.5896 4.72334 14.187L3.60104 13.1918C2.8157 14.0774 2.68518 15.3662 3.27702 16.3913L4.57606 15.6413ZM5.13454 16.6087L4.57606 15.6413L3.27702 16.3913L3.8355 17.3587L5.13454 16.6087ZM6.46767 17.2083C5.94056 17.3161 5.40356 17.0746 5.13454 16.6087L3.8355 17.3587C4.42735 18.3838 5.60874 18.9151 6.7684 18.6778L6.46767 17.2083ZM7.75662 16.9445L6.46768 17.2083L6.7684 18.6778L8.05734 18.4141L7.75662 16.9445ZM9.43661 17.702C9.05085 17.5283 8.6857 17.3165 8.346 17.0712L7.46797 18.2874C7.8889 18.5913 8.34176 18.8541 8.82067 19.0697L9.43661 17.702ZM10.2557 19.3953L9.84015 18.1487L8.41712 18.623L8.83265 19.8696L10.2557 19.3953ZM11.4415 20.25C10.9035 20.25 10.4258 19.9057 10.2557 19.3953L8.83265 19.8696C9.20696 20.9926 10.2578 21.75 11.4415 21.75V20.25ZM12.5585 20.25H11.4415V21.75H12.5585V20.25ZM13.7443 19.3953C13.5742 19.9057 13.0965 20.25 12.5585 20.25V21.75C13.7422 21.75 14.7931 20.9926 15.1674 19.8696L13.7443 19.3953ZM14.1599 18.1487L13.7443 19.3953L15.1674 19.8696L15.5829 18.623L14.1599 18.1487ZM15.654 17.0712C15.3143 17.3165 14.9492 17.5283 14.5634 17.702L15.1794 19.0697C15.6583 18.8541 16.1111 18.5913 16.5321 18.2874L15.654 17.0712ZM17.5323 17.2083L16.2434 16.9445L15.9427 18.4141L17.2316 18.6778L17.5323 17.2083ZM18.8655 16.6087C18.5965 17.0746 18.0595 17.3161 17.5323 17.2083L17.2316 18.6778C18.3913 18.9151 19.5727 18.3838 20.1645 17.3587L18.8655 16.6087ZM19.424 15.6413L18.8655 16.6087L20.1645 17.3587L20.723 16.3913L19.424 15.6413ZM19.2767 14.187C19.6337 14.5896 19.693 15.1754 19.424 15.6413L20.723 16.3913C21.3148 15.3662 21.1843 14.0774 20.399 13.1918L19.2767 14.187ZM18.4038 13.2026L19.2767 14.187L20.399 13.1918L19.5261 12.2074L18.4038 13.2026ZM18.25 12C18.25 12.213 18.2394 12.4233 18.2187 12.6304L19.7112 12.7797C19.7369 12.523 19.75 12.2629 19.75 12H18.25ZM18.2187 11.3696C18.2394 11.5767 18.25 11.787 18.25 12H19.75C19.75 11.7371 19.7369 11.477 19.7112 11.2203L18.2187 11.3696ZM19.2767 9.813L18.4038 10.7974L19.5261 11.7926L20.399 10.8082L19.2767 9.813ZM19.424 8.35866C19.693 8.82461 19.6337 9.41043 19.2767 9.813L20.399 10.8082C21.1843 9.92257 21.3148 8.63376 20.723 7.60866L19.424 8.35866ZM18.8655 7.39134L19.424 8.35866L20.723 7.60866L20.1645 6.64134L18.8655 7.39134ZM17.5323 6.79172C18.0595 6.68385 18.5965 6.92539 18.8655 7.39134L20.1645 6.64134C19.5727 5.61624 18.3913 5.08487 17.2316 5.32217L17.5323 6.79172ZM16.2434 7.05548L17.5323 6.79172L17.2316 5.32217L15.9427 5.58594L16.2434 7.05548ZM14.5634 6.29798C14.9492 6.4717 15.3143 6.68354 15.654 6.92879L16.5321 5.71262C16.1111 5.40873 15.6583 5.14594 15.1794 4.93027L14.5634 6.29798ZM13.7443 4.60472L14.1599 5.85129L15.5829 5.37695L15.1674 4.13037L13.7443 4.60472ZM12.5585 3.75C13.0965 3.75 13.5742 4.09429 13.7443 4.60471L15.1674 4.13037C14.7931 3.00743 13.7422 2.25 12.5585 2.25V3.75ZM11.4415 3.75H12.5585V2.25H11.4415V3.75Z" fill="#4F4F4F"/>
<path fill-rule="evenodd" clip-rule="evenodd" d="M12 13C12.5523 13 13 12.5523 13 12C13 11.4477 12.5523 11 12 11C11.4477 11 11 11.4477 11 12C11 12.5523 11.4477 13 12 13Z" stroke="#4F4F4F" stroke-width="1.5"/>
</svg>
