<svg width="16" height="16" viewBox="0 0 16 16" fill="none" xmlns="http://www.w3.org/2000/svg">
    <path d="M14.344 4.45916C14.1371 3.97793 13.8388 3.54185 13.4658 3.17532C13.0925 2.80769 12.6524 2.51555 12.1694 2.31477C11.6685 2.10575 11.1313 1.99876 10.5889 2.00001C9.82805 2.00001 9.08568 2.20933 8.44055 2.60472C8.28621 2.6993 8.13959 2.80319 8.00068 2.91638C7.86178 2.80319 7.71516 2.6993 7.56082 2.60472C6.91568 2.20933 6.17331 2.00001 5.41242 2.00001C4.86452 2.00001 4.3336 2.10545 3.83199 2.31477C3.34737 2.51634 2.91059 2.80629 2.53555 3.17532C2.16205 3.54143 1.86368 3.97762 1.65736 4.45916C1.44283 4.95999 1.33325 5.49182 1.33325 6.03916C1.33325 6.55549 1.4382 7.09352 1.64656 7.64086C1.82096 8.09827 2.07099 8.57273 2.39047 9.05185C2.8967 9.81006 3.59277 10.6008 4.45707 11.4025C5.88933 12.7313 7.3077 13.6492 7.36789 13.6864L7.73368 13.9221C7.89573 14.026 8.10409 14.026 8.26614 13.9221L8.63193 13.6864C8.69212 13.6476 10.1089 12.7313 11.5428 11.4025C12.4071 10.6008 13.1031 9.81006 13.6094 9.05185C13.9288 8.57273 14.1804 8.09827 14.3533 7.64086C14.5616 7.09352 14.6666 6.55549 14.6666 6.03916C14.6681 5.49182 14.5585 4.95999 14.344 4.45916Z" fill="#47C9A7"/>
</svg>
