<svg width="17" height="17" viewBox="0 0 17 17" fill="none" xmlns="http://www.w3.org/2000/svg">
    <path fill-rule="evenodd" clip-rule="evenodd" d="M13.8293 4.14593C14.1929 4.5033 14.4838 4.92848 14.6855 5.39768C14.8947 5.88598 15.0015 6.40452 15 6.93818C15 7.4416 14.8977 7.96618 14.6945 8.49984C14.526 8.94581 14.2807 9.40842 13.9692 9.87555C13.4756 10.6148 12.797 11.3858 11.9543 12.1674C10.5563 13.463 9.1749 14.3564 9.11621 14.3942L8.75958 14.624C8.60157 14.7253 8.39842 14.7253 8.24042 14.624L7.88378 14.3942C7.82509 14.358 6.44218 13.463 5.04572 12.1674C4.20303 11.3858 3.52437 10.6148 3.03079 9.87555C2.7193 9.40842 2.47552 8.94581 2.30548 8.49984C2.10233 7.96618 2.00001 7.4416 2.00001 6.93818C2.00001 6.40452 2.10685 5.88598 2.31601 5.39768C2.51717 4.92818 2.80808 4.5029 3.17225 4.14593C3.53791 3.78613 3.96377 3.50343 4.43628 3.3069C4.92534 3.10281 5.44299 3.00001 5.9772 3.00001C6.71906 3.00001 7.44287 3.2041 8.07188 3.5896C8.22236 3.68182 8.36532 3.78311 8.50075 3.89347C8.63618 3.78311 8.77914 3.68182 8.92962 3.5896C9.55863 3.2041 10.2824 3.00001 11.0243 3.00001C11.5531 2.99879 12.0769 3.1031 12.5652 3.3069C13.0362 3.50266 13.4653 3.7875 13.8293 4.14593ZM7.72982 7.511H7.00034C6.98266 6.46042 7.79006 6.10002 8.52285 6.10002C9.29489 6.10002 10.0001 6.50666 10.0001 7.34835C10.0001 7.94939 9.64913 8.23571 9.31257 8.49362C8.90528 8.80501 8.75441 8.92143 8.75441 9.32139V9.51914H8.03211L8.02824 9.26123C8.00724 8.74485 8.3018 8.42678 8.67372 8.15439C9.00033 7.90706 9.20702 7.7444 9.20702 7.39068C9.20702 6.93112 8.85996 6.74006 8.48141 6.74006C7.98293 6.74006 7.72982 7.07595 7.72982 7.511ZM8.42172 11.1C8.09843 11.1 7.86356 10.8805 7.86356 10.5836C7.86356 10.2762 8.09843 10.06 8.42117 10.06C8.75773 10.06 8.98983 10.2762 8.98983 10.5836C8.98983 10.8805 8.75828 11.1 8.42172 11.1Z" fill="#8D8D8D"/>
</svg>
