<?xml version="1.0" encoding="UTF-8" standalone="no"?>
<!-- Generator: Adobe Illustrator 25.4.1, SVG Export Plug-In . SVG Version: 6.00 Build 0)  -->

<svg
   version="1.1"
   id="Layer_1"
   x="0px"
   y="0px"
   viewBox="0 0 1280 720"
   xml:space="preserve"
   width="1280"
   height="720">
<style
   type="text/css"
   id="style10432">
	.st0{fill:#53FDCA;}
	.st1{fill:#ffffff;}
</style>

<g
   id="g10502"
   transform="matrix(1.5795741,0,0,1.5795741,-372.99618,-656.27805)">
	<g
   id="g10476">
		<path
   class="st1"
   d="m 566,505.4 c 4.4,-6.1 9.9,-11.6 16.1,-16 6.2,-4.4 13.2,-7.9 20.6,-10.1 3.7,-1.1 7.5,-1.9 11.4,-2.4 3.9,-0.5 7.8,-0.6 11.7,-0.6 7.9,0.2 15.7,1.3 23.4,3.4 3.8,1 7.6,2.3 11.2,3.9 3.7,1.5 7.2,3.3 10.6,5.4 6.8,4.1 12.9,9.5 17.5,16.1 -4.2,-6.8 -10.1,-12.6 -16.8,-17.1 -3.3,-2.3 -6.9,-4.3 -10.5,-6.1 -3.6,-1.8 -7.4,-3.3 -11.3,-4.6 -7.7,-2.6 -15.8,-4.2 -23.9,-4.8 -4.1,-0.3 -8.2,-0.4 -12.3,-0.1 -4.1,0.3 -8.2,0.9 -12.3,1.9 -8.1,1.9 -15.9,5.2 -23,9.7 -7.1,4.5 -13.5,10.1 -18.8,16.7 -5.3,6.6 -9.6,14 -12.6,22 -3,8 -4.6,16.5 -4.8,25.1 v 0 c 0,0.1 0,0.2 0,0.3 0.1,3 2.6,5.3 5.6,5.2 3,-0.1 5.3,-2.6 5.2,-5.6 -0.2,-7.4 0.8,-14.9 2.9,-22.1 2.3,-7.2 5.7,-14.1 10.1,-20.2 z"
   id="path10436" />
		<path
   class="st1"
   d="m 697.3,501.2 c -2.3,-3.4 -4.9,-6.6 -7.6,-9.6 -4.1,-4.5 -8.7,-8.7 -13.7,-12.3 -3.6,-2.6 -7.3,-5 -11.1,-7 -2.5,-1.3 -5,-2.5 -7.4,-3.5 -1.6,-0.7 -3.4,-1.4 -5.2,-2 -1,-0.3 -2,-0.7 -3.1,-1 -2.5,-0.8 -5,-1.4 -7.4,-2 -3.4,-0.8 -6.9,-1.3 -10.4,-1.7 -1,-0.1 -2.1,-0.2 -3.4,-0.3 -1.1,-0.1 -2.2,-0.1 -3.3,-0.2 -5.3,-0.2 -10.7,0.2 -16,0.9 -1.4,0.2 -2.8,0.4 -4.2,0.7 -4.3,0.8 -8.5,2 -12.5,3.4 -1.7,0.6 -3.3,1.2 -4.8,1.8 -3.5,1.4 -6.9,3.1 -10.2,5 -1.7,1 -3.3,2 -4.9,3 -0.4,0.3 -0.8,0.5 -1.2,0.8 -6.9,4.7 -13.1,10.2 -18.5,16.6 -1.7,2 -3.2,4 -4.7,6 -3.2,4.5 -6,9.2 -8.3,14.2 -0.4,0.9 -0.8,1.7 -1.1,2.5 -1.9,4.5 -3.5,9.1 -4.7,13.8 -1.6,6.2 -2.5,12.6 -2.7,19.1 l -0.2,5.2 h -5.3 c -23.6,0 -42.8,19.2 -42.8,42.8 0,20.5 14.5,37.7 33.8,41.8 l -12.5,7.2 c -18.9,-8.3 -32.1,-27.2 -32.1,-49.1 0,-27.9 21.4,-50.8 48.6,-53.4 0.5,-5.5 1.4,-11 2.7,-16.4 1.3,-5.2 3.1,-10.4 5.2,-15.4 0.4,-0.8 0.8,-1.7 1.2,-2.7 2.6,-5.6 5.7,-10.9 9.3,-15.9 1.6,-2.3 3.4,-4.5 5.2,-6.8 6,-7.1 13,-13.3 20.7,-18.6 0.4,-0.3 0.9,-0.6 1.3,-0.9 1.7,-1.1 3.6,-2.3 5.5,-3.4 3.7,-2.1 7.5,-4 11.3,-5.5 1.7,-0.7 3.5,-1.4 5.4,-2.1 4.5,-1.6 9.2,-2.9 14,-3.8 1.6,-0.3 3.2,-0.6 4.7,-0.8 5.9,-0.9 11.9,-1.2 17.8,-1 1.2,0 2.5,0.1 3.7,0.2 1.5,0.1 2.7,0.2 3.8,0.3 3.9,0.4 7.8,1 11.6,1.9 2.7,0.6 5.5,1.3 8.2,2.2 1.2,0.4 2.4,0.8 3.5,1.2 2,0.7 4,1.5 5.8,2.2 2.7,1.1 5.5,2.5 8.3,4 4.3,2.3 8.5,4.9 12.4,7.8 5.5,4.1 10.7,8.7 15.3,13.8 2.6,2.9 5.1,6.1 7.5,9.3 z"
   id="path10438" />
		<path
   class="st1"
   d="m 757.7,508.4 c -5.8,-2.8 -12,-4.9 -18.6,-6 -4.7,-0.7 -9.4,-1 -14.2,-0.9 l 2.9,-2.6 8.7,-7.8 c 4.2,0.5 8.2,1.3 12,2.4 v 0 c 0.1,0 0.2,0.1 0.3,0.1 0.2,0 0.4,0.1 0.6,0.1 v 0 c 7,2 13.6,4.9 19.7,8.6 z"
   id="path10440" />
		<g
   id="g10468">
			<path
   class="st0"
   d="m 645.9,640.2 c 0.1,-4.7 0.6,-7.1 1.2,-9.8 0.7,-3.2 1.5,-6.8 1.5,-13.6 0,-0.7 0,-1.4 0,-2.1 -4.7,-0.2 -7.7,-0.9 -10.3,-1.4 -0.2,0 -0.3,-0.1 -0.5,-0.1 0.1,1.1 0.1,2.3 0.1,3.6 0,5.6 -0.6,8.3 -1.2,11.3 -0.6,2.9 -1.3,6.2 -1.5,12 v 0.1 h -28.3 c 0,0 0,0.1 0,0.1 0,3.6 0.6,8.3 1,10.7 h 27.9 2.1 3.3 5.5 c -0.3,-1.7 -0.8,-5.1 -0.8,-9.3 0,-0.5 0,-0.9 0,-1.4 z"
   id="path10442" />
			<path
   class="st0"
   d="m 713.5,600.1 c -3,0.7 -5.7,1.2 -11.3,1.2 -5.7,0 -8.3,-0.6 -11.3,-1.2 -0.2,0 -0.4,-0.1 -0.6,-0.1 0.2,0.9 0.3,1.7 0.5,2.6 v 0.1 c 0.5,2.3 1.1,4.9 1.3,8.7 2.5,0.4 5.6,0.8 10,0.8 6.8,0 10.4,-0.8 13.6,-1.5 3,-0.7 5.7,-1.2 11.3,-1.2 5.6,0 8.3,0.6 11.3,1.2 3.2,0.7 6.8,1.5 13.6,1.5 2.4,0 4.4,-0.1 6.1,-0.3 -0.2,-2 -0.5,-3.5 -0.8,-5 L 757,606 c -0.3,-1.4 -0.6,-2.9 -0.9,-4.8 -1.2,0.1 -2.6,0.1 -4.2,0.1 -5.7,0 -8.3,-0.6 -11.3,-1.2 -3.2,-0.7 -6.8,-1.5 -13.6,-1.5 -6.7,0 -10.3,0.8 -13.5,1.5 z"
   id="path10444" />
			<path
   class="st0"
   d="m 806.8,561 c -5.6,0 -13.3,-1.3 -16.3,-1.9 -3.2,-0.7 -6.8,-1.5 -13.6,-1.5 -6.8,0 -10.4,0.8 -13.6,1.5 -2.2,0.5 -4.1,0.9 -7.1,1.1 v 0 c -0.3,0 -0.6,0 -0.9,0.1 0,0 -0.1,0 -0.1,0 -0.3,0 -0.6,0 -0.9,0 -0.1,0 -0.1,0 -0.2,0 -0.3,0 -0.5,0 -0.8,0 -0.1,0 -0.2,0 -0.2,0 -0.4,0 -0.7,0 -1.1,0 0,0 0,0 0,0 -5.7,0 -8.3,-0.6 -11.3,-1.2 -0.2,-0.1 -0.5,-0.1 -0.7,-0.2 -0.1,0 -0.1,0 -0.2,0 -0.2,0 -0.4,-0.1 -0.7,-0.1 0,0 -0.1,0 -0.1,0 -0.6,-0.1 -1.1,-0.2 -1.7,-0.3 0,0 -0.1,0 -0.1,0 -0.3,-0.1 -0.6,-0.1 -0.9,-0.2 0,0 0,0 0,0 -0.7,-0.1 -1.4,-0.2 -2.2,-0.3 0,0 -0.1,0 -0.1,0 -0.4,0 -0.7,-0.1 -1.1,-0.1 0.2,1.3 0.4,2.9 0.5,4.7 0.1,1.4 0.1,2.9 0.1,4.4 0,0.6 0,1.2 0,1.7 1.9,0.2 3.4,0.5 5,0.9 0,0 0,0 0,0 1.2,0.3 2.4,0.5 3.8,0.7 1.2,0.2 2.6,0.4 4.3,0.5 0.3,0 0.6,0 1,0.1 1.3,0.1 2.8,0.1 4.5,0.1 0,0 0,0 0,0 0.5,0 1.1,0 1.6,0 0.1,0 0.2,0 0.4,0 0.4,0 0.9,0 1.3,0 0,0 0.1,0 0.1,0 4.7,-0.2 7.7,-0.8 10.3,-1.4 3,-0.7 5.7,-1.2 11.3,-1.2 5.7,0 8.3,0.6 11.3,1.2 1.6,0.4 4.8,0.9 8.4,1.3 0,9.8 -2.1,19.1 -5.7,27.5 0.4,0.1 0.9,0.2 1.3,0.3 0.1,0 0.2,0 0.3,0.1 2.7,0.6 5,1.1 9.4,1.2 3.5,-8.9 5.4,-18.6 5.5,-28.7 0,0 0,0 0,0 0,-3 -0.3,-6.6 -0.8,-10.3 z"
   id="path10446" />
			<path
   class="st0"
   d="m 687,640.4 c 0,0.4 0,0.8 0,1.3 0,4.2 0.5,7.6 0.8,9.3 h -38.9 c -0.3,-2.4 -0.9,-7 -0.9,-10.7 v -0.1 h 28.3 v -0.1 c 0.1,-5.8 0.8,-9.1 1.5,-12 0.7,-3 1.2,-5.7 1.2,-11.3 0,-5.6 -0.6,-8.3 -1.2,-11.3 v -0.1 c -0.6,-2.9 -1.3,-6.2 -1.4,-12 0,-0.1 0,-0.2 0,-0.3 0,0 0,0 0,0 0,-0.4 0,-0.8 0,-1.2 0,-0.5 0,-1 0,-1.5 0,0 0,0 0,0 0,-0.5 0,-0.9 0,-1.3 0,-0.1 0,-0.1 0,-0.2 0,-0.4 0,-0.7 0,-1 0,-0.1 0,-0.1 0,-0.2 0,-0.3 0,-0.7 0.1,-1 v -0.1 c 0.1,-0.7 0.1,-1.4 0.2,-2.1 v -0.3 c 0,-0.2 0.1,-0.4 0.1,-0.6 0,-0.1 0,-0.2 0,-0.3 0,-0.2 0,-0.4 0.1,-0.5 0,-0.1 0,-0.1 0,-0.2 0.3,-1.6 0.5,-2.9 0.8,-4.2 0.4,-1.8 0.8,-3.5 1,-5.8 l 1.1,-0.6 1.3,-0.7 v 0 c 3,0.2 4.8,0.6 7,1.1 0.5,0.1 0.9,0.2 1.4,0.3 -0.3,3.5 -0.8,5.8 -1.3,8 -0.7,3 -1.2,5.7 -1.2,11.3 0,1.5 0,2.8 0.1,3.9 0.2,3.2 0.6,5.2 1.1,7.3 v 0.1 c 0.7,3.2 1.5,6.8 1.5,13.6 0,6.8 -0.8,10.4 -1.5,13.6 -0.6,2.8 -1.1,5.2 -1.2,9.8 z"
   id="path10448" />
			<path
   class="st0"
   d="m 771.8,616.8 c 0,-6.2 -0.6,-9.7 -1.3,-12.7 l -0.2,-0.9 c -0.6,-2.9 -1.2,-5.7 -1.2,-11.3 0,-5.6 0.6,-8.3 1.2,-11.3 0.5,-2.4 1.1,-5.1 1.3,-9.3 -2.1,0.2 -3.7,0.5 -5.5,0.9 -1.6,0.4 -3.4,0.7 -5.5,1 -0.2,1.9 -0.6,3.4 -0.9,5.1 -0.7,3.2 -1.5,6.8 -1.5,13.6 0,6.8 0.8,10.4 1.5,13.6 l 0.2,0.9 c 0.5,2.6 1,5.3 1,10.5 0,5.7 -0.6,8.4 -1.2,11 l -0.1,0.3 c -0.3,1.3 -0.6,2.7 -0.8,4.4 -4.6,2.4 -9.5,4.3 -14.7,5.6 v 0 c -3.6,0.9 -7.3,1.5 -11.1,1.9 -1,0.1 -2,0.1 -3,0.2 0,0.1 0,0.1 0,0.2 0,3.8 0.5,8.4 0.9,10.6 3.7,-0.2 7.3,-0.6 10.8,-1.2 5.8,-1.1 11.3,-2.7 16.6,-5 v 0 l 0.5,-0.2 c 0.5,-0.2 0.9,-0.4 1.4,-0.6 v 0 l 3.5,-1.6 c 1.9,-0.9 3.7,-2 5.4,-3.1 0.1,-4 0.6,-6.3 1.2,-8.8 l 0.1,-0.3 c 0.4,-1.8 0.8,-3.6 1,-5.8 0.2,-2.2 0.4,-4.6 0.4,-7.7 z"
   id="path10450" />
			<path
   class="st0"
   d="m 790.2,600 c -3.1,-0.7 -6.7,-1.4 -13.3,-1.4 -1.8,0 -3.3,0.1 -4.7,0.1 0.2,1.4 0.5,2.6 0.7,3.8 l 0.2,0.9 c 0.4,1.7 0.7,3.6 1,6 0.9,0 1.8,-0.1 2.8,-0.1 3.4,0 5.7,0.2 7.6,0.5 -3.2,4.7 -6.9,8.9 -11.1,12.7 0,0.1 0,0.3 0,0.4 -0.3,2.2 -0.6,4 -1,5.8 l -0.1,0.3 c -0.5,2.3 -1.1,5.2 -1.3,8.9 0.8,-0.6 1.7,-1.1 2.5,-1.7 9.1,-6.5 16.8,-14.8 22.5,-24.4 0.3,-0.5 0.6,-1 0.8,-1.5 1.7,-2.9 3.2,-6 4.5,-9.1 -5.3,0 -7.9,-0.6 -10.9,-1.2 0,0.1 -0.1,0 -0.2,0 z"
   id="path10452" />
			<path
   class="st0"
   d="m 728,640.2 c 0.1,-4.7 0.6,-7.1 1.2,-9.8 0.7,-3.2 1.5,-6.8 1.5,-13.6 0,-1.7 0,-3.2 -0.1,-4.6 -1,-0.1 -2.1,-0.1 -3.5,-0.1 -3.3,0 -5.4,0.2 -7.3,0.5 0.1,1.2 0.1,2.6 0.1,4.2 0,5.6 -0.6,8.3 -1.2,11.3 -0.6,2.9 -1.3,6.2 -1.5,12 v 0.1 H 689 c 0,0 0,0.1 0,0.1 0,3.5 0.5,8.2 0.8,10.7 h 28 2.1 3.4 5.5 c -0.3,-1.7 -0.8,-5.1 -0.8,-9.3 0,-0.5 0,-1 0,-1.5 z"
   id="path10454" />
			<path
   class="st0"
   d="m 770.4,554 c 0,0 0.1,0.5 0.2,1.1 -2.9,0.2 -7,1.1 -10.6,1.8 0,0 -0.7,-3.1 -1,-4.8 -0.4,-2.5 -0.8,-5.6 -0.8,-10 0,-6.3 0.7,-9.8 1.3,-12.9 l 11.4,-6.1 0.6,-0.3 c -0.3,3.4 -0.8,5.8 -1.3,8 -0.7,3 -1.2,5.7 -1.2,11.3 0,5.7 0.6,8.3 1.2,11.3 0.1,0.2 0.2,0.4 0.2,0.6 z"
   id="path10456" />
			<path
   class="st0"
   d="m 675.7,609.4 c -4.6,0.1 -7,0.6 -9.7,1.2 -3.2,0.7 -6.8,1.5 -13.6,1.5 H 652 c -0.5,0 -0.9,0 -1.4,0 -0.1,0 -0.3,0 -0.4,0 -5.4,-0.1 -8.6,-0.8 -11.4,-1.4 -0.5,-0.1 -1.1,-0.2 -1.6,-0.3 0,0 -0.1,0 -0.2,0 -2.2,-0.5 -4.6,-0.8 -8.5,-0.8 v 0 c -0.3,0 -0.7,0 -1,0 -0.3,0 -0.6,0 -0.9,0 h -0.2 c -4.9,0.1 -7.4,0.6 -10.2,1.2 -2.3,0.5 -4.9,1.1 -8.8,1.3 0.1,1.4 0.2,3 0.2,4.8 0,0.7 0,1.3 0,1.9 v 0 c -0.1,5.6 -0.8,8.8 -1.5,11.7 -0.6,2.8 -1.1,5.2 -1.2,9.8 v 0.1 c 0,0.4 0,0.9 0,1.4 0,4.2 0.5,7.7 0.8,9.3 h -48.9 l 12.3,-10.8 h 25 v -0.1 c 0.1,-5.8 0.8,-9.1 1.5,-12.1 0.7,-3 1.2,-5.7 1.2,-11.3 0,-0.5 0,-1 0,-1.5 l 9.7,-5 8.9,-4.7 13.4,-7 c 6,0.1 9.3,0.8 12.3,1.5 0.5,0.1 1,0.2 1.5,0.3 1.2,0.2 2.4,0.5 3.8,0.6 0.2,0 0.5,0 0.7,0.1 1.5,0.1 3.2,0.2 5.4,0.2 0.6,0 1.2,0 1.8,0 h 0.3 c 0.2,0 0.3,0 0.5,0 0.2,0 0.4,0 0.6,0 0.1,0 0.2,0 0.2,0 0.3,0 0.5,0 0.8,0 3,-0.2 5,-0.6 7.2,-1.1 2.6,-0.6 5.5,-1.2 10.1,-1.4 0.3,3.1 0.8,5.3 1.2,7.2 v 0.1 c 0.1,1.1 0.3,2.2 0.5,3.3 z"
   id="path10458" />
			<path
   class="st0"
   d="m 806.6,559.6 c -3.8,-0.2 -8,-0.8 -11.1,-1.3 -2.1,-11.4 -6.9,-21.8 -13.8,-30.5 -2,-2.6 -4.1,-4.9 -6.3,-7 l 8.3,-4.5 1.5,-0.8 c 0,0 1.4,1.5 2.1,2.3 1.6,1.7 3.1,3.6 4.4,5.3 v 0 c 7.8,10.5 13,22.9 14.9,36.5 z"
   id="path10460" />
			<path
   class="st0"
   d="m 646.2,598.2 c -1.1,-0.1 -2.1,-0.3 -3.2,-0.5 -0.5,-0.1 -0.9,-0.2 -1.4,-0.3 -1.8,-0.4 -3.8,-0.8 -6.4,-1.1 0,-0.3 0,-0.7 0,-1 l 2.8,-1.5 5.1,-2.7 2.9,-1.5 c 0,0.7 0,1.5 0,2.4 -0.1,2.6 0,4.6 0.2,6.2 z"
   id="path10462" />
			<path
   class="st0"
   d="m 717.2,567 c 0,0.8 0,1.6 0,2.3 -0.5,0.1 -0.9,0.2 -1.4,0.3 -2.1,0.4 -4.3,0.9 -7.5,1.2 0,0 -0.1,0 -0.1,0 -0.4,0 -0.7,0.1 -1.1,0.1 -0.1,0 -0.1,0 -0.2,0 -0.4,0 -0.9,0 -1.3,0.1 -0.1,0 -0.2,0 -0.3,0 -0.4,0 -0.8,0 -1.2,0 -0.1,0 -0.3,0 -0.4,0 -0.5,0 -1,0 -1.5,0 h -0.1 c -0.5,0 -0.9,0 -1.4,0 -0.2,0 -0.3,0 -0.5,0 -0.3,0 -0.6,0 -0.9,0 -0.2,0 -0.3,0 -0.5,0 -0.3,0 -0.6,0 -0.9,0 -0.1,0 -0.3,0 -0.4,0 -0.4,0 -0.7,0 -1,-0.1 -0.2,0 -0.3,0 -0.5,0 -0.2,0 -0.4,0 -0.6,-0.1 -0.2,0 -0.3,0 -0.5,0 -0.2,0 -0.4,0 -0.6,-0.1 -0.1,0 -0.3,0 -0.4,0 -0.3,0 -0.6,-0.1 -0.8,-0.1 -0.2,0 -0.3,0 -0.4,-0.1 -0.1,0 -0.3,0 -0.4,-0.1 -0.1,0 -0.1,0 -0.2,0 -1.3,-0.2 -2.5,-0.5 -3.5,-0.7 -1.1,-0.2 -2.2,-0.5 -3.3,-0.7 l 16.3,-8.7 h 1.7 c 0.1,0 0.2,0 0.4,0 0.2,0 0.5,0 0.7,0 0.1,0 0.2,0 0.3,0 0.2,0 0.5,0 0.7,0 0.1,0 0.2,0 0.3,0 0.2,0 0.5,0 0.7,0 3.1,-0.2 5,-0.6 7.2,-1.1 0.9,-0.2 1.9,-0.4 3,-0.6 0.1,0.6 0.3,1.4 0.4,2 0.1,1 0.2,2 0.3,3 -0.1,1 -0.1,2.1 -0.1,3.4 z"
   id="path10464" />
			<path
   class="st0"
   d="m 729.2,580.6 c -0.7,3 -1.2,5.7 -1.2,11.3 0,1.6 0,2.9 0.1,4.1 -0.3,0 -0.7,0 -1,0 -4.2,0 -7.3,0.3 -9.7,0.7 -0.1,-1.4 -0.2,-3 -0.2,-4.7 0,-6.8 0.8,-10.4 1.5,-13.6 0.7,-3 1.2,-5.7 1.2,-11.3 0,-1.3 0,-2.5 -0.1,-3.7 -0.1,-1.2 -0.2,-2.2 -0.3,-3.2 -0.2,-1.3 -0.6,-3.2 -0.6,-3.2 0,0 -0.7,-3.1 -1,-4.8 0,-0.2 -0.1,-0.3 -0.1,-0.5 l 2.2,-1.2 8,-4.3 c 0.2,3.1 0.6,5.1 1.1,7.3 0,0.2 0.1,0.4 0.1,0.6 0,0 0.1,0.4 0.2,0.9 0,0 0,0 0,0 0,0.1 0,0.1 0,0.2 0.4,2 0.8,4.4 1,7.6 0.1,1.3 0.1,2.8 0.1,4.3 0.2,6.7 -0.6,10.3 -1.3,13.5 z"
   id="path10466" />
		</g>
		<path
   class="st0"
   d="m 772.8,454 c -1.6,5.6 -7.7,7.4 -13.6,4 0,0 0,0 -0.1,0 l -14.3,13 -16.2,14.6 -32.4,29.4 -32.6,29.1 -17,15.2 v 0 l -0.5,0.3 -12.1,6.6 -1.8,1 -26.5,14.5 17.9,-16.5 32.3,-29.5 32.4,-29.3 13.3,-12 11.9,-10.7 1.3,-1.1 6,-5.4 1.9,-1.7 14.3,-12.9 14.9,-13.2 c -1,-2.6 -1.2,-5.3 -0.5,-7.7 1.6,-5.6 7.7,-7.4 13.6,-4 5.9,3.3 9.4,10.6 7.8,16.3 z"
   id="path10470" />
		<path
   class="st0"
   d="m 572.8,624.5 -7.4,6.5 -15.9,13.9 -6.8,6 -10.1,8.9 -8.2,7.2 c -2.7,2.4 -5.4,4.8 -8.3,7.1 -2.8,2.3 -5.8,4.5 -8.8,6.5 -1.3,0.9 -2.6,1.7 -3.9,2.5 -1.6,0.9 -3.3,-1 -2.2,-2.4 0.9,-1.3 1.9,-2.5 2.9,-3.7 2.3,-2.8 4.8,-5.5 7.4,-8.1 1.5,-1.5 3,-2.9 4.5,-4.3 1.1,-1.1 2.3,-2.1 3.4,-3.2 l 5.2,-4.9 2.8,-2.6 3.2,-3 11.4,-10.5 0.9,-0.9 h 0.8 l 3.3,-1.7 1.9,-1 16.9,-8.7 z"
   id="path10472" />
		<path
   class="st0"
   d="m 788.9,483.4 c -1.2,2.2 -1.6,4.9 -1.3,7.6 l -9.7,5.1 -7.9,4.1 -2.6,1.4 -14.4,7.6 -2.3,1.2 -7.1,3.8 -8.2,4.4 -12.9,6.9 -10.3,5.5 -22.2,11.9 -10.6,5.7 -5.8,3.1 -1.7,0.9 -22.9,12.4 -2.2,1.2 -9.9,5.4 -1.7,0.9 -32.3,17.7 -6,3.3 -5,2.7 -2.2,1.2 -1.6,0.9 -29.5,16.2 -17.7,9.8 -0.3,0.1 -20.3,11.2 -3.3,1.8 -6.2,3.5 c -3.2,1.8 -6.4,3.5 -9.5,5.4 -3.1,1.9 -6.2,3.9 -9.1,6.1 -1.2,0.9 -2.5,1.9 -3.7,2.9 -1.4,1.2 -0.2,3.4 1.6,2.9 1.5,-0.5 3,-0.9 4.4,-1.5 3.5,-1.2 6.8,-2.7 10.1,-4.2 3.3,-1.6 6.5,-3.3 9.7,-4.9 l 9.7,-5 12,-6.2 8.1,-4.2 18.7,-9.7 27,-14 3.9,-2 7.9,-4.1 2.7,-1.4 6.8,-3.5 23.9,-12.5 5.4,-2.8 6.8,-3.6 28.2,-14.8 3.7,-1.9 2.1,-1.1 11.1,-5.9 1.9,-1 23.6,-12.5 4,-2.2 11.4,-6.1 23.1,-12.4 11.5,-6.2 7.7,-4.1 3.8,-2.1 13.2,-7.2 c 0,0 0,0 0,0.1 4.9,4.7 11.3,4.5 14.2,-0.6 2.9,-5.1 1.3,-13 -3.6,-17.8 -5,-4.7 -11.3,-4.4 -14.2,0.6 z"
   id="path10474" />
	</g>
	<g
   id="g10500">
		<g
   id="g10488">
			<path
   class="st1"
   d="m 243.1,782.4 c 0,-35.7 27.2,-61.7 63.9,-61.7 18.6,0 34.8,6.4 45.8,18.8 l -11.2,10.9 c -9.3,-9.8 -20.7,-14.3 -34,-14.3 -27.2,0 -47.4,19.6 -47.4,46.4 0,26.7 20.2,46.4 47.4,46.4 13.3,0 24.6,-4.7 34,-14.5 l 11.2,10.9 c -11,12.4 -27.2,19 -46,19 -36.5,-0.2 -63.7,-26.2 -63.7,-61.9 z"
   id="path10478" />
			<path
   class="st1"
   d="M 366.5,714.9 H 383 v 127.9 h -16.5 z"
   id="path10480" />
			<path
   class="st1"
   d="m 397.5,797.1 c 0,-27.2 20.2,-46.5 47.6,-46.5 27.4,0 47.4,19.3 47.4,46.5 0,27.2 -20,46.7 -47.4,46.7 -27.4,0 -47.6,-19.5 -47.6,-46.7 z m 78.3,0 c 0,-19.5 -13.1,-32.1 -30.7,-32.1 -17.6,0 -30.8,12.6 -30.8,32.1 0,19.5 13.3,32.2 30.8,32.2 17.6,0 30.7,-12.7 30.7,-32.2 z"
   id="path10482" />
			<path
   class="st1"
   d="m 591.9,751.4 v 91.3 H 576.2 V 829 c -6.7,9.5 -18.1,14.8 -31,14.8 -23.6,0 -39.3,-12.9 -39.3,-39.8 v -52.6 h 16.5 v 50.7 c 0,17.9 9,26.9 24.6,26.9 17.2,0 28.3,-10.7 28.3,-30.3 v -47.2 h 16.6 z"
   id="path10484" />
			<path
   class="st1"
   d="m 684.5,722.1 v 43.1 c -7.6,-9.8 -19,-14.6 -31.9,-14.6 -26.7,0 -46.2,18.6 -46.2,46.5 0,27.9 19.5,46.7 46.2,46.7 13.4,0 25.2,-5.2 32.6,-15.5 v 14.5 H 701 V 722.1 Z M 654,829.3 c -17.6,0 -30.8,-12.8 -30.8,-32.2 0,-19.5 13.3,-32.1 30.8,-32.1 17.4,0 30.7,12.6 30.7,32.1 -0.1,19.5 -13.3,32.2 -30.7,32.2 z"
   id="path10486" />
		</g>
		<polygon
   class="st0"
   points="735.5,722.1 718.3,722.1 718.3,842.8 735.5,842.8 735.5,811.6 757.6,789.2 803.8,842.8 823.9,842.8 769.1,776.4 820.6,722.1 801,722.1 735.5,789.5 "
   id="polygon10490" />
		<path
   class="st0"
   d="m 886.1,750.5 c -14.5,0 -26.2,5.3 -32.9,14.6 v -13.8 h -15.9 v 91.3 h 16.5 v -47.1 c 0,-19.8 11.4,-30.3 29,-30.3 15.7,0 24.6,8.8 24.6,26.7 v 50.7 H 924 V 790 c 0,-26.7 -15.7,-39.5 -37.9,-39.5 z"
   id="path10492" />
		<rect
   x="942.59998"
   y="751.40002"
   class="st0"
   width="16.5"
   height="91.300003"
   id="rect10494" />
		<path
   class="st0"
   d="m 950.8,712.3 c -6.4,0 -11.2,4.8 -11.2,10.9 0,6 4.8,10.7 11.2,10.7 6.5,0 11.2,-4.8 11.2,-11 0,-6 -4.8,-10.6 -11.2,-10.6 z"
   id="path10496" />
		<path
   class="st0"
   d="m 1018.8,829.8 c -9.1,0 -14.3,-5.5 -14.3,-15.3 V 765 h 26.2 v -13.6 h -26.2 v -20 H 988 v 20 H 972.5 V 765 H 988 v 50.2 c 0,18.4 10.5,28.6 29,28.6 7.4,0 15,-2.1 20,-6.4 l -5.2,-11.9 c -3.5,2.8 -8.2,4.3 -13,4.3 z"
   id="path10498" />
	</g>
</g>
</svg>
